<?xml version="1.0" encoding="UTF-8"?>
<!DOCTYPE svg PUBLIC "-//W3C//DTD SVG 1.1//EN" "http://www.w3.org/Graphics/SVG/1.1/DTD/svg11.dtd">
<!-- Creator: CorelDRAW -->
<svg xmlns="http://www.w3.org/2000/svg" xml:space="preserve" width="191.99mm" height="326.541mm" version="1.1" style="shape-rendering:geometricPrecision; text-rendering:geometricPrecision; image-rendering:optimizeQuality; fill-rule:evenodd; clip-rule:evenodd"
viewBox="0 0 19184.73 32629.86"
 xmlns:xlink="http://www.w3.org/1999/xlink"
 xmlns:xodm="http://www.corel.com/coreldraw/odm/2003">
 <defs>
  <style type="text/css">
   <![CDATA[
    .fil0 {fill:#E5B378}
   ]]>
  </style>
 </defs>
 <g id="Layer_x0020_1">
  <metadata id="CorelCorpID_0Corel-Layer"/>
  <path class="fil0" d="M18475.17 32629.86c-6.47,-27.32 -4.54,-79.65 -4.06,-119.33 0.29,-24.71 1.45,-50.1 -1.16,-74.24 -2.13,-19.22 -9.75,-42.58 -10.71,-51.36 -2.03,-18.15 2.8,-31.77 2.42,-58.99 -0.97,-74.72 -28.29,-107.26 11.49,-154.28 -1.35,-71.25 -8.2,-28.1 3.67,-86.22 8.59,-42.1 3.67,-56.29 9.56,-93.55 5.41,-33.79 15.35,-34.27 24.42,-57.45 13.61,-34.66 2.71,-33.41 17.09,-67.78 10.81,-25.78 18.83,-25.1 21.53,-67 4.83,-75.3 -12.74,-116.04 -9.94,-194.45 1.93,-53.78 76.47,-33.02 79.18,-83.03 2.8,-52.52 -4.73,-48.66 8.4,-91.62 46.54,-151.58 25.2,-28.1 27.03,-268.69 1.06,-138.35 30.12,-128.69 36.97,-193.77 5.8,-55.03 -6.38,-76.65 19.8,-113.54 -1.06,-71.93 -12.45,-43.06 -9.27,-105.81 2.22,-42.77 10.23,-39.68 19.7,-67.87 29.83,-88.62 26.07,-184.88 39.49,-252.56 9.56,-48.27 19.7,-83.51 17.19,-134.97 -2.13,-43.45 -3.86,-23.36 -5.99,-43.16 -2.32,-21.91 6.47,-34.56 6.47,-84.87 0.1,-63.04 -0.77,-158.72 5.8,-215.59 12.94,-112.58 5.41,-92.1 -11.58,-173.88l-20.66 -179.19c-6.18,-73.28 -7.24,-125.71 -5.6,-207.67 14.68,-21.91 18.06,-33.22 21.04,-74.63 9.84,-136.52 9.65,-188.94 14.68,-331.73 4.44,-127.54 1.55,-343.6 8.59,-453.28 8.78,-135.65 51.07,-240.01 43.25,-377.01 -5.41,-94.81 12.45,-232.29 -11,-328.74 -5.31,-21.72 -15.26,-36.49 -25.1,-49.23 -0.19,-98.96 5.41,-159.11 -10.33,-238.18 -19.51,-98.38 -9.27,-44.41 -42.67,-86.61 0.29,-64.59 11.78,-36.97 -5.12,-92.2 -13.42,-44.03 -32.64,-92.88 -55.71,-116.91 -15.16,-15.84 -23.17,-9.46 -40.07,-29.93 -80.91,-97.71 -73.96,-152.64 -132.36,-183.14 -7.82,-256.62 27.71,-186.14 41.13,-343.23 5.02,-59.19 11.29,-112.19 25.39,-164.81 7.91,-29.83 9.07,-19.41 12.84,-64.49 2.42,-28.48 4.25,-58.32 3.96,-94.81 -1.55,-180.25 12.74,-165.39 49.72,-321.69l30.99 -151.19c12.26,-42.29 11.1,-11.97 18.35,-72.12l12.65 -75.88c16.9,-70.96 4.93,-112.29 9.75,-191.55 5.7,-92.78 14.68,-297.36 29.54,-366.39 14.87,-68.74 8.2,-115.56 18.73,-174.07l15.06 -78.78c13.71,-121.65 31.48,-23.07 9.65,-260.19 -5.31,-57.74 9.94,-132.65 18.06,-174.55 14.48,-74.24 10.62,-100.41 9.65,-193.19 -29.93,-52.52 -21.43,-16.22 -24.13,-119.81 -0.19,-7.43 -7.82,-137 -8.3,-139.71 -5.02,-25 -13.03,-25.2 -18.83,-43.64 -16.03,-51.65 4.35,-37.17 -30.32,-104.17 -15.16,-29.35 -19.6,-58.12 -32.06,-91.23 -26.65,-71.06 -54.94,-165.1 -82.64,-228.81 -5.7,-12.94 -26.94,-82.16 -28.97,-97.51 -3.67,-27.71 -1.64,-45.67 -6.18,-73.28 -12.65,-77.52 -21.91,-32.93 4.15,-174.46 10.13,-55.23 12.94,-27.23 24.62,-113.83 5.31,-39.39 13.32,-64.01 20.18,-114.41 10.52,-77.91 13.32,-55.03 29.06,-109.48 9.84,-34.17 15.93,-80.13 25.2,-105.72 10.52,-29.06 66.13,-139.22 66.52,-173.97 0.19,-22.49 -28.39,-97.71 -4.83,-153.42 7.62,-18.06 0.68,-2.22 7.62,-12.16l8.4 -149.07c30.8,-34.46 26.65,-48.75 36.59,-119.33 11.1,-78.01 16.22,-41.03 17.19,-149.74 24.62,-23.65 20.46,-21.33 31.38,-73.19 20.27,-96.26 38.52,-189.04 51.84,-293.3 15.74,-123.19 18.06,-95.58 41.52,-183.14 23.46,-87.76 14.29,-133.33 35.04,-196.85 28.77,-88.24 7.43,-147.14 28.1,-209.69 16.51,-50.01 11.2,-184.88 -0.97,-233.16 -5.99,-23.94 -8.2,-23.46 -13.9,-46.73 -8.3,-33.98 -3.09,-21.04 -6.38,-53.49 -3.77,-36.97 -15.35,-49.52 -10.71,-98.58 10.91,-114.51 5.02,-129.66 3.57,-236.53 -0.48,-38.62 4.73,-33.79 2.42,-61.11 -2.22,-26.55 -6.67,-21.04 -10.42,-42.48 -5.31,-30.61 -1.35,-73.67 -6.67,-114.41 -6.38,-48.75 -0.97,-82.74 -3.38,-131.78 -2.61,-52.33 -10.91,-37.26 -9.75,-110.55 1.06,-64.97 9.75,-106.1 23.75,-155.92 15.16,-53.87 11.58,-112 12.07,-177.16 0.68,-93.94 -5.8,-47.12 -12.74,-102.43 -17.28,-137.29 -34.66,-139.61 -16.03,-206.71 28.68,-103.49 -3.77,-106.1 -6.95,-207.19 -2.71,-86.03 -0.87,-278.63 18.25,-361.76 5.12,-22.11 -0.87,-73.57 0.48,-110.16 64.2,-84.58 56.87,-121.65 76.36,-166.93 18.73,-43.45 17.96,-14.77 35.04,-85.16 10.23,-42.1 7.33,-21.04 17.48,-48.08 16.99,-45.77 6.47,-111.61 37.07,-165.39 25.2,-44.22 5.51,-50.78 20.46,-113.93 12.94,-54.55 7.62,-91.33 14.87,-126.96l3.57 -11.68c11.29,-38.62 9.56,-76.07 7.43,-123.68l-21.72 -16.51c-1.84,-67.58 -8.98,-119.33 -10.52,-184.59 -2.42,-106.88 14.58,-77.81 24.91,-145.69 14.29,-93.55 -12.07,-258.94 -16.51,-339.75 -20.85,-29.06 -23.55,-17.57 -30.61,-68.16 -7.14,-51.36 -8.49,-26.26 -27.71,-62.08 -20.18,-37.55 -38.13,-90.27 -68.45,-107.55 -44.12,-25.2 -30.61,-30.12 -64.39,-73.48l-2.8 -3.48c-22.69,-27.42 -22.78,-36.97 -36.68,-84 -7.43,-25.29 -17.19,-46.25 -23.65,-72.03l-37.17 -172.91c-31.96,-172.24 -30.99,-54.65 -26.45,-174.84 1.45,-38.81 -1.93,-17.96 -2.42,-53.49 -1.35,-88.91 17.09,-290.12 32.15,-361.85 37.75,-179.58 -6.18,-173.4 -15.35,-279.5 -2.61,-30.12 -0.58,-28.68 4.54,-46.25 17.09,-59.09 8.78,-69.32 25,-134.39l46.44 -144.14c11.68,-33.31 16.9,-23.75 22.97,-71.54 36.59,-289.92 -11.58,-267.33 4.83,-426.15 9.94,-95.87 24.42,-87.09 2.51,-191.26 -12.36,-58.7 -33.51,-91.04 -63.81,-107.94 -1.16,-56.09 6.18,-62.17 -11.49,-96.74 -12.84,-25.1 -21.82,-28.39 -24.81,-70.19 -22.01,-307.59 48.66,-294.08 15.64,-401.05 -20.18,-65.26 -26.74,-101.37 -26.16,-181.03 0.29,-44.7 -0.68,-72.99 6.75,-109.1 7.53,-36.49 15.35,-36.78 17.57,-84.67 3.96,-85.74 -23.65,-91.23 -22.49,-185.27 0.58,-47.59 25,-105.23 27.71,-184.59 2.9,-85.45 12.74,-46.06 21.62,-102.43l10.04 -63.43c-14.39,-42.19 -7.82,4.54 -17.86,-37.94 -15.16,-64.01 8.88,-73.86 7.53,-162.87 -31.77,-6.18 -46.15,-11.58 -53.1,-59.77l-10.71 -145.69c-0.29,-136.71 7.04,-85.25 13.23,-140.86 8.78,-79.75 -6.75,-42.96 26.45,-104.07 47.3,-86.99 26.26,-157.27 33.02,-261.84 5.89,-90.94 17.57,-220.51 -23.26,-254.98 -33.98,-28.68 -23.07,-32.83 -32.83,-102.33 -4.44,-31.48 -9.27,-24.42 -7.24,-66.71 4.73,-97.51 6.95,-95.58 -28.97,-172.04 -41.13,-87.76 -37.84,-256.72 -56.48,-365.91 -25.97,-151.77 -15.26,-104.17 -70.29,-179.48 0.1,-120.59 -6.57,-95.77 26.65,-189.52 -5.89,-36.59 -14.29,-11.87 -5.8,-69.32 3.77,-25.49 8.69,-28.19 12.94,-66.62 12.65,-113.35 4.93,-50.49 27.61,-121.26 23.75,-74.43 38.71,-83.71 66.23,-143.17 7.82,-16.9 12.65,-26.84 22.4,-38.04 37.46,-43.06 66.42,-103.01 85.06,-186.53 8.49,-38.04 20.75,-80.13 30.03,-123 20.95,-97.13 -5.8,-197.43 -6.18,-314.07 -0.48,-170.98 0.29,-139.61 -34.66,-286.07 -13.61,-56.96 -30.22,-228.81 -24.52,-299.78 4.44,-55.03 4.44,-106.59 8.98,-159.69 4.93,-58.41 1.35,-108.32 4.64,-167.9 1.35,-24.13 12.94,-114.51 16.8,-138.55 6.18,-37.36 46.06,-121.84 63.23,-147.23 14,-20.75 13.9,-6.75 21.24,-39.58 8.01,-36.01 18.06,-96.84 21.91,-141.44 10.13,-120.1 -10.42,-59.19 15.64,-233.84 4.44,-29.74 2.32,-49.81 6.75,-79.07l55.23 -239.43c42.1,-197.92 22.11,-164.32 23.46,-293.11 0.97,-94.81 -10.81,-205.65 -42.39,-273.52 -75.4,-162.39 -22.97,-125.03 -26.16,-250.44 -5.8,-229.88 -63.04,-232.39 -111.42,-300.26 -1.26,-80.13 6.38,-101.37 -17.48,-149.36 -15.06,-30.32 -30.22,-42.58 -39.39,-94.42 -4.44,-24.91 -4.54,-50.1 -8.4,-75.59 -17.38,-114.12 -32.83,-80.33 -66.04,-130.82 -1.64,-98.77 -5.41,-55.52 -21.53,-124.55 -19.31,-82.55 -7.91,-94.62 -38.62,-162.29l-15.45 -52.62c-12.45,-51.17 -4.73,-81.58 -10.33,-137.39 -9.75,-96.64 -66.81,-69.71 -71.74,-178.23 -2.22,-48.27 -5.31,-118.56 1.16,-156.5 4.06,-23.46 14,-28.77 11.1,-60.82 -2.42,-26.45 -13.9,-41.32 -0.29,-86.12 19.6,-64.68 -13.61,-93.36 -28.97,-148.68 -10.04,-36.01 -4.44,-79.26 1.35,-119.33 5.51,-38.33 5.7,-76.36 10.33,-116.24 3.86,-33.31 5.02,-83.71 11.39,-117.4 16.41,-86.99 52.91,-206.51 64.2,-285.68 19.22,-134.78 65.84,-246.87 85.83,-376.43 6.28,-40.45 8.11,-74.24 11.78,-114.03 9.75,-104.56 47.21,-200.81 8.01,-334.63 -18.73,-64.01 -1.84,-61.79 -4.35,-114.79 -1.64,-35.62 -14.39,-63.43 -22.11,-90.36 -16.61,-58.32 1.45,-55.42 -6.18,-106.88 -1.45,-10.13 -8.01,-40.94 -10.62,-52.62 -11.49,-52.23 -9.46,-66.81 -16.9,-103.78l-25.1 -152.06c-6.57,-36.97 -12.26,-68.36 -16.9,-105.33 -7.82,-63.04 -28.58,-127.35 -31.28,-149.16 -7.53,-60.72 4.44,-136.81 -3.96,-195.12 -7.62,-52.81 -17.19,-198.3 -6.09,-247.84 18.15,-81.49 26.45,-109.1 26.07,-220.8 -0.39,-121.65 6.75,-153.22 -31.67,-207.67 -0.39,-61.4 0.19,-67.2 -5.7,-119.52 -3.86,-33.88 -3.57,-79.46 -5.8,-118.65 -7.82,-136.61 -4.93,-130.62 32.44,-190.87 46.44,-75.01 10.91,-170.69 10.33,-240.11 -0.58,-67.78 0.19,-106.3 -10.91,-170.4 -2.42,-14.19 -5.8,-27.71 -9.36,-44.8 -3,-14.29 -5.22,-30.03 -9.27,-45.28 -4.06,-15.45 -7.43,-18.93 -13.13,-36.1 -13.32,-40.94 -20.95,-75.4 -41.61,-107.07 -4.44,-6.75 -4.54,-3.77 -11,-14.77 -13.13,-22.49 -29.35,-62.65 -31.96,-98.29 -4.93,-64.59 3.77,-101.18 -17.28,-154.28 -23.17,-58.41 -32.06,-95 -33.69,-180.25 -27.42,-34.75 -9.56,16.13 -26.84,-50.1 -10.62,-41.03 -12.65,-16.8 -17.86,-68.26l-19.22 -104.17c-6.47,-28.48 6.09,25.39 -4.73,-20.18 -7.82,-32.73 4.73,-54.94 3.09,-92.01l-17812.13 0c9.36,119.62 11.29,80.91 29.74,167.22 27.81,130.14 -9.17,314.16 -4.64,390.33 9.27,156.98 -20.95,221.96 -38.23,365.14 -11.68,96.74 0.39,119.81 -1.35,202.84 -56.96,55.52 -34.37,114.79 -32.35,216.84 1.35,70.38 3.38,30.61 9.94,82.93 -6.38,57.74 -20.75,31.38 -10.13,105.81l22.69 141.63c13.03,63.33 38.33,28 63.04,55.13 63.23,69.22 -32.15,349.01 15.35,625.14 13.03,75.88 1.35,156.11 6.67,235l8.59 233.35c6.28,32.64 21.62,40.07 30.03,66.23 8.01,24.91 6.09,69.61 5.8,107.75 -15.26,30.9 -19.41,24.33 -38.42,42.1 -17.77,16.61 -15.06,21.91 -19.41,67.68 -4.73,49.23 -11,39.2 -11.78,102.14 -0.48,39.1 0.68,66.42 -1.74,106.1 -17.48,286.74 12.84,240.3 9.75,439.18 7.91,9.07 13.03,8.11 21.72,16.9 1.93,75.69 -0.77,96.26 -19.02,148 -9.84,27.81 -3.86,50.78 -11.2,87.09 -7.53,37.26 -7.53,2.9 -8.88,52.71 -0.68,23.17 1.93,52.91 0.68,74.72 -3.38,58.32 -15.93,35.04 -31.19,89.2 -15.26,54.16 -9.27,45.77 -19.02,108.13 -5.8,36.97 -5.6,22.3 -14.97,44.12 -14.19,33.22 -3.57,18.35 -13.23,55.32l-3.77 11.49c-14,47.88 -7.53,117.78 -12.84,169.43 -3.09,30.51 -5.41,19.02 -13.23,47.88 3.38,57.45 12.84,34.85 8.2,96.64 -2.8,37.65 -1.84,58.12 2.71,95.39 18.54,151.1 87.19,119.43 86.41,278.72 -0.77,167.7 8.3,170.3 17.38,308.85 11.1,170.79 35.72,130.82 46.83,230.84 6.95,62.46 6.28,364.36 -5.7,403.66 -3.38,11.2 -24.81,52.71 -28.68,61.79 -48.46,112.58 -49.14,274.48 -74.06,412.34 -24.42,134.87 -26.26,72.99 -44.12,252.46 -8.4,84.96 -12.16,98.09 2.8,183.92 5.22,29.83 5.02,69.42 4.35,104.85 -1.55,81.39 -28.68,97.13 -48.75,237.69 -8.49,59.28 -4.35,44.32 14.77,66.42l-0.1 83.13c-11.2,22.01 -27.61,15.74 -21.82,61.5 4.54,36.01 16.03,8.69 12.65,84.19 -3.77,85.06 -20.95,97.8 -29.54,153.42 -7.04,46.25 -0.1,45.19 -16.99,73.86 -23.46,39.78 -29.64,82.35 -38.52,144.04 -6.67,46.35 -4.83,26.94 -20.56,55.61 -0.48,86.32 9.17,39.78 17.67,101.56 -4.35,58.32 -21.62,45.09 -23.46,101.56 1.93,20.46 56.19,76.07 66.42,83.8 32.35,24.42 11.78,85.16 46.83,126.38 49.33,58.12 93.75,97.42 74.53,273.61 -7.53,68.93 -10.91,122.9 7.04,179.58 33.41,104.94 126.19,201.49 107.36,424.03 -9.84,116.14 7.14,89.88 11.97,186.72 3.67,74.14 0.77,147.23 -7.04,210.56 -4.73,38.13 -2.9,60.15 -0.29,98.77 3.28,48.95 0.39,54.45 -2.61,98.48 -4.06,59.48 -13.61,119.72 -23.55,166.84 -34.08,161.13 -7.43,181.8 0.29,275.64 10.04,121.45 -9.65,246.1 -10.81,304.12 -2.61,133.72 18.06,81.2 42.87,129.46 21.62,57.64 -5.7,193.19 -7.82,239.62 -2.42,51.26 -3.57,82.35 4.64,127.73 5.8,31.77 6.67,21.53 3.67,65.55 -10.13,150.32 -26.16,82.06 -25.58,297.36 0.29,88.14 -9.94,52.23 -16.61,102.53 -9.17,68.93 -12.65,151.19 -29.06,215.01 -10.42,40.55 -6.47,64.97 -23.46,92.68 -16.99,27.61 -22.69,25.58 -33.12,70.19l-25.39 156.88c-6.09,58.99 -17.96,74.82 -25.29,152.64 -5.02,53.49 -0.77,70.48 10.23,103.69 8.01,24.33 15.06,53.87 21.82,79.94 44.99,7.14 80.91,-3.48 97.32,85.16 4.73,25.49 8.49,29.64 17.09,48.85 13.03,62.56 -33.69,135.55 -12.45,301.42 17.38,135.36 23.17,52.42 23.94,299.2 0.19,58.8 -13.61,85.35 -27.13,117.69 -33.88,81 9.46,113.64 -28.48,275.35 -7.14,30.61 -15.55,151.77 -5.7,165.29 3,4.15 6.47,8.2 9.27,12.16 10.33,14.87 23.07,60.54 26.26,85.64 1.55,12.36 1.26,20.66 2.03,33.51 10.13,158.82 -34.08,188.46 -28.77,258.74 2.03,26.65 4.73,21.33 8.59,56.87l12.07 167.12c3.86,59.19 13.13,51.65 13.42,110.84 0.29,71.25 -11.39,101.66 -23.36,152.55l-80.52 372.57c-11,41.71 -22.88,85.83 -28.19,135.74 -10.04,94.71 -1.06,174.65 -8.11,251.89 -4.44,48.95 -14,38.91 -19.51,95.87 -11.29,118.27 -1.55,259.23 -17.67,370.83 -9.27,64.2 -12.26,35.82 -24.42,89.2l-37.94 190c-5.41,41.81 -6.28,64.3 -13.03,103.88 -5.6,33.02 -13.32,51.26 -21.43,95.97 -23.36,128.5 -18.54,226.69 -35.43,325.07 -6.85,39.58 -10.71,68.55 -18.25,102.53 -26.65,118.85 32.54,219.07 -59.77,274.97 -7.14,102.62 -7.14,42.19 -29.83,104.75 -9.84,27.23 -17.38,74.82 -22.59,110.26 -29.26,199.08 -36.2,306.72 -76.75,489.68 -42.48,191.55 -24.04,94.23 -30.32,253.62 -19.12,20.46 -28.19,17.19 -38.42,61.21 -21.82,93.94 -23.94,217.81 -37.55,310.97 -17.57,120.3 -31.19,90.27 -50.88,164.32 -21.33,80.23 9.36,96.64 -43.64,168.28 0.39,47.5 4.44,47.79 6.18,89.01 2.42,56.19 -3.57,110.64 16.8,152.06 13.13,26.65 9.65,15.06 20.95,50.78 13.42,42.77 25.78,70 48.75,83.71 61.4,36.68 28.58,182.18 44.9,280.95l17.38 55.71c8.49,28.68 14.1,27.23 18.25,53.58 7.72,49.14 2.71,115.66 13.03,159.88 13.52,58.22 17.86,63.72 17.67,155.53l-27.71 16.22c0.29,57.35 4.44,34.56 10.81,67.87 10.52,54.45 -3.09,29.16 -0.29,75.21 2.9,46.83 32.64,55.03 48.46,82.06 -0.19,64.49 -3.19,26.07 -8.78,63.81 -8.11,54.74 16.41,92.88 28.19,139.13 11.87,46.73 17.48,86.12 38.33,123.1 20.18,35.82 56.87,164.23 83.9,159.49 25.2,-4.44 35.14,-24.62 59.77,9.84 27.32,38.23 10.81,11.2 48.37,10.33 4.35,337.14 25,216.84 30.9,309.82 5.02,78.68 0.19,44.61 43.64,113.45 17.28,27.42 13.23,68.55 25.87,104.46 16.32,46.06 17.57,87.28 30.61,141.63l16.9 70.67c40.74,4.06 32.83,-24.13 76.46,-12.26 2.03,49.91 7.04,76.46 3.77,123.1 -4.44,63.52 4.35,61.98 6.75,115.27 1.93,41.23 2.51,85.64 7.33,124.16 1.93,15.84 5.6,26.74 8.59,56.29 2.61,25.58 2.42,26.94 1.84,59.48 -4.06,228.81 4.44,298.23 77.23,395.36 3.77,115.27 -15.55,96.55 -23.17,180.25 -4.83,53.2 15.06,108.9 23.26,162.1 26.36,170.11 42.96,120.1 27.52,354.04 -2.32,34.75 -1.74,72.9 -3.86,107.46 -11.58,190 -13.23,79.94 5.6,270.43 3.19,31.77 3.38,65.75 6.85,98 3.67,34.85 8.78,40.55 13.42,77.04 12.26,96.35 16.03,87.38 -5.02,165.1 -12.94,47.98 -6.18,129.75 -9.27,193.38 -2.22,47.98 -11.2,118.36 -18.15,175.13 -3.77,30.41 -11.97,48.27 -7.33,91.81 3.86,36.49 11.78,26.94 16.51,67.87 15.06,128.98 -38.62,173.68 -64.1,291.56 -23.65,109.1 -0.48,267.04 -29.45,366.01 -11.58,39.78 -21.24,103.69 -22.97,163.65 -3.86,132.75 9.65,268.69 -0.39,316.39l-48.08 326.33c-4.54,38.42 -0.97,57.74 -2.51,95.1 -6.57,157.27 -26.07,180.16 28.68,330.09 30.7,84.09 -13.9,222.34 13.81,358.66 24.42,119.91 47.02,54.36 70.67,280.66 4.44,42.67 3,50.01 13.23,84.58 20.75,70.58 5.31,138.84 70.58,225.63 35.62,47.4 15.06,16.99 38.91,77.62 8.59,21.62 20.66,30.8 28.58,52.42 16.61,45.67 38.42,266.27 3.19,346.4 -15.45,35.14 -8.69,21.43 -10.81,80.42 -24.13,31.57 -14.68,16.13 -44.9,36.2 -63.33,42.19 -40.45,163.65 -38.23,270.43 3,142.01 -8.78,286.84 52.81,338.68 7.24,6.09 18.25,6.67 20.27,17.57 0.68,3.38 2.51,2.32 3.57,4.06 -2.13,191.94 -36.49,228.52 -36.01,313.87 0.87,159.2 60.54,84.96 25.1,283.56 -5.41,30.22 -6.57,45.09 -14.1,74.14 -22.59,86.9 -5.8,80.52 1.06,133.33 3.38,25.78 0.58,54.55 3.28,86.32 5.7,65.84 -0.87,49.62 -0.87,89.01 0,44.9 7.14,0.48 12.55,63.14 3.67,42.77 -6.67,127.83 -11.1,166.45 -7.33,63.04 -5.02,114.03 -5.31,184.59 -0.58,141.53 31.96,187.49 32.44,313.58 0.77,208.45 10.81,282.78 39.49,484.85 17.57,123.87 14.39,188.75 -9.07,314.65 -8.4,45.19 -17.86,98.19 -3.38,155.43 11.2,44.41 11.78,5.02 18.93,59.57 10.42,78.78 -296.54,398.54 -306.1,444.88 -12.16,58.9 -22.59,68.65 -37.36,116.33 -24.13,78.01 -36.01,181.41 -60.35,256.14 -64.3,197.82 -14.68,146.94 -28.58,300.26 -6.28,69.51 -18.25,66.33 2.42,143.95 23.75,89.4 10.62,43.74 45.09,101.27 17.96,30.03 12.74,83.42 24.42,137.58l32.35 126.58c7.04,20.56 10.62,43.74 14.1,65.65l5.22 25.87 17806.95 0 -0.04 0.32z"/>
 </g>
</svg>
