<?xml version="1.0" encoding="UTF-8"?>
<!DOCTYPE svg PUBLIC "-//W3C//DTD SVG 1.1//EN" "http://www.w3.org/Graphics/SVG/1.1/DTD/svg11.dtd">
<!-- Creator: CorelDRAW -->
<svg xmlns="http://www.w3.org/2000/svg" xml:space="preserve" width="5.3648mm" height="5.3647mm" version="1.1" style="shape-rendering:geometricPrecision; text-rendering:geometricPrecision; image-rendering:optimizeQuality; fill-rule:evenodd; clip-rule:evenodd"
viewBox="0 0 1.59 1.59"
 xmlns:xlink="http://www.w3.org/1999/xlink"
 xmlns:xodm="http://www.corel.com/coreldraw/odm/2003">
 <defs>
  <style type="text/css">
   <![CDATA[
    .fil0 {fill:#FEFEFE}
    .fil1 {fill:#2B2A29}
   ]]>
  </style>
 </defs>
 <g id="Layer_x0020_1">
  <metadata id="CorelCorpID_0Corel-Layer"/>
  <polygon class="fil0" points="1.38,1.22 1.22,1.38 0.8,0.96 0.38,1.38 0.21,1.22 0.63,0.8 0.21,0.38 0.38,0.21 0.8,0.63 1.22,0.21 1.38,0.38 0.96,0.8 "/>
  <path class="fil1" d="M1.53 1.36l-0.17 0.17c-0.08,0.08 -0.21,0.08 -0.3,0l-0.27 -0.27 -0.27 0.27c-0.08,0.08 -0.21,0.08 -0.3,0l-0.17 -0.17c-0.08,-0.08 -0.08,-0.21 0,-0.3l0.27 -0.27 -0.27 -0.27c-0.08,-0.08 -0.08,-0.21 0,-0.3l0.17 -0.17c0.08,-0.08 0.21,-0.08 0.3,0l0.27 0.27 0.27 -0.27c0.08,-0.08 0.21,-0.08 0.3,0l0.17 0.17c0.08,0.08 0.08,0.21 0,0.3l-0.27 0.27 0.27 0.27c0.08,0.08 0.08,0.21 0,0.3zm-0.15 -0.15l-0.17 0.17 -0.42 -0.42 -0.42 0.42 -0.17 -0.17 0.42 -0.42 -0.42 -0.42 0.17 -0.17 0.42 0.42 0.42 -0.42 0.17 0.17 -0.42 0.42 0.42 0.42z"/>
 </g>
</svg>
