<svg xmlns="http://www.w3.org/2000/svg" xml:space="preserve" width="20.276" height="20.276" style="shape-rendering:geometricPrecision;text-rendering:geometricPrecision;image-rendering:optimizeQuality;fill-rule:evenodd;clip-rule:evenodd" viewBox="0 0 1.59 1.59"><path style="fill:#fefefe" d="m1.38 1.22-.16.16L.8.96l-.42.42-.17-.16L.63.8.21.38.38.21.8.63l.42-.42.16.17L.96.8z"/><path d="m1.53 1.36-.17.17c-.08.08-.21.08-.3 0l-.27-.27-.27.27c-.08.08-.21.08-.3 0l-.17-.17c-.08-.08-.08-.21 0-.3L.32.79.05.52C-.03.44-.03.31.05.22L.22.05c.08-.08.21-.08.3 0l.27.27.27-.27c.08-.08.21-.08.3 0l.17.17c.08.08.08.21 0 .3l-.27.27.27.27c.08.08.08.21 0 .3zm-.15-.15-.17.17L.79.96l-.42.42-.17-.17.42-.42L.2.37.37.2l.42.42.42-.42.17.17-.42.42.42.42z" style="fill:#2b2a29"/></svg>