<?xml version="1.0" encoding="UTF-8"?>
<!DOCTYPE svg PUBLIC "-//W3C//DTD SVG 1.1//EN" "http://www.w3.org/Graphics/SVG/1.1/DTD/svg11.dtd">
<!-- Creator: CorelDRAW -->
<svg xmlns="http://www.w3.org/2000/svg" xml:space="preserve" width="4.659mm" height="4.6589mm" version="1.1" style="shape-rendering:geometricPrecision; text-rendering:geometricPrecision; image-rendering:optimizeQuality; fill-rule:evenodd; clip-rule:evenodd"
viewBox="0 0 1.21 1.21"
 xmlns:xlink="http://www.w3.org/1999/xlink"
 xmlns:xodm="http://www.corel.com/coreldraw/odm/2003">
 <defs>
  <style type="text/css">
   <![CDATA[
    .fil0 {fill:#FEFEFE}
    .fil1 {fill:#2B2A29}
   ]]>
  </style>
 </defs>
 <g id="Layer_x0020_1">
  <metadata id="CorelCorpID_0Corel-Layer"/>
  <polygon class="fil0" points="1.12,0.97 0.97,1.12 0.61,0.75 0.24,1.12 0.09,0.97 0.46,0.61 0.09,0.24 0.24,0.09 0.61,0.46 0.97,0.09 1.12,0.24 0.75,0.61 "/>
  <path class="fil1" d="M1.18 1.04l-0.15 0.15c-0.04,0.04 -0.09,0.04 -0.13,0l-0.3 -0.3 -0.3 0.3c-0.04,0.04 -0.09,0.04 -0.13,0l-0.15 -0.15c-0.04,-0.04 -0.04,-0.09 0,-0.13l0.3 -0.3 -0.3 -0.3c-0.04,-0.04 -0.04,-0.09 0,-0.13l0.15 -0.15c0.04,-0.04 0.09,-0.04 0.13,0l0.3 0.3 0.3 -0.3c0.04,-0.04 0.09,-0.04 0.13,0l0.15 0.15c0.04,0.04 0.04,0.09 0,0.13l-0.3 0.3 0.3 0.3c0.04,0.04 0.04,0.09 0,0.13zm-0.06 -0.06l-0.15 0.15 -0.37 -0.37 -0.37 0.37 -0.15 -0.15 0.37 -0.37 -0.37 -0.37 0.15 -0.15 0.37 0.37 0.37 -0.37 0.15 0.15 -0.37 0.37 0.37 0.37z"/>
 </g>
</svg>
