<svg xmlns="http://www.w3.org/2000/svg" xml:space="preserve" width="15.861" height="22.726" style="shape-rendering:geometricPrecision;text-rendering:geometricPrecision;image-rendering:optimizeQuality;fill-rule:evenodd;clip-rule:evenodd" viewBox="0 0 42.71 61.2"><path d="M21.05 0C9.42 0 0 9.42 0 21.05 0 35.03 13.53 48.36 21.36 61.2c7.83-12.84 21.36-26.17 21.36-40.15C42.72 9.42 33.3 0 21.67 0h-.62zm.31 10.55c2.9 0 5.52 1.18 7.42 3.07 1.9 1.9 3.07 4.52 3.07 7.42 0 2.89-1.18 5.52-3.07 7.42a10.493 10.493 0 0 1-14.84.01c-1.9-1.9-3.07-4.53-3.07-7.42 0-2.9 1.18-5.52 3.07-7.42 1.9-1.9 4.52-3.07 7.42-3.07z" style="fill:#fefefe"/></svg>