<svg xmlns="http://www.w3.org/2000/svg" xml:space="preserve" width="335.684" height="502.484" style="shape-rendering:geometricPrecision;text-rendering:geometricPrecision;image-rendering:optimizeQuality;fill-rule:evenodd;clip-rule:evenodd" viewBox="0 0 8881.56 13294.8"><defs><style>.fil1{fill:#f39519}.fil2{fill:#2b2a29;fill-rule:nonzero}</style></defs><g id="Layer_x0020_1"><path d="M7381.35 1500.21c-752.55-752.55-1792.22-1218-2940.57-1218-1148.36 0-2188.02 465.45-2940.57 1218-752.55 752.55-1218 1792.13-1218 2940.57 0 1059.19 474.49 2443.1 1166.36 3901.21 696.77 1468.69 1613.64 3010.22 2490.43 4373.93 48.68 75.73 135.4 150.87 233.1 207.83l-.17.25c92.38 53.84 190.25 88.75 268.86 88.75 78.6 0 176.48-34.91 268.86-88.75l-.17-.25c97.62-56.97 184.42-132.1 233.1-207.83 876.88-1363.71 1793.65-2905.24 2490.43-4373.93 691.78-1458.12 1166.36-2841.94 1166.36-3901.21 0-1148.36-465.45-2188.02-1218-2940.57z" style="fill:#2b2a29"/><path id="_1" class="fil1" d="M2724.21 10755.85c141.99-374.34 1388.81-3412.87 1524.38-3909.83 98.47-405.86 176.73-723.14 182.22-720.52 86.46-227.95 142.75-448.71 31.02-590.02-376.11-475.59-1260.18-613.52-2062.76-630.84-744.78-16.14-1419.41 71.42-1552.7 89.59 69.98 3.55 137.77 7.44 203.61 11.49 2866.19 176.22 1836.59 773.01 971.03 1112.18-28.99 11.41-1281.64 366.48-1473.16 434.18l2000.56 3899.6 175.63 304.27.17-.08z"/><path class="fil1" d="M4664.16 6557.72c-80.46 532.39-1359.32 4721.22-1594.28 5053.03-3.55 5.07 859.89 1311.23 858.37 1317.06C5514.59 13883.8 6847.86 9335 7422.26 8341.91c12.59-352.45-631.69-2252.09-786.36-2407.09-303-468.58-1018.2-1216.56-2491.95-1202.36-148.5 1.44-646.99 27.47-1230.42 62.12-240.97 14.37-496.38 30.09-747.65 46.32 171.41-2.37 346.11-.51 519.71 7.35 780.02 35.08 1537.31 189.24 1871.49 611.83 132.19 167.18 198.28 383.89 191.35 618.08 3.47-1.52-31.86 195.58-84.27 479.48v.07z"/><path class="fil2" d="M4557.08 5460.16c-334.19-422.6-1091.39-576.84-1871.49-611.83-173.6-7.78-348.3-9.72-519.79-7.35-549.63 7.61-1065.36 58.99-1402.17 100.07-93.65 11.41-173.35 22.06-236.15 30.68-14.45 1.94-27.98 3.89-40.65 5.66 5.75.85 14.96 1.52 27.98 2.03 58.32 2.2 115.28 4.56 170.98 7.02 54.77 2.45 108.35 4.99 160.67 7.69 133.29-18.09 807.91-105.73 1552.7-89.59 802.59 17.41 1686.65 155.26 2062.76 630.84 111.73 141.32 55.44 362.08-31.02 590.02 12.85 6.17-1728.15 3750.86-2182.7 4080.9l821.77 1404.28c305.37-648.85 1678.45-5306.76 1678.45-5532.6 6.93-234.2-59.16-450.83-191.35-618v.18z"/><path class="fil2" d="M4440.86 0C5667.14 0 6777.3 497.06 7580.9 1300.66c803.6 803.6 1300.66 1913.84 1300.66 3140.04 0 1104.74-485.73 2528.8-1193.91 4021.31-703.11 1482.04-1626.06 3034.05-2508.1 4405.88-73.19 113.85-194.9 221.78-327.85 299.37h-.59c-132.61 77.34-281.03 127.54-410.34 127.54s-277.73-50.2-410.34-127.54h-.59c-133.03-77.59-254.66-185.52-327.85-299.37-882.04-1371.83-1804.98-2923.84-2508.1-4405.88C485.71 6969.41-.02 5545.44-.02 4440.7c0-1226.28 497.06-2336.44 1300.66-3140.04C2104.24 497.06 3214.48 0 4440.68 0h.16zm2940.57 1500.21c-752.55-752.55-1792.22-1218-2940.57-1218-1148.36 0-2188.02 465.45-2940.57 1218-752.55 752.55-1218 1792.13-1218 2940.57 0 1059.19 474.49 2443.1 1166.36 3901.21 696.77 1468.69 1613.64 3010.22 2490.43 4373.93 48.68 75.73 135.4 150.87 233.1 207.83l-.17.25c92.38 53.84 190.25 88.75 268.86 88.75 78.6 0 176.48-34.91 268.86-88.75l-.17-.25c97.62-56.97 184.42-132.1 233.1-207.83 876.88-1363.71 1793.65-2905.24 2490.43-4373.93 691.78-1458.12 1166.36-2841.94 1166.36-3901.21 0-1148.36-465.45-2188.02-1218-2940.57z"/><path d="M8596.81 4623.43c77.08-2132.41-1622.76-4164.74-3863.1-4329.89C2442.74 124.67 454.44 1871.34 292.76 4065.02c-22.82 309.76-7.94 524.19 40.74 818.65.76.08 1.52.17 2.28.25 9.47 1.01 19.1 2.03 28.65 3.04 65.76-9.13 149.26-20.2 247.22-32.12 352.45-43.02 892.26-96.86 1467.59-104.8 263.02-16.9 600.59-37.61 852.79-52.66 936.47-236.91 1912.57-601.77 2980.72-1433.52 596.87-464.77 1820.02 560.27 2684.07 1359.57h-.01z" style="fill:#e9532c"/></g></svg>