<svg xmlns="http://www.w3.org/2000/svg" xml:space="preserve" width="17.861" height="25.643" style="shape-rendering:geometricPrecision;text-rendering:geometricPrecision;image-rendering:optimizeQuality;fill-rule:evenodd;clip-rule:evenodd" viewBox="0 0 6.93 9.95"><path d="M3.47 9.21C4.6 7.36 6.55 5.44 6.55 3.43 6.55 1.75 5.19.4 3.52.4h-.09C1.75.4.4 1.76.4 3.43c0 2.01 1.95 3.93 3.08 5.78zm0-7.3c.42 0 .8.17 1.07.44s.44.65.44 1.07c0 .42-.17.8-.44 1.07s-.65.44-1.07.44c-.42 0-.8-.17-1.07-.44s-.44-.65-.44-1.07c0-.42.17-.8.44-1.07s.65-.44 1.07-.44zM1.01 1a3.4 3.4 0 0 1 2.42-1h.09c.94 0 1.8.38 2.42 1 .62.62 1 1.47 1 2.42 0 1.58-1.06 3.04-2.09 4.46-.38.52-.75 1.03-1.05 1.52l-.33.54-.33-.54c-.3-.49-.67-1.01-1.05-1.52C1.06 6.46 0 5 0 3.42 0 2.48.38 1.62 1 1zM3.9 2.38c-.13-.05-.28-.08-.43-.08-.31 0-.59.13-.79.33-.1.1-.19.23-.25.37-.05.13-.08.28-.08.43 0 .15.03.3.08.43.06.14.14.26.24.37a1.123 1.123 0 0 0 .8.32c.15 0 .3-.03.43-.08a1.135 1.135 0 0 0 .61-.61c.05-.13.08-.28.08-.43 0-.31-.13-.59-.33-.79-.1-.1-.23-.19-.37-.25z" style="fill:#2b2a29"/><path d="M3.47 1.91c.42 0 .8.17 1.07.44s.44.65.44 1.07c0 .42-.17.8-.44 1.07s-.65.44-1.07.44c-.42 0-.8-.17-1.07-.44s-.44-.65-.44-1.07c0-.42.17-.8.44-1.07s.65-.44 1.07-.44zM3.51.39h-.09C1.74.39.39 1.75.39 3.42c0 2.01 1.95 3.93 3.08 5.78C4.6 7.35 6.55 5.43 6.55 3.42 6.55 1.74 5.19.39 3.52.39z" style="fill:#fefefe;stroke:#2b2a29;stroke-width:.29;stroke-miterlimit:22.9256"/></svg>