<?xml version="1.0" encoding="UTF-8"?>
<!DOCTYPE svg PUBLIC "-//W3C//DTD SVG 1.1//EN" "http://www.w3.org/Graphics/SVG/1.1/DTD/svg11.dtd">
<!-- Creator: CorelDRAW -->
<svg xmlns="http://www.w3.org/2000/svg" xml:space="preserve" width="24.5462mm" height="39.4713mm" version="1.1" style="shape-rendering:geometricPrecision; text-rendering:geometricPrecision; image-rendering:optimizeQuality; fill-rule:evenodd; clip-rule:evenodd"
viewBox="0 0 209.08 336.21"
 xmlns:xlink="http://www.w3.org/1999/xlink"
 xmlns:xodm="http://www.corel.com/coreldraw/odm/2003">
 <defs>
  <style type="text/css">
   <![CDATA[
    .str0 {stroke:#2B2A29;stroke-width:1.7;stroke-miterlimit:22.9256}
    .fil4 {fill:#FEFEFE}
    .fil3 {fill:#F3941D}
    .fil2 {fill:#E9572A}
    .fil5 {fill:#AAA8A8}
    .fil1 {fill:#231F20}
    .fil0 {fill:#1C1B17}
   ]]>
  </style>
 </defs>
 <g id="Layer_x0020_1">
  <metadata id="CorelCorpID_0Corel-Layer"/>
  <path class="fil0 str0" d="M104.54 0.85c57.27,0 103.69,46.42 103.69,103.69 0,57.27 -71.38,230.82 -103.69,230.82 -32.3,0 -103.69,-173.55 -103.69,-230.82 0,-57.27 46.42,-103.69 103.69,-103.69z"/>
  <g id="_1549211216368">
   <path class="fil1" d="M89.8 170.4c16,-0.75 16.78,24.63 1.11,25.44 -16.24,0.83 -16.94,-24.7 -1.11,-25.44zm-33.44 33.9l-3.64 -0.7c-3.51,-1.05 -6.48,-3.22 -7.42,-7.07 -1.25,-5.1 1.34,-7.56 1.21,-11.37 -0.11,-3.1 -4.26,-5.41 -7.05,-5.5 -4.7,-0.15 -6.43,0.43 -10.9,-2.14 -6.9,-3.97 -8.6,-9.99 -7.09,-17.29 0.7,-3.37 -1.74,-5.41 -3.23,-8.22 -3.1,-5.87 -5.41,-10.39 -7.7,-16.7 -14.26,-39.17 -0.55,-85.7 33.33,-111.62 22.63,-17.31 46.72,-23 74.83,-19.55 8.24,1.01 15.16,2.8 23.04,5.93 60.34,23.96 81.76,100.11 42.64,152.19 -3.43,4.56 -3.32,2.17 -4.04,8.32 -1.14,9.7 -11.6,7.85 -14.76,10.34 -3.02,2.38 -2.36,7.25 -3.69,10.72 -2.33,6.11 -7.06,11.21 -13.45,13.03 -10.17,2.9 -16.33,-0.27 -22.08,-0.21 -1.76,0.02 -3.24,0.67 -5.02,0.68 -2.02,0 -3.98,-0.63 -5.99,-0.75 -4.52,-0.26 -5.06,1.43 -11.04,-0.02 -6.91,-1.67 -3.87,-1.15 -9.83,0.51 -3.4,0.95 -7.57,0.67 -10.88,-0.44 -4.51,-1.51 -5.48,0.23 -10.03,0.33 -3.91,0.08 -6.94,-1.34 -10.67,-0.71 -1.98,0.34 -4.27,0.46 -6.54,0.24zm-21.15 -44.06c1.62,2.28 -0.94,7.36 4.33,6.31 3.87,-0.77 2.05,-4.4 0.52,-6.31 -2.82,-3.52 -9.96,-7.09 -7.16,-13.25 2.6,-5.72 11.04,-5.02 15.51,-1.93 3.12,2.15 0.9,6.1 -2.18,5.55 -3.34,-0.6 -1.72,-4.83 -5.83,-4.9 -4.5,3.59 4.4,7.11 6.9,9.6 3.35,3.33 4.76,9.42 0.63,12.8 -3.01,2.47 -11.14,2.79 -14.51,0.98 -5.43,-2.91 -3.83,-11.24 1.78,-8.86zm19.19 33.33c-0.07,-4.17 1.8,-7.36 1.37,-12.2 -0.28,-3.16 -2.13,-7.58 -1.23,-10.63l3.59 -1.14c-6.73,-2.23 -5.56,-4.99 -5.17,-10.81 0.28,-4.17 -1.74,-10.8 -0.95,-13.7 2.42,-1.43 6.67,-1.9 9.12,-0.21 1.27,2.38 -3.2,17.69 2.73,20.78 6.4,-5.31 -1.26,-18.88 2.5,-21.04 1.33,-0.76 6.22,-0.85 7.62,-0.15 3.04,1.51 -1.35,6.71 0.55,15.03 1.73,7.57 0.54,7.42 -5.61,10.14 3.04,0.7 7.71,1.05 8.23,4.89 0.58,4.26 -1.48,5.79 -4.18,7.77 1.5,2.52 2.13,2.18 3.08,5.79 1.91,7.31 2.09,2.08 2.79,5.73 -1.79,2.08 -9.09,1.98 -10.88,-0.59 -0.25,-0.76 2.85,-13.23 -4.46,-9.74 -0.78,3.36 1.79,7.54 0.81,10.36 -2.16,1.59 -7.84,1.44 -9.89,-0.28zm37.16 -26.98c-2.41,-3.19 -3.08,-7.89 -5.68,-10.98 -1.14,4.28 1.89,8.96 0.89,12.63 -2.52,1.25 -7.46,1.45 -9.8,-0.21 -0.57,-2.68 1.59,-8.25 1.31,-12.15 -0.58,-8.25 -4.78,-12.43 5.54,-11.81 3.13,0.19 4.38,0.84 5.37,3.65 1.04,2.95 2.51,10.55 5.98,10.78 1.75,-3.53 -1.36,-9.07 -0.56,-13.14 1.9,-1.45 5.44,-1.57 7.7,-1.03 4.99,1.21 -0.32,7.17 0.97,16.11 0.39,2.71 1.42,4.99 1,7.75 -2.2,1.17 -4.17,1.12 -6.79,1.25 -3.17,0.16 -4.19,-0.56 -5.92,-2.86zm20.38 -0.35c3.52,1.89 9.84,-0.63 0.62,-8.44 -3.85,-3.26 -7.34,-8.57 -2.47,-12.87 3.45,-3.04 12.8,-1.94 14.81,1.58 1.67,2.93 -1.77,5.62 -4.31,4.04 -2.28,-1.41 -1.3,-5.03 -5.25,-4.37 -3.1,4.57 5.95,6.94 8.81,11.08 1.55,2.25 2.21,5.4 1.34,8.03 -1.16,3.51 -2.99,3.26 -5.31,4.72 0.51,1.05 2.82,2.34 3.81,4.92 0.78,2.02 5.36,17.84 4.37,19.04 -1.87,1.2 -7.31,2.19 -9.33,1.13 -3.07,-1.61 -0.65,-6.84 -1.21,-9.73 -1.61,-0.7 -2.79,-0.67 -4.42,0.03 -0.76,3.06 1.26,5.07 -0.25,8.78 -2.48,2.24 -8.63,1.48 -10.79,-0.9 0.03,-1.83 2.69,-10.07 3.36,-12.59 0.55,-2.05 1.06,-4.58 1.93,-6.49 1,-2.19 2.54,-2.71 3.02,-3.78 -2.99,-2.15 -6.22,-3.39 -4.83,-8.44 1.43,-1.75 2.7,-2.33 4.84,-1.42 1.58,2.37 -0.29,3.21 1.27,5.69zm37.39 2.59l-0.1 1.07c7.99,2.51 7.53,15.85 2.88,21.9 -5.26,6.84 -21.74,4.98 -22.59,1.73 0.12,-3.78 1.62,-7.59 1.65,-12.15 0.02,-2.95 -1.55,-7.98 -0.82,-9.83 2.97,-2.06 5.08,-0.23 8.01,-2.01 -3.7,-0.62 -6.86,0.6 -10.68,-0.87 -2.56,-1.86 1.73,-10.48 0.28,-18.02 -0.45,-2.33 -1.37,-3.1 -0.49,-5.44 2.55,-2.05 7.13,-0.9 10.26,-0.98 3.47,-0.09 6.53,-0.75 9.93,-1.02 4.23,-0.34 5.84,1.84 5.44,6.07 -0.35,3.63 -4.22,5.62 -7.17,3.86 -0.95,-2.35 1.15,-2.37 -1.13,-5.44 -5.11,-1.72 -8.57,-0.19 -8.36,5.57 4.12,0.61 2.74,-2.54 6.18,-1.57 0.83,2.08 0.99,5.43 -1.21,6.73 -2.67,-0.2 -2.56,-2.62 -4.81,-1.87 -1.26,1.58 1.02,7.31 2.57,8.75 6.57,1.91 6.27,-8 12.17,-4.93 0.67,1.83 1.26,8.56 -2.03,8.46zm12.85 -20.64c-4.07,0.25 -2.08,3.83 -4.94,4.86 -3.45,1.23 -3.4,-3.27 -2.98,-5.36 0.72,-3.61 1.97,-3.79 5.26,-4.2 3.27,-0.41 12.52,-0.39 15.72,0.07 3.33,0.48 4.16,0.91 4.87,4.24 0.47,2.22 0.24,6.6 -3.16,5.2 -3.12,-1.29 -0.76,-4.15 -4.33,-4.7 -3.51,10.5 0.77,15.86 -0.11,20.78 -2.38,1.37 -7.77,1.31 -10.05,-0.15 -0.91,-4.49 3.71,-14.24 -0.27,-20.73zm-135.34 -35.38c0.13,-0.06 0.11,-0.12 0.89,-0.29l10.76 -0.91c18.55,-0.83 44.67,-1.01 60.65,8.89 2.64,1.63 5.92,4.32 7.18,7.19 1.21,2.77 -0.07,9.31 -1.84,11.52 -2.33,-0.23 -5.1,-0.85 -7.6,-0.29 -4.04,0.92 -3.12,2.22 -4.27,4.98 -2.24,-0.45 -0.81,-4.06 -6.64,-5.06 -3.31,-0.57 -6.39,-0.2 -9.36,1.08 -3.04,-1.42 -3.97,-1.43 -7.36,-1.26 -3.33,0.17 -3.34,0.81 -5.4,2.56 -1.88,-2.77 -3.44,-2.64 -6.63,-2.61 -4.46,0.03 -3.22,0.49 -6.53,1.91l-1.79 -1.25c2.54,-2.04 33.04,-10.99 19.12,-18.83 -10.8,-6.09 -30.82,-5.61 -41.17,-7.62zm45.62 -3.91c7.47,0.46 16.92,-0.73 24.72,-0.76 16.46,-0.07 34.3,4.17 46.6,15.7 2.63,2.47 13.2,13.75 12.07,16.36 -1.93,0.46 -1.47,-2.62 -6.51,-2.6 -2.63,0.01 -5.1,0.7 -7.7,1.05 -4.96,0.67 -11.58,-1.54 -15.25,2.39 -6.42,-3.99 -7.53,-3.61 -14.55,-2.75 -0.63,-11.79 -5.03,-17.4 -15.93,-22.18 -14.29,-6.26 -26.58,-4.42 -34.97,-6.36 -0.79,0.29 -19.55,0.37 -22.62,0.55l-21.14 1.81c-1.35,-3.71 -1.11,-14.91 -0.73,-19.09 3.9,-43.87 39.78,-74.9 84.33,-77.57 49.31,-2.96 96.81,39.28 93.08,89.86 -9.54,-7.36 -13.28,-13.21 -27.09,-21.95 -5.42,-3.43 -11.35,-6.76 -17.73,-8 -9.08,-1.76 -9.7,1.32 -16.25,5.02 -2.19,1.24 -4.71,3.33 -7.01,4.76 -14.24,8.81 -20.41,12.71 -37,18.71 -5.44,1.97 -11.01,3.22 -16.33,5.04z"/>
   <path class="fil2" d="M60.94 109.74l11.52 -0.84c5.31,-1.82 10.89,-3.07 16.33,-5.04 16.59,-6.01 22.76,-9.9 37,-18.71 2.3,-1.43 4.82,-3.52 7.01,-4.76 6.56,-3.71 7.17,-6.78 16.25,-5.02 6.38,1.24 12.3,4.56 17.73,8 13.81,8.74 17.55,14.59 27.09,21.95 3.73,-50.58 -43.77,-92.82 -93.08,-89.86 -44.55,2.67 -80.44,33.7 -84.33,77.57 -0.37,4.18 -0.61,15.38 0.73,19.09l21.14 -1.81c3.07,-0.18 21.83,-0.25 22.62,-0.55z"/>
   <path class="fil3" d="M72.46 108.9l-11.52 0.84c8.38,1.93 20.68,0.09 34.97,6.36 10.9,4.78 15.3,10.4 15.93,22.18 7.02,-0.85 8.13,-1.24 14.55,2.75 3.67,-3.93 10.29,-1.72 15.25,-2.39 2.59,-0.35 5.07,-1.04 7.7,-1.05 5.04,-0.03 4.58,3.06 6.51,2.6 1.14,-2.6 -9.44,-13.89 -12.07,-16.36 -12.3,-11.53 -30.14,-15.77 -46.6,-15.7 -7.8,0.03 -17.25,1.23 -24.72,0.76z"/>
   <path class="fil3" d="M26.84 112.81c10.35,2.01 30.37,1.52 41.17,7.62 13.92,7.85 -16.58,16.79 -19.12,18.83l1.79 1.25c3.31,-1.42 2.07,-1.87 6.53,-1.91 3.19,-0.02 4.75,-0.15 6.63,2.61 2.06,-1.75 2.07,-2.39 5.4,-2.56 3.38,-0.17 4.32,-0.16 7.36,1.26 2.97,-1.28 6.05,-1.65 9.36,-1.08 5.83,1 4.4,4.61 6.64,5.06 1.16,-2.76 0.24,-4.07 4.27,-4.98 2.5,-0.57 5.27,0.06 7.6,0.29 1.77,-2.21 3.05,-8.75 1.84,-11.52 -1.25,-2.87 -4.54,-5.55 -7.18,-7.19 -15.98,-9.91 -42.1,-9.72 -60.65,-8.89l-10.76 0.91c-0.78,0.17 -0.76,0.23 -0.89,0.29z"/>
   <path class="fil4" d="M140.26 173.75c8.37,-5.72 7,9.83 4.65,13.87 -2.77,4.75 -5.19,0.72 -5.58,-3.01 -0.43,-4.04 -0.11,-6.9 0.93,-10.86zm8.97 -3.86l-1.19 -0.86 1.28 -0.21c3.29,0.11 2.7,-6.62 2.03,-8.46 -5.9,-3.07 -5.6,6.85 -12.17,4.93 -1.55,-1.45 -3.83,-7.17 -2.57,-8.75 2.25,-0.74 2.13,1.67 4.81,1.87 2.2,-1.3 2.04,-4.64 1.21,-6.73 -3.44,-0.97 -2.06,2.18 -6.18,1.57 -0.21,-5.76 3.26,-7.29 8.36,-5.57 2.28,3.07 0.17,3.09 1.13,5.44 2.95,1.76 6.82,-0.23 7.17,-3.86 0.41,-4.23 -1.21,-6.41 -5.44,-6.07 -3.4,0.27 -6.46,0.93 -9.93,1.02 -3.13,0.08 -7.71,-1.07 -10.26,0.98 -0.88,2.33 0.05,3.11 0.49,5.44 1.45,7.55 -2.84,16.17 -0.28,18.02 3.82,1.47 6.97,0.25 10.68,0.87 -2.93,1.78 -5.05,-0.05 -8.01,2.01 -0.73,1.86 0.84,6.89 0.82,9.83 -0.03,4.56 -1.53,8.37 -1.65,12.15 0.84,3.25 17.33,5.11 22.59,-1.73 4.65,-6.05 5.11,-19.4 -2.88,-21.9z"/>
   <path class="fil4" d="M63.48 180.16c0.16,-2.3 0.41,-5.55 2.03,-7.14 5.08,-0.08 3.86,8.91 -2.03,7.14zm0.37 -14.5c-5.93,-3.09 -1.46,-18.4 -2.73,-20.78 -2.45,-1.7 -6.7,-1.23 -9.12,0.21 -0.79,2.9 1.23,9.53 0.95,13.7 -0.39,5.82 -1.55,8.58 5.17,10.81l-3.59 1.14c-0.9,3.05 0.95,7.46 1.23,10.63 0.43,4.84 -1.44,8.03 -1.37,12.2 2.05,1.72 7.73,1.87 9.89,0.28 0.98,-2.82 -1.58,-7 -0.81,-10.36 7.3,-3.48 4.2,8.98 4.46,9.74 1.79,2.57 9.09,2.67 10.88,0.59 -0.7,-3.65 -0.88,1.58 -2.79,-5.73 -0.94,-3.6 -1.58,-3.27 -3.08,-5.79 2.7,-1.97 4.76,-3.5 4.18,-7.77 -0.52,-3.84 -5.19,-4.19 -8.23,-4.89 6.15,-2.73 7.34,-2.57 5.61,-10.14 -1.9,-8.33 2.49,-13.52 -0.55,-15.03 -1.4,-0.7 -6.29,-0.61 -7.62,0.15 -3.76,2.16 3.9,15.73 -2.5,21.04z"/>
   <path class="fil4" d="M113.08 181.63c-0.06,-11.62 6.14,-7.87 4.81,-0.06l-4.81 0.06zm-1.14 -15.39c-1.55,-2.48 0.31,-3.32 -1.27,-5.69 -2.14,-0.92 -3.41,-0.33 -4.84,1.42 -1.39,5.05 1.84,6.29 4.83,8.44 -0.48,1.07 -2.02,1.58 -3.02,3.78 -0.87,1.91 -1.38,4.44 -1.93,6.49 -0.67,2.52 -3.34,10.76 -3.36,12.59 2.16,2.39 8.31,3.14 10.79,0.9 1.51,-3.7 -0.52,-5.72 0.25,-8.78 1.63,-0.7 2.8,-0.73 4.42,-0.03 0.56,2.89 -1.86,8.12 1.21,9.73 2.02,1.06 7.46,0.07 9.33,-1.13 0.99,-1.2 -3.6,-17.02 -4.37,-19.04 -0.99,-2.58 -3.3,-3.86 -3.81,-4.92 2.33,-1.46 4.15,-1.21 5.31,-4.72 0.87,-2.63 0.21,-5.78 -1.34,-8.03 -2.85,-4.13 -11.91,-6.5 -8.81,-11.08 3.95,-0.66 2.97,2.96 5.25,4.37 2.54,1.58 5.99,-1.11 4.31,-4.04 -2.01,-3.52 -11.37,-4.62 -14.81,-1.58 -4.87,4.3 -1.38,9.6 2.47,12.87 9.22,7.81 2.9,10.32 -0.62,8.44z"/>
   <path class="fil4" d="M94.61 145.37c-0.8,4.06 2.31,9.6 0.56,13.14 -3.47,-0.22 -4.94,-7.83 -5.98,-10.78 -0.99,-2.81 -2.24,-3.46 -5.37,-3.65 -10.31,-0.62 -6.11,3.56 -5.54,11.81 0.27,3.9 -1.89,9.47 -1.31,12.15 2.34,1.66 7.28,1.46 9.8,0.21 1,-3.67 -2.03,-8.35 -0.89,-12.63 2.6,3.09 3.27,7.79 5.68,10.98 1.74,2.3 2.75,3.03 5.92,2.86 2.62,-0.13 4.6,-0.08 6.79,-1.25 0.42,-2.76 -0.61,-5.04 -1,-7.75 -1.28,-8.94 4.03,-14.9 -0.97,-16.11 -2.27,-0.55 -5.81,-0.42 -7.7,1.03z"/>
   <path class="fil4" d="M90.85 192.52c-3.68,-0.01 -3.71,-5.31 -3.84,-8.21 -0.63,-14.02 6.36,-13.59 6.63,-2.31 0.08,3.44 0.01,8.22 -2.79,10.53zm-1.05 -22.12c-15.83,0.74 -15.13,26.27 1.11,25.44 15.66,-0.8 14.89,-26.19 -1.11,-25.44z"/>
   <path class="fil4" d="M162.18 148.19c3.98,6.49 -0.64,16.24 0.27,20.73 2.28,1.45 7.67,1.52 10.05,0.15 0.88,-4.92 -3.39,-10.28 0.11,-20.78 3.57,0.56 1.21,3.42 4.33,4.7 3.4,1.4 3.63,-2.98 3.16,-5.2 -0.71,-3.33 -1.54,-3.76 -4.87,-4.24 -3.2,-0.46 -12.44,-0.47 -15.72,-0.07 -3.29,0.41 -4.54,0.59 -5.26,4.2 -0.42,2.09 -0.47,6.59 2.98,5.36 2.87,-1.03 0.87,-4.61 4.94,-4.86z"/>
   <path class="fil4" d="M35.21 160.24c-5.61,-2.38 -7.21,5.95 -1.78,8.86 3.38,1.81 11.51,1.49 14.51,-0.98 4.12,-3.38 2.72,-9.48 -0.63,-12.8 -2.5,-2.48 -11.4,-6 -6.9,-9.6 4.11,0.07 2.49,4.31 5.83,4.9 3.08,0.55 5.3,-3.4 2.18,-5.55 -4.47,-3.09 -12.91,-3.79 -15.51,1.93 -2.8,6.16 4.33,9.72 7.16,13.25 1.53,1.91 3.34,5.53 -0.52,6.31 -5.27,1.05 -2.71,-4.03 -4.33,-6.31z"/>
   <path class="fil1" d="M140.26 173.75c-1.04,3.96 -1.36,6.81 -0.93,10.86 0.4,3.73 2.82,7.76 5.58,3.01 2.35,-4.03 3.72,-19.59 -4.65,-13.87z"/>
   <path class="fil1" d="M90.85 192.52c2.8,-2.3 2.87,-7.08 2.79,-10.53 -0.27,-11.28 -7.26,-11.71 -6.63,2.31 0.13,2.91 0.16,8.2 3.84,8.21z"/>
   <path class="fil1" d="M113.08 181.63l4.81 -0.06c1.32,-7.81 -4.88,-11.56 -4.81,0.06z"/>
   <path class="fil1" d="M63.48 180.16c5.89,1.76 7.11,-7.22 2.03,-7.14 -1.62,1.6 -1.87,4.84 -2.03,7.14z"/>
   <polygon class="fil5" points="149.23,169.89 149.33,168.83 148.05,169.04 "/>
  </g>
 </g>
</svg>
