<?xml version="1.0" encoding="UTF-8"?>
<!DOCTYPE svg PUBLIC "-//W3C//DTD SVG 1.1//EN" "http://www.w3.org/Graphics/SVG/1.1/DTD/svg11.dtd">
<!-- Creator: CorelDRAW -->
<svg xmlns="http://www.w3.org/2000/svg" xml:space="preserve" width="88.816mm" height="132.95mm" version="1.1" style="shape-rendering:geometricPrecision; text-rendering:geometricPrecision; image-rendering:optimizeQuality; fill-rule:evenodd; clip-rule:evenodd"
viewBox="0 0 1050.83 1573.01"
 xmlns:xlink="http://www.w3.org/1999/xlink"
 xmlns:xodm="http://www.corel.com/coreldraw/odm/2003">
 <defs>
  <style type="text/css">
   <![CDATA[
    .str0 {stroke:#2B2A29;stroke-width:2.37;stroke-miterlimit:22.9256}
    .fil3 {fill:none}
    .fil1 {fill:#FEFEFE}
    .fil0 {fill:#2B2A29}
    .fil4 {fill:#E9532C}
    .fil2 {fill:#2B2A29;fill-rule:nonzero}
   ]]>
  </style>
   <clipPath id="id0">
    <path d="M873.33 177.5c-89.04,-89.04 -212.05,-144.11 -347.92,-144.11 -135.87,0 -258.88,55.07 -347.92,144.11 -89.04,89.04 -144.11,212.04 -144.11,347.92 0,125.32 56.14,289.06 138,461.58 82.44,173.77 190.92,356.16 294.66,517.51 5.76,8.96 16.02,17.85 27.58,24.59l-0.02 0.03c10.93,6.37 22.51,10.5 31.81,10.5 9.3,0 20.88,-4.13 31.81,-10.5l-0.02 -0.03c11.55,-6.74 21.82,-15.63 27.58,-24.59 103.75,-161.35 212.22,-343.74 294.66,-517.51 81.85,-172.52 138,-336.25 138,-461.58 0,-135.87 -55.07,-258.88 -144.11,-347.92z"/>
   </clipPath>
 </defs>
 <g id="Layer_x0020_1">
  <metadata id="CorelCorpID_0Corel-Layer"/>
  <path class="fil0" d="M873.33 177.5c-89.04,-89.04 -212.05,-144.11 -347.92,-144.11 -135.87,0 -258.88,55.07 -347.92,144.11 -89.04,89.04 -144.11,212.04 -144.11,347.92 0,125.32 56.14,289.06 138,461.58 82.44,173.77 190.92,356.16 294.66,517.51 5.76,8.96 16.02,17.85 27.58,24.59l-0.02 0.03c10.93,6.37 22.51,10.5 31.81,10.5 9.3,0 20.88,-4.13 31.81,-10.5l-0.02 -0.03c11.55,-6.74 21.82,-15.63 27.58,-24.59 103.75,-161.35 212.22,-343.74 294.66,-517.51 81.85,-172.52 138,-336.25 138,-461.58 0,-135.87 -55.07,-258.88 -144.11,-347.92z"/>
  <g style="clip-path:url(#id0)">
   <g id="_2081643413824">
    <path id="_1" class="fil1" d="M322.31 1272.6c16.8,-44.29 164.32,-403.8 180.36,-462.6 11.65,-48.02 20.91,-85.56 21.56,-85.25 10.23,-26.97 16.89,-53.09 3.67,-69.81 -44.5,-56.27 -149.1,-72.59 -244.06,-74.64 -88.12,-1.91 -167.94,8.45 -183.71,10.6 8.28,0.42 16.3,0.88 24.09,1.36 339.12,20.85 217.3,91.46 114.89,131.59 -3.43,1.35 -151.64,43.36 -174.3,51.37 68.99,115.62 96.41,438.46 236.7,461.39l20.78 36z"/>
    <path class="fil1" d="M551.84 775.89c-9.52,62.99 -160.83,558.6 -188.63,597.86 -0.42,0.6 101.74,155.14 101.56,155.83 187.69,113.11 345.44,-425.09 413.4,-542.59 1.49,-41.7 -74.74,-266.46 -93.04,-284.8 -35.85,-55.44 -120.47,-143.94 -294.84,-142.26 -17.57,0.17 -76.55,3.25 -145.58,7.35 -28.51,1.7 -58.73,3.56 -88.46,5.48 20.28,-0.28 40.95,-0.06 61.49,0.87 92.29,4.15 181.89,22.39 221.43,72.39 15.64,19.78 23.46,45.42 22.64,73.13 0.41,-0.18 -3.77,23.14 -9.97,56.73l-0 0z"/>
    <path class="fil2" d="M539.17 646.03c-39.54,-50 -129.13,-68.25 -221.43,-72.39 -20.54,-0.92 -41.21,-1.15 -61.5,-0.87 -65.03,0.9 -126.05,6.98 -165.9,11.84 -11.08,1.35 -20.51,2.61 -27.94,3.63 -1.71,0.23 -3.31,0.46 -4.81,0.67 0.68,0.1 1.77,0.18 3.31,0.24 6.9,0.26 13.64,0.54 20.23,0.83 6.48,0.29 12.82,0.59 19.01,0.91 15.77,-2.14 95.59,-12.51 183.71,-10.6 94.96,2.06 199.56,18.37 244.06,74.64 13.22,16.72 6.56,42.84 -3.67,69.81 1.52,0.73 -204.47,443.79 -258.25,482.84 -22.05,-10.8 62.31,240.37 97.23,166.15 36.13,-76.77 198.59,-627.88 198.59,-654.6 0.82,-27.71 -7,-53.34 -22.64,-73.12l0 -0z"/>
   </g>
  </g>
  <path class="fil3 str0" d="M873.33 177.5c-89.04,-89.04 -212.05,-144.11 -347.92,-144.11 -135.87,0 -258.88,55.07 -347.92,144.11 -89.04,89.04 -144.11,212.04 -144.11,347.92 0,125.32 56.14,289.06 138,461.58 82.44,173.77 190.92,356.16 294.66,517.51 5.76,8.96 16.02,17.85 27.58,24.59l-0.02 0.03c10.93,6.37 22.51,10.5 31.81,10.5 9.3,0 20.88,-4.13 31.81,-10.5l-0.02 -0.03c11.55,-6.74 21.82,-15.63 27.58,-24.59 103.75,-161.35 212.22,-343.74 294.66,-517.51 81.85,-172.52 138,-336.25 138,-461.58 0,-135.87 -55.07,-258.88 -144.11,-347.92z"/>
  <path class="fil2" d="M525.42 0c145.09,0 276.44,58.81 371.52,153.89 95.08,95.08 153.89,226.44 153.89,371.52 0,130.71 -57.47,299.2 -141.26,475.79 -83.19,175.35 -192.39,358.98 -296.75,521.29 -8.66,13.47 -23.06,26.24 -38.79,35.42l-0.07 0c-15.69,9.15 -33.25,15.09 -48.55,15.09 -15.3,0 -32.86,-5.94 -48.55,-15.09l-0.07 0c-15.74,-9.18 -30.13,-21.95 -38.79,-35.42 -104.36,-162.31 -213.56,-345.94 -296.75,-521.29 -83.79,-176.6 -141.26,-345.08 -141.26,-475.79 0,-145.09 58.81,-276.44 153.89,-371.52 95.08,-95.08 226.44,-153.89 371.52,-153.89zm347.92 177.5c-89.04,-89.04 -212.05,-144.11 -347.92,-144.11 -135.87,0 -258.88,55.07 -347.92,144.11 -89.04,89.04 -144.11,212.04 -144.11,347.92 0,125.32 56.14,289.06 138,461.58 82.44,173.77 190.92,356.16 294.66,517.51 5.76,8.96 16.02,17.85 27.58,24.59l-0.02 0.03c10.93,6.37 22.51,10.5 31.81,10.5 9.3,0 20.88,-4.13 31.81,-10.5l-0.02 -0.03c11.55,-6.74 21.82,-15.63 27.58,-24.59 103.75,-161.35 212.22,-343.74 294.66,-517.51 81.85,-172.52 138,-336.25 138,-461.58 0,-135.87 -55.07,-258.88 -144.11,-347.92z"/>
  <path class="fil4" d="M1017.14 547.03c9.12,-252.3 -192,-492.76 -457.07,-512.3 -271.06,-19.98 -506.31,186.68 -525.44,446.23 -2.7,36.65 -0.94,62.02 4.82,96.86 0.09,0.01 0.18,0.02 0.27,0.03 1.12,0.12 2.26,0.24 3.39,0.36 7.78,-1.08 17.66,-2.39 29.25,-3.8 41.7,-5.09 105.57,-11.46 173.64,-12.4 31.12,-2 71.06,-4.45 100.9,-6.23 110.8,-28.03 226.29,-71.2 352.67,-169.61 70.62,-54.99 215.34,66.29 317.57,160.86z"/>
 </g>
</svg>
