<?xml version="1.0" encoding="UTF-8"?>
<!DOCTYPE svg PUBLIC "-//W3C//DTD SVG 1.1//EN" "http://www.w3.org/Graphics/SVG/1.1/DTD/svg11.dtd">
<!-- Creator: CorelDRAW -->
<svg xmlns="http://www.w3.org/2000/svg" xml:space="preserve" width="4.7258mm" height="6.7846mm" version="1.1" style="shape-rendering:geometricPrecision; text-rendering:geometricPrecision; image-rendering:optimizeQuality; fill-rule:evenodd; clip-rule:evenodd"
viewBox="0 0 6.93 9.95"
 xmlns:xlink="http://www.w3.org/1999/xlink"
 xmlns:xodm="http://www.corel.com/coreldraw/odm/2003">
 <defs>
  <style type="text/css">
   <![CDATA[
    .str0 {stroke:#2B2A29;stroke-width:0.29;stroke-miterlimit:22.9256}
    .fil1 {fill:#FEFEFE}
    .fil0 {fill:#2B2A29}
   ]]>
  </style>
 </defs>
 <g id="Layer_x0020_1">
  <metadata id="CorelCorpID_0Corel-Layer"/>
  <path class="fil0" d="M3.47 9.21c1.13,-1.85 3.08,-3.77 3.08,-5.78 0,-1.68 -1.36,-3.03 -3.03,-3.03l-0.09 0c-1.68,0 -3.03,1.36 -3.03,3.03 0,2.01 1.95,3.93 3.08,5.78zm0 -7.3c0.42,0 0.8,0.17 1.07,0.44 0.27,0.27 0.44,0.65 0.44,1.07 0,0.42 -0.17,0.8 -0.44,1.07 -0.27,0.27 -0.65,0.44 -1.07,0.44 -0.42,0 -0.8,-0.17 -1.07,-0.44 -0.27,-0.27 -0.44,-0.65 -0.44,-1.07 0,-0.42 0.17,-0.8 0.44,-1.07 0.27,-0.27 0.65,-0.44 1.07,-0.44zm-2.46 -0.91c0.62,-0.62 1.47,-1 2.42,-1 0.01,0 0.08,0 0.09,0 0.94,0 1.8,0.38 2.42,1l0 0c0.62,0.62 1,1.47 1,2.42 0,1.58 -1.06,3.04 -2.09,4.46 -0.38,0.52 -0.75,1.03 -1.05,1.52l-0.33 0.54 -0.33 -0.54c-0.3,-0.49 -0.67,-1.01 -1.05,-1.52 -1.03,-1.42 -2.09,-2.88 -2.09,-4.46 0,-0.94 0.38,-1.8 1,-2.42l0 -0zm2.89 1.38c-0.13,-0.05 -0.28,-0.08 -0.43,-0.08 -0.31,0 -0.59,0.13 -0.79,0.33 -0.1,0.1 -0.19,0.23 -0.25,0.37 -0.05,0.13 -0.08,0.28 -0.08,0.43 0,0.15 0.03,0.3 0.08,0.43 0.06,0.14 0.14,0.26 0.24,0.37 0.11,0.1 0.23,0.19 0.37,0.24 0.13,0.05 0.28,0.08 0.43,0.08 0.15,0 0.3,-0.03 0.43,-0.08 0.14,-0.06 0.26,-0.14 0.36,-0.24 0.1,-0.1 0.19,-0.23 0.25,-0.37 0.05,-0.13 0.08,-0.28 0.08,-0.43 0,-0.31 -0.13,-0.59 -0.33,-0.79 -0.1,-0.1 -0.23,-0.19 -0.37,-0.25z"/>
  <path class="fil1 str0" d="M3.47 1.91c0.42,0 0.8,0.17 1.07,0.44 0.27,0.27 0.44,0.65 0.44,1.07 0,0.42 -0.17,0.8 -0.44,1.07 -0.27,0.27 -0.65,0.44 -1.07,0.44 -0.42,0 -0.8,-0.17 -1.07,-0.44 -0.27,-0.27 -0.44,-0.65 -0.44,-1.07 0,-0.42 0.17,-0.8 0.44,-1.07 0.27,-0.27 0.65,-0.44 1.07,-0.44zm0.04 -1.52l-0.09 0c-1.68,0 -3.03,1.36 -3.03,3.03 0,2.01 1.95,3.93 3.08,5.78 1.13,-1.85 3.08,-3.77 3.08,-5.78 0,-1.68 -1.36,-3.03 -3.03,-3.03z"/>
 </g>
</svg>
