<?xml version="1.0" encoding="UTF-8"?>
<!DOCTYPE svg PUBLIC "-//W3C//DTD SVG 1.1//EN" "http://www.w3.org/Graphics/SVG/1.1/DTD/svg11.dtd">
<!-- Creator: CorelDRAW -->
<svg xmlns="http://www.w3.org/2000/svg" xml:space="preserve" width="4.1966mm" height="6.013mm" version="1.1" style="shape-rendering:geometricPrecision; text-rendering:geometricPrecision; image-rendering:optimizeQuality; fill-rule:evenodd; clip-rule:evenodd"
viewBox="0 0 42.71 61.2"
 xmlns:xlink="http://www.w3.org/1999/xlink"
 xmlns:xodm="http://www.corel.com/coreldraw/odm/2003">
 <defs>
  <style type="text/css">
   <![CDATA[
    .fil0 {fill:#FEFEFE}
   ]]>
  </style>
 </defs>
 <g id="Layer_x0020_1">
  <metadata id="CorelCorpID_0Corel-Layer"/>
  <path class="fil0" d="M21.05 0c-11.63,0 -21.05,9.42 -21.05,21.05 0,13.98 13.53,27.31 21.36,40.15 7.83,-12.84 21.36,-26.17 21.36,-40.15 0,-11.63 -9.42,-21.05 -21.05,-21.05l-0.31 0 -0.31 -0zm0.31 10.55c2.9,0 5.52,1.18 7.42,3.07 1.9,1.9 3.07,4.52 3.07,7.42 0,2.89 -1.18,5.52 -3.07,7.42 -1.9,1.9 -4.52,3.08 -7.42,3.08 -2.9,0 -5.52,-1.18 -7.42,-3.07 -1.9,-1.9 -3.07,-4.53 -3.07,-7.42 0,-2.9 1.18,-5.52 3.07,-7.42 1.9,-1.9 4.52,-3.07 7.42,-3.07z"/>
 </g>
</svg>
