<svg version="1.0" xmlns="http://www.w3.org/2000/svg" width="260" height="260" viewBox="0 0 195 195"><path d="M786 2125c-301-64-551-261-675-532-56-125-79-220-88-361-11-189 44-402 144-553 10-16 17-49 18-88 2-99 58-156 154-156 23 0 53-7 66-16 24-15 25-20 19-85-7-66-6-69 24-98 33-34 33-34 192-32 58 1 112 1 120 1 76-2 132-2 170 1 25 1 59 2 75 0 17-1 82-2 145-3 63 0 144 0 180-1 116 0 185 54 215 168 16 65 31 81 80 91 43 8 85 48 85 81 0 15 23 61 53 107 29 45 64 104 76 131 140 303 115 651-67 930-131 200-312 333-547 401-123 35-310 41-439 14z"/></svg>