<?xml version="1.0" standalone="no"?>
<!DOCTYPE svg PUBLIC "-//W3C//DTD SVG 20010904//EN"
 "http://www.w3.org/TR/2001/REC-SVG-20010904/DTD/svg10.dtd">
<svg version="1.0" xmlns="http://www.w3.org/2000/svg"
 width="700.000000pt" height="700.000000pt" viewBox="0 0 700.000000 700.000000"
 preserveAspectRatio="xMidYMid meet">
<metadata>
Created by potrace 1.14, written by Peter Selinger 2001-2017
</metadata>
<g transform="translate(0.000000,700.000000) scale(0.100000,-0.100000)"
fill="#000000" stroke="none">
<path d="M3278 6995 c-1 -1 -42 -5 -89 -9 -47 -4 -95 -8 -105 -10 -10 -2 -45
-7 -78 -11 -67 -8 -105 -14 -126 -20 -8 -3 -32 -7 -54 -11 -55 -8 -62 -10
-156 -34 -47 -12 -93 -24 -103 -26 -10 -2 -69 -20 -130 -40 -844 -274 -1536
-834 -1977 -1599 -47 -81 -170 -327 -170 -339 0 -3 -11 -29 -24 -58 -97 -215
-202 -603 -232 -858 -3 -25 -7 -56 -9 -70 -27 -152 -26 -663 0 -821 2 -13 6
-46 9 -74 9 -78 23 -156 51 -285 62 -286 208 -671 351 -920 20 -36 45 -81 56
-100 71 -126 303 -442 392 -536 194 -204 294 -298 446 -419 92 -74 370 -265
386 -265 4 0 15 -6 23 -14 27 -23 262 -141 398 -199 139 -59 355 -133 478
-163 160 -39 304 -68 390 -79 22 -2 56 -7 75 -10 192 -27 676 -27 842 0 13 2
46 7 73 10 72 10 86 12 120 19 17 3 44 8 60 11 121 23 317 75 455 122 179 60
505 209 631 289 21 13 41 24 44 24 3 0 11 5 18 10 7 6 64 44 127 86 239 158
471 360 660 573 36 41 70 79 76 85 32 34 188 246 249 341 282 433 467 935 535
1450 5 44 12 96 15 115 9 59 13 530 5 615 -12 127 -21 202 -25 226 -3 13 -7
41 -10 64 -17 117 -79 374 -125 515 -374 1134 -1281 1995 -2425 2300 -188 50
-274 66 -575 106 -47 6 -546 15 -552 9z"/>
</g>
</svg>
