<?xml version="1.0" encoding="UTF-8"?>
<!DOCTYPE svg PUBLIC "-//W3C//DTD SVG 1.1//EN" "http://www.w3.org/Graphics/SVG/1.1/DTD/svg11.dtd">
<!-- Creator: CorelDRAW -->
<svg xmlns="http://www.w3.org/2000/svg" xml:space="preserve" width="326.541mm" height="191.99mm" version="1.1" style="shape-rendering:geometricPrecision; text-rendering:geometricPrecision; image-rendering:optimizeQuality; fill-rule:evenodd; clip-rule:evenodd"
viewBox="0 0 32639.85 19190.6"
 xmlns:xlink="http://www.w3.org/1999/xlink"
 xmlns:xodm="http://www.corel.com/coreldraw/odm/2003">
 <defs>
  <style type="text/css">
   <![CDATA[
    .fil0 {fill:#E5B378}
   ]]>
  </style>
 </defs>
 <g id="Layer_x0020_1">
  <metadata id="CorelCorpID_0Corel-Layer"/>
  <path class="fil0" d="M-0 18480.82c27.33,-6.47 79.68,-4.54 119.37,-4.06 24.72,0.29 50.12,1.45 74.27,-1.16 19.22,-2.13 42.59,-9.76 51.38,-10.72 18.15,-2.03 31.78,2.8 59,2.42 74.75,-0.97 107.29,-28.3 154.32,11.49 71.27,-1.35 28.11,-8.21 86.24,3.67 42.11,8.6 56.31,3.67 93.58,9.57 33.81,5.41 34.29,15.35 57.46,24.43 34.67,13.61 33.42,2.71 67.8,17.09 25.79,10.82 25.11,18.83 67.02,21.54 75.33,4.83 116.08,-12.74 194.51,-9.95 53.8,1.93 33.03,76.5 83.05,79.21 52.54,2.8 48.68,-4.73 91.65,8.41 151.62,46.55 28.11,25.21 268.77,27.04 138.39,1.06 128.73,30.13 193.83,36.98 55.05,5.8 76.68,-6.38 113.57,19.8 71.95,-1.06 43.07,-12.45 105.84,-9.28 42.78,2.22 39.69,10.24 67.89,19.7 88.65,29.84 184.94,26.08 252.64,39.5 48.29,9.57 83.53,19.7 135.01,17.19 43.46,-2.13 23.37,-3.86 43.17,-5.99 21.92,-2.32 34.57,6.47 84.89,6.47 63.06,0.1 158.77,-0.77 215.66,5.8 112.61,12.94 92.13,5.41 173.93,-11.58l179.24 -20.67c73.3,-6.18 125.75,-7.25 207.73,-5.6 21.92,14.68 33.23,18.06 74.66,21.05 136.56,9.85 189,9.66 331.84,14.68 127.57,4.44 343.71,1.55 453.42,8.6 135.69,8.79 240.09,51.09 377.13,43.26 94.84,-5.41 232.36,12.45 328.84,-11.01 21.73,-5.31 36.5,-15.26 49.25,-25.11 98.99,-0.19 159.16,5.41 238.26,-10.34 98.41,-19.51 44.42,-9.28 86.63,-42.68 64.61,0.29 36.98,11.78 92.23,-5.12 44.04,-13.42 92.91,-32.65 116.95,-55.73 15.84,-15.16 9.47,-23.18 29.94,-40.08 97.74,-80.93 152.68,-73.98 183.2,-132.4 256.7,-7.83 186.2,27.72 343.33,41.14 59.2,5.02 112.22,11.3 164.86,25.4 29.84,7.92 19.41,9.08 64.51,12.84 28.49,2.42 58.33,4.25 94.84,3.96 180.3,-1.55 165.44,12.74 321.79,49.74l151.23 31c42.3,12.26 11.97,11.11 72.14,18.35l75.91 12.65c70.98,16.9 112.32,4.93 191.61,9.76 92.81,5.7 297.45,14.68 366.5,29.55 68.76,14.87 115.6,8.21 174.12,18.73l78.81 15.06c121.69,13.71 23.08,31.49 260.27,9.66 57.75,-5.31 132.69,9.95 174.6,18.06 74.27,14.48 100.44,10.63 193.25,9.66 52.54,-29.94 16.22,-21.44 119.85,-24.14 7.44,-0.19 137.04,-7.83 139.75,-8.31 25.01,-5.02 25.21,-13.03 43.65,-18.83 51.67,-16.03 37.18,4.35 104.2,-30.33 29.36,-15.16 58.13,-19.6 91.26,-32.07 71.08,-26.66 165.15,-54.96 228.88,-82.66 12.94,-5.7 82.18,-26.95 97.54,-28.98 27.72,-3.67 45.68,-1.64 73.3,-6.18 77.55,-12.65 32.94,-21.92 174.51,4.15 55.25,10.14 27.24,12.94 113.86,24.63 39.4,5.31 64.03,13.32 114.44,20.18 77.94,10.53 55.05,13.32 109.51,29.07 34.19,9.85 80.16,15.93 105.75,25.21 29.07,10.53 139.26,66.15 174.02,66.54 22.5,0.19 97.74,-28.4 153.46,-4.83 18.06,7.63 2.22,0.68 12.16,7.63l149.11 8.41c34.47,30.81 48.77,26.66 119.37,36.6 78.04,11.11 41.04,16.22 149.78,17.19 23.66,24.63 21.34,20.47 73.21,31.39 96.29,20.28 189.1,38.53 293.39,51.86 123.23,15.74 95.61,18.06 183.2,41.53 87.79,23.47 133.37,14.29 196.91,35.05 88.27,28.78 147.19,7.44 209.76,28.11 50.03,16.51 184.94,11.21 233.23,-0.97 23.95,-5.99 23.47,-8.21 46.74,-13.9 34,-8.31 21.05,-3.09 53.51,-6.38 36.98,-3.77 49.54,-15.35 98.61,-10.72 114.54,10.92 129.7,5.02 236.61,3.57 38.63,-0.48 33.81,4.73 61.13,2.42 26.56,-2.22 21.05,-6.67 42.49,-10.43 30.62,-5.31 73.69,-1.35 114.44,-6.67 48.77,-6.38 82.76,-0.97 131.82,-3.38 52.35,-2.61 37.27,-10.92 110.58,-9.76 64.99,1.06 106.13,9.76 155.97,23.76 53.89,15.16 112.03,11.58 177.21,12.07 93.97,0.68 47.13,-5.8 102.47,-12.74 137.33,-17.28 139.65,-34.67 206.77,-16.03 103.52,28.69 106.13,-3.77 207.25,-6.96 86.05,-2.71 278.72,-0.87 361.87,18.25 22.12,5.12 73.59,-0.87 110.19,0.48 84.6,64.22 121.69,56.89 166.98,76.39 43.46,18.73 14.77,17.96 85.18,35.05 42.11,10.24 21.05,7.34 48.1,17.48 45.78,16.99 111.64,6.47 165.44,37.08 44.23,25.21 50.8,5.51 113.96,20.47 54.57,12.94 91.36,7.63 126.99,14.87l11.68 3.57c38.63,11.3 76.1,9.57 123.72,7.44l16.51 -21.73c67.6,-1.84 119.37,-8.99 184.65,-10.53 106.91,-2.42 77.84,14.58 145.74,24.92 93.58,14.29 259.02,-12.07 339.85,-16.51 29.07,-20.86 17.57,-23.56 68.18,-30.62 51.38,-7.15 26.27,-8.5 62.1,-27.72 37.56,-20.18 90.3,-38.14 107.58,-68.47 25.21,-44.13 30.13,-30.62 73.5,-64.41l3.48 -2.8c27.43,-22.7 36.98,-22.79 84.02,-36.69 25.3,-7.44 46.26,-17.19 72.05,-23.66l172.96 -37.18c172.29,-31.97 54.67,-31 174.89,-26.46 38.82,1.45 17.96,-1.93 53.51,-2.42 88.94,-1.35 290.21,17.09 361.96,32.16 179.63,37.76 173.45,-6.18 279.59,-15.35 30.13,-2.61 28.69,-0.58 46.26,4.54 59.1,17.09 69.34,8.79 134.43,25.01l144.19 46.45c33.32,11.68 23.76,16.9 71.56,22.98 290.01,36.6 267.41,-11.58 426.28,4.83 95.9,9.95 87.11,24.43 191.32,2.51 58.71,-12.36 91.07,-33.52 107.97,-63.83 56.11,-1.16 62.19,6.18 96.77,-11.49 25.11,-12.84 28.4,-21.83 70.21,-24.82 307.69,-22.02 294.17,48.68 401.18,15.64 65.28,-20.18 101.41,-26.75 181.08,-26.17 44.71,0.29 73.01,-0.68 109.13,6.76 36.5,7.54 36.79,15.35 84.69,17.57 85.76,3.96 91.26,-23.66 185.33,-22.5 47.61,0.58 105.26,25.01 184.65,27.72 85.47,2.9 46.07,12.74 102.47,21.63l63.45 10.05c42.2,-14.39 -4.54,-7.83 37.95,-17.86 64.03,-15.16 73.88,8.89 162.92,7.54 6.18,-31.78 11.58,-46.16 59.78,-53.12l145.74 -10.72c136.75,-0.29 85.27,7.05 140.9,13.23 79.78,8.79 42.97,-6.76 104.1,26.46 87.01,47.32 157.32,26.27 261.92,33.03 90.97,5.89 220.57,17.57 255.06,-23.27 28.69,-34 32.84,-23.08 102.37,-32.84 31.49,-4.44 24.43,-9.28 66.73,-7.25 97.54,4.73 95.61,6.96 172.09,-28.98 87.79,-41.14 256.8,-37.85 366.02,-56.5 151.81,-25.98 104.2,-15.26 179.53,-70.31 120.63,0.1 95.8,-6.57 189.58,26.66 36.6,-5.89 11.87,-14.29 69.34,-5.8 25.5,3.77 28.2,8.7 66.64,12.94 113.38,12.65 50.51,4.93 121.3,27.62 74.46,23.76 83.73,38.72 143.22,66.25 16.9,7.83 26.85,12.65 38.05,22.41 43.07,37.47 103.05,66.44 186.59,85.08 38.05,8.5 80.16,20.76 123.04,30.04 97.16,20.96 197.49,-5.8 314.16,-6.18 171.04,-0.48 139.65,0.29 286.16,-34.67 56.98,-13.61 228.88,-30.23 299.87,-24.53 55.05,4.44 106.62,4.44 159.74,8.99 58.42,4.93 108.35,1.35 167.95,4.64 24.14,1.35 114.54,12.94 138.59,16.8 37.37,6.18 121.88,46.07 147.28,63.25 20.76,14 6.76,13.9 39.59,21.25 36.02,8.02 96.87,18.06 141.48,21.92 120.14,10.14 59.2,-10.43 233.91,15.64 29.75,4.44 49.83,2.32 79.1,6.76l239.51 55.25c197.98,42.11 164.37,22.12 293.2,23.47 94.84,0.97 205.71,-10.82 273.6,-42.4 162.44,-75.43 125.07,-22.98 250.52,-26.17 229.95,-5.8 232.46,-63.06 300.35,-111.45 80.16,-1.26 101.41,6.38 149.4,-17.48 30.33,-15.06 42.59,-30.23 94.45,-39.4 24.92,-4.44 50.12,-4.54 75.62,-8.41 114.15,-17.38 80.35,-32.84 130.86,-66.06 98.8,-1.64 55.54,-5.41 124.59,-21.54 82.57,-19.31 94.65,-7.92 162.34,-38.63l52.64 -15.45c51.19,-12.45 81.6,-4.73 137.43,-10.34 96.67,-9.76 69.73,-66.83 178.28,-71.76 48.29,-2.22 118.6,-5.31 156.55,1.16 23.47,4.06 28.78,14 60.84,11.11 26.46,-2.42 41.33,-13.9 86.14,-0.29 64.7,19.6 93.39,-13.61 148.73,-28.98 36.02,-10.05 79.29,-4.44 119.37,1.35 38.34,5.51 76.39,5.7 116.28,10.34 33.32,3.86 83.73,5.02 117.44,11.4 87.01,16.41 206.57,52.93 285.77,64.22 134.82,19.22 246.94,65.86 376.55,85.85 40.46,6.28 74.27,8.12 114.06,11.78 104.59,9.76 200.87,47.23 334.73,8.02 64.03,-18.73 61.81,-1.84 114.83,-4.35 35.63,-1.64 63.45,-14.39 90.39,-22.12 58.33,-16.61 55.44,1.45 106.91,-6.18 10.14,-1.45 40.95,-8.02 52.64,-10.63 52.25,-11.49 66.83,-9.47 103.81,-16.9l152.1 -25.11c36.98,-6.57 68.38,-12.26 105.36,-16.9 63.06,-7.83 127.38,-28.59 149.2,-31.29 60.74,-7.54 136.85,4.44 195.17,-3.96 52.83,-7.63 198.36,-17.19 247.91,-6.09 81.51,18.15 109.13,26.46 220.86,26.08 121.69,-0.39 153.26,6.76 207.73,-31.68 61.42,-0.39 67.22,0.19 119.56,-5.7 33.9,-3.86 79.49,-3.57 118.69,-5.8 136.65,-7.83 130.66,-4.93 190.93,32.45 75.04,46.45 170.75,10.92 240.19,10.34 67.8,-0.58 106.33,0.19 170.46,-10.92 14.19,-2.42 27.72,-5.8 44.81,-9.37 14.29,-3 30.04,-5.22 45.29,-9.28 15.45,-4.06 18.93,-7.44 36.11,-13.13 40.95,-13.32 75.43,-20.96 107.1,-41.62 6.76,-4.44 3.77,-4.54 14.77,-11.01 22.5,-13.13 62.67,-29.36 98.32,-31.97 64.61,-4.93 101.22,3.77 154.32,-17.28 58.42,-23.18 95.03,-32.07 180.3,-33.71 34.76,-27.43 -16.13,-9.57 50.12,-26.85 41.04,-10.63 16.8,-12.65 68.28,-17.86l104.2 -19.22c28.49,-6.47 -25.4,6.09 20.18,-4.73 32.74,-7.83 54.96,4.73 92.04,3.09l0 -17817.58c-119.66,9.37 -80.93,11.3 -167.27,29.75 -130.18,27.82 -314.25,-9.18 -390.45,-4.64 -157.03,9.28 -222.02,-20.96 -365.25,-38.24 -96.77,-11.68 -119.85,0.39 -202.9,-1.35 -55.54,-56.98 -114.83,-34.39 -216.91,-32.36 -70.4,1.35 -30.62,3.38 -82.95,9.95 -57.75,-6.38 -31.39,-20.76 -105.84,-10.14l-141.68 22.7c-63.35,13.03 -28.01,38.34 -55.15,63.06 -69.24,63.25 -349.12,-32.16 -625.33,15.35 -75.91,13.03 -156.16,1.35 -235.07,6.67l-233.42 8.6c-32.65,6.28 -40.08,21.63 -66.25,30.04 -24.92,8.02 -69.63,6.09 -107.78,5.8 -30.91,-15.26 -24.34,-19.41 -42.11,-38.43 -16.61,-17.77 -21.92,-15.06 -67.7,-19.41 -49.25,-4.73 -39.21,-11.01 -102.18,-11.78 -39.11,-0.48 -66.44,0.68 -106.13,-1.74 -286.82,-17.48 -240.38,12.84 -439.32,9.76 -9.08,7.92 -8.12,13.03 -16.9,21.73 -75.72,1.93 -96.29,-0.77 -148.05,-19.02 -27.82,-9.85 -50.8,-3.86 -87.11,-11.21 -37.27,-7.54 -2.9,-7.54 -52.73,-8.89 -23.18,-0.68 -52.93,1.93 -74.75,0.68 -58.33,-3.38 -35.05,-15.93 -89.23,-31.2 -54.18,-15.26 -45.78,-9.28 -108.16,-19.02 -36.98,-5.8 -22.31,-5.6 -44.13,-14.97 -33.23,-14.19 -18.35,-3.57 -55.34,-13.23l-11.49 -3.77c-47.9,-14 -117.82,-7.54 -169.49,-12.84 -30.52,-3.09 -19.02,-5.41 -47.9,-13.23 -57.46,3.38 -34.86,12.84 -96.67,8.21 -37.66,-2.8 -58.13,-1.84 -95.42,2.71 -151.14,18.54 -119.47,87.21 -278.81,86.43 -167.75,-0.77 -170.36,8.31 -308.95,17.38 -170.85,11.11 -130.86,35.73 -230.91,46.84 -62.48,6.96 -364.47,6.28 -403.78,-5.7 -11.21,-3.38 -52.73,-24.82 -61.81,-28.69 -112.61,-48.48 -274.56,-49.16 -412.47,-74.08 -134.91,-24.43 -73.01,-26.27 -252.54,-44.13 -84.98,-8.41 -98.12,-12.16 -183.98,2.8 -29.84,5.22 -69.44,5.02 -104.88,4.35 -81.41,-1.55 -97.16,-28.69 -237.77,-48.77 -59.29,-8.5 -44.33,-4.35 -66.44,14.77l-83.15 -0.1c-22.02,-11.21 -15.74,-27.62 -61.52,-21.83 -36.02,4.54 -8.7,16.03 -84.21,12.65 -85.08,-3.77 -97.83,-20.96 -153.46,-29.55 -46.26,-7.05 -45.2,-0.1 -73.88,-16.99 -39.79,-23.47 -82.37,-29.65 -144.09,-38.53 -46.36,-6.67 -26.95,-4.83 -55.63,-20.57 -86.34,-0.48 -39.79,9.18 -101.6,17.67 -58.33,-4.35 -45.1,-21.63 -101.6,-23.47 -20.47,1.93 -76.1,56.21 -83.82,66.44 -24.43,32.36 -85.18,11.78 -126.41,46.84 -58.13,49.35 -97.45,93.78 -273.69,74.56 -68.95,-7.54 -122.94,-10.92 -179.63,7.05 -104.97,33.42 -201.55,126.22 -424.16,107.39 -116.18,-9.85 -89.91,7.15 -186.78,11.97 -74.17,3.67 -147.28,0.77 -210.63,-7.05 -38.14,-4.73 -60.16,-2.9 -98.8,-0.29 -48.97,3.28 -54.47,0.39 -98.51,-2.61 -59.49,-4.06 -119.76,-13.61 -166.89,-23.56 -161.18,-34.1 -181.85,-7.44 -275.72,0.29 -121.49,10.05 -246.17,-9.66 -304.22,-10.82 -133.76,-2.61 -81.22,18.06 -129.5,42.88 -57.65,21.63 -193.25,-5.7 -239.7,-7.83 -51.28,-2.42 -82.37,-3.57 -127.76,4.64 -31.78,5.8 -21.54,6.67 -65.57,3.67 -150.36,-10.14 -82.08,-26.17 -297.45,-25.59 -88.17,0.29 -52.25,-9.95 -102.57,-16.61 -68.95,-9.18 -151.23,-12.65 -215.08,-29.07 -40.56,-10.43 -64.99,-6.47 -92.71,-23.47 -27.62,-16.99 -25.59,-22.7 -70.21,-33.13l-156.93 -25.4c-59,-6.09 -74.85,-17.96 -152.68,-25.3 -53.51,-5.02 -70.5,-0.77 -103.72,10.24 -24.34,8.02 -53.89,15.06 -79.97,21.83 -7.15,45 3.48,80.93 -85.18,97.35 -25.5,4.73 -29.65,8.5 -48.87,17.09 -62.58,13.03 -135.59,-33.71 -301.51,-12.45 -135.4,17.38 -52.44,23.18 -299.29,23.95 -58.81,0.19 -85.37,-13.61 -117.73,-27.14 -81.02,-33.9 -113.67,9.47 -275.43,-28.49 -30.62,-7.15 -151.81,-15.55 -165.34,-5.7 -4.15,3 -8.21,6.47 -12.16,9.28 -14.87,10.34 -60.55,23.08 -85.66,26.27 -12.36,1.55 -20.67,1.26 -33.52,2.03 -158.87,10.14 -188.52,-34.1 -258.82,-28.78 -26.66,2.03 -21.34,4.73 -56.89,8.6l-167.17 12.07c-59.2,3.86 -51.67,13.13 -110.87,13.42 -71.27,0.29 -101.7,-11.4 -152.59,-23.37l-372.69 -80.54c-41.72,-11.01 -85.85,-22.89 -135.78,-28.2 -94.74,-10.05 -174.7,-1.06 -251.97,-8.12 -48.97,-4.44 -38.92,-14 -95.9,-19.51 -118.31,-11.3 -259.31,-1.55 -370.95,-17.67 -64.22,-9.28 -35.83,-12.26 -89.23,-24.43l-190.06 -37.95c-41.82,-5.41 -64.32,-6.28 -103.91,-13.03 -33.03,-5.6 -51.28,-13.32 -96,-21.44 -128.54,-23.37 -226.76,-18.54 -325.17,-35.44 -39.59,-6.86 -68.57,-10.72 -102.57,-18.25 -118.89,-26.66 -219.13,32.55 -275.05,-59.78 -102.66,-7.15 -42.2,-7.15 -104.78,-29.84 -27.24,-9.85 -74.85,-17.38 -110.29,-22.6 -199.14,-29.27 -306.82,-36.21 -489.83,-76.78 -191.61,-42.49 -94.26,-24.05 -253.7,-30.33 -20.47,-19.12 -17.19,-28.2 -61.23,-38.43 -93.97,-21.83 -217.87,-23.95 -311.06,-37.56 -120.34,-17.57 -90.3,-31.2 -164.37,-50.9 -80.26,-21.34 -96.67,9.37 -168.33,-43.65 -47.52,0.39 -47.81,4.44 -89.04,6.18 -56.21,2.42 -110.67,-3.57 -152.1,16.8 -26.66,13.13 -15.06,9.66 -50.8,20.96 -42.78,13.42 -70.02,25.79 -83.73,48.77 -36.69,61.42 -182.24,28.59 -281.04,44.91l-55.73 17.38c-28.69,8.5 -27.24,14.1 -53.6,18.25 -49.16,7.73 -115.7,2.71 -159.93,13.03 -58.23,13.52 -63.74,17.86 -155.58,17.67l-16.22 -27.72c-57.36,0.29 -34.57,4.44 -67.89,10.82 -54.47,10.53 -29.17,-3.09 -75.24,-0.29 -46.84,2.9 -55.05,32.65 -82.08,48.48 -64.51,-0.19 -26.08,-3.19 -63.83,-8.79 -54.76,-8.12 -92.91,16.41 -139.17,28.2 -46.74,11.87 -86.14,17.48 -123.14,38.34 -35.83,20.18 -164.28,56.89 -159.54,83.92 4.44,25.21 24.63,35.15 -9.85,59.78 -38.24,27.33 -11.21,10.82 -10.34,48.39 -337.24,4.35 -216.91,25.01 -309.91,30.91 -78.71,5.02 -44.62,0.19 -113.48,43.65 -27.43,17.28 -68.57,13.23 -104.49,25.88 -46.07,16.32 -87.3,17.57 -141.68,30.62l-70.69 16.9c-4.06,40.75 24.14,32.84 12.26,76.49 -49.93,2.03 -76.49,7.05 -123.14,3.77 -63.54,-4.44 -62,4.35 -115.31,6.76 -41.24,1.93 -85.66,2.51 -124.2,7.34 -15.84,1.93 -26.75,5.6 -56.31,8.6 -25.59,2.61 -26.95,2.42 -59.49,1.84 -228.88,-4.06 -298.32,4.44 -395.48,77.26 -115.31,3.77 -96.58,-15.55 -180.3,-23.18 -53.22,-4.83 -108.93,15.06 -162.15,23.27 -170.17,26.37 -120.14,42.97 -354.15,27.53 -34.76,-2.32 -72.92,-1.74 -107.49,-3.86 -190.06,-11.58 -79.97,-13.23 -270.51,5.6 -31.78,3.19 -65.77,3.38 -98.03,6.86 -34.86,3.67 -40.56,8.79 -77.07,13.42 -96.38,12.26 -87.4,16.03 -165.15,-5.02 -48,-12.94 -129.79,-6.18 -193.44,-9.28 -48,-2.22 -118.4,-11.21 -175.18,-18.15 -30.42,-3.77 -48.29,-11.97 -91.84,-7.34 -36.5,3.86 -26.95,11.78 -67.89,16.51 -129.02,15.06 -173.73,-38.63 -291.65,-64.12 -109.13,-23.66 -267.12,-0.48 -366.12,-29.46 -39.79,-11.58 -103.72,-21.25 -163.7,-22.98 -132.79,-3.86 -268.77,9.66 -316.48,-0.39l-326.43 -48.1c-38.43,-4.54 -57.75,-0.97 -95.13,-2.51 -157.32,-6.57 -180.21,-26.08 -330.2,28.69 -84.11,30.71 -222.41,-13.9 -358.77,13.81 -119.95,24.43 -54.38,47.03 -280.75,70.69 -42.68,4.44 -50.03,3 -84.6,13.23 -70.6,20.76 -138.88,5.31 -225.7,70.6 -47.42,35.63 -16.99,15.06 -77.65,38.92 -21.63,8.6 -30.81,20.67 -52.44,28.59 -45.68,16.61 -266.35,38.43 -346.51,3.19 -35.15,-15.45 -21.44,-8.7 -80.44,-10.82 -31.58,-24.14 -16.13,-14.68 -36.21,-44.91 -42.2,-63.35 -163.7,-40.46 -270.51,-38.24 -142.06,3 -286.92,-8.79 -338.78,52.83 -6.09,7.25 -6.67,18.25 -17.57,20.28 -3.38,0.68 -2.32,2.51 -4.06,3.57 -192,-2.13 -228.59,-36.5 -313.96,-36.02 -159.25,0.87 -84.98,60.55 -283.65,25.11 -30.23,-5.41 -45.1,-6.57 -74.17,-14.1 -86.92,-22.6 -80.54,-5.8 -133.37,1.06 -25.79,3.38 -54.57,0.58 -86.34,3.28 -65.86,5.7 -49.64,-0.87 -89.04,-0.87 -44.91,0 -0.48,7.15 -63.16,12.55 -42.78,3.67 -127.86,-6.67 -166.5,-11.11 -63.06,-7.34 -114.06,-5.02 -184.65,-5.31 -141.58,-0.58 -187.55,31.97 -313.67,32.45 -208.51,0.77 -282.87,10.82 -485,39.5 -123.91,17.57 -188.81,14.39 -314.74,-9.08 -45.2,-8.41 -98.22,-17.86 -155.48,-3.38 -44.42,11.21 -5.02,11.78 -59.58,18.93 -78.81,10.43 -398.67,-296.63 -445.02,-306.2 -58.91,-12.16 -68.67,-22.6 -116.37,-37.37 -78.04,-24.14 -181.46,-36.02 -256.22,-60.36 -197.88,-64.32 -146.99,-14.68 -300.35,-28.59 -69.53,-6.28 -66.35,-18.25 -144,2.42 -89.43,23.76 -43.75,10.63 -101.31,45.1 -30.04,17.96 -83.44,12.74 -137.62,24.43l-126.61 32.36c-20.57,7.05 -43.75,10.63 -65.67,14.1l-25.88 5.22 0 17812.4 -0.32 -0.04z"/>
 </g>
</svg>
