<?xml version="1.0" encoding="UTF-8"?>
<!DOCTYPE svg PUBLIC "-//W3C//DTD SVG 1.1//EN" "http://www.w3.org/Graphics/SVG/1.1/DTD/svg11.dtd">
<!-- Creator: CorelDRAW -->
<svg xmlns="http://www.w3.org/2000/svg" xml:space="preserve" width="52.8631mm" height="13.5278mm" version="1.1" style="shape-rendering:geometricPrecision; text-rendering:geometricPrecision; image-rendering:optimizeQuality; fill-rule:evenodd; clip-rule:evenodd"
viewBox="0 0 548.68 140.41"
 xmlns:xlink="http://www.w3.org/1999/xlink"
 xmlns:xodm="http://www.corel.com/coreldraw/odm/2003">
 <defs>
  <style type="text/css">
   <![CDATA[
    .fil0 {fill:#2B2A29}
    .fil1 {fill:#FEFEFE;fill-rule:nonzero}
   ]]>
  </style>
 </defs>
 <g id="Layer_x0020_1">
  <metadata id="CorelCorpID_0Corel-Layer"/>
  <g id="_2674185041168">
   <path class="fil0" d="M39.66 0l462.59 0c10.91,0 20.83,4.46 28.02,11.65 0.31,0.31 0.62,0.63 0.93,0.96l6.77 7.24c6.64,7.1 10.72,16.62 10.72,27.05l0 53.85c0,10.91 -4.46,20.83 -11.65,28.02 -7.19,7.18 -17.1,11.65 -28.02,11.65l-462.59 0c-10.91,0 -20.83,-4.46 -28.02,-11.65 -0.31,-0.31 -0.62,-0.64 -0.93,-0.96l-6.77 -7.24c-0.08,-0.09 -0.16,-0.17 -0.24,-0.26 -0.04,-0.05 -0.08,-0.09 -0.13,-0.14 -6.42,-7.05 -10.36,-16.42 -10.36,-26.66l0 -53.85c0,-10.91 4.46,-20.83 11.65,-28.01 7.18,-7.19 17.1,-11.65 28.02,-11.65zm40.72 44.8c0.03,0.03 0.07,0.07 0.1,0.1l6.63 7.09 -0.07 -0.07c0.02,0.02 0.05,0.05 0.07,0.07 1.98,2.12 3.53,4.72 4.65,7.8 0.76,2.08 1.27,4.39 1.54,6.93 0.4,-2.32 1.06,-4.43 1.99,-6.33 1.62,-3.29 3.91,-5.83 6.87,-7.6 2.96,-1.77 6.47,-2.66 10.54,-2.66 3.86,0 7.01,0.78 9.46,2.35 1.02,0.65 1.93,1.41 2.72,2.26l6.77 7.24c1.12,1.2 2.03,2.59 2.72,4.18 1.18,2.73 1.77,5.82 1.77,9.26 0,0.77 -0.03,1.54 -0.08,2.32 -0.05,0.77 -0.15,1.62 -0.31,2.55l-26.48 0c0.13,1.91 0.44,3.65 0.94,5.23 0.99,0.28 2.08,0.42 3.26,0.42 1.8,0 3.76,-0.33 5.87,-1 2.11,-0.67 4.3,-1.7 6.56,-3.09l6.77 7.24 1.1 1.75 0 -3.58 5.4 -1.42 0 -42.52 -5.4 -5.77 0 -4.78 14.66 -0.62 6.77 7.24 0 49.25 2.57 2.75 0 -4.13 5.48 -1.44 0 -23.96 -5.48 -5.86 0 -4.79 14.06 -0.52c-0.62,-0.24 -1.18,-0.59 -1.66,-1.05 -0.07,-0.06 -0.13,-0.13 -0.19,-0.2l-6.67 -7.13c-0.01,-0.01 -0.03,-0.03 -0.04,-0.04l-0.06 -0.06c-0.9,-0.96 -1.35,-2.26 -1.35,-3.89 0,-1.9 0.54,-3.33 1.62,-4.28 1.08,-0.95 2.44,-1.43 4.09,-1.43 1.6,0 2.92,0.46 3.98,1.39 0.1,0.09 0.2,0.18 0.29,0.28l6.77 7.24c0.86,0.92 1.29,2.24 1.29,3.97 0,1.85 -0.54,3.25 -1.62,4.21 -1.08,0.95 -2.42,1.43 -4.01,1.43 -0.52,0 -1.01,-0.05 -1.47,-0.14l6.48 6.93 0 30.81 5.4 5.78 0 4.79 -20.15 0 -3.86 -4.13 0 4.13 -20.15 0 -4.79 -5.12c-2.91,1.98 -5.87,3.47 -8.87,4.46 -3.04,1 -5.99,1.5 -8.88,1.5 -3.6,0 -6.79,-0.78 -9.57,-2.35 -1.37,-0.77 -2.59,-1.73 -3.66,-2.88l-6.7 -7.16c-0.02,-0.02 -0.04,-0.04 -0.06,-0.06l-0.01 -0.01c-1.1,-1.17 -2.04,-2.54 -2.82,-4.11 -0.97,-1.94 -1.63,-4.14 -1.99,-6.62 -0.48,3.69 -1.46,6.94 -2.93,9.73 -2.19,4.14 -5.24,7.28 -9.15,9.42 -3.91,2.14 -8.46,3.2 -13.66,3.2l-22.38 0 -6.77 -7.24 0 -4.79 6.02 -1.57 0 -36.23 -6.02 -6.43 0 -4.78 16.52 -0.39 7.41 0c3.65,0 6.99,0.54 10,1.62 3.01,1.08 5.6,2.72 7.76,4.9 0.12,0.13 0.25,0.25 0.37,0.39l0.04 0.04zm145.9 42.93c-0.02,-0.02 -0.04,-0.04 -0.06,-0.06l-0.01 -0.01c-1.1,-1.17 -2.04,-2.54 -2.82,-4.11 -1.54,-3.09 -2.31,-6.87 -2.31,-11.35 0,-1.19 0.06,-2.34 0.17,-3.45l-10.92 30.68 -10.88 0 -6.77 -7.24 -9.71 -30.5 -5.26 -5.63 0 -4.79 18.22 -0.62 6.77 7.24 0 4.79 -5.05 1.28 3.74 13.23 5.4 -16.94 -3.91 -4.18 0 -4.79 16.98 -0.62 5.85 6.25c1.31,-1.66 2.87,-3.04 4.69,-4.13 2.96,-1.77 6.47,-2.66 10.54,-2.66 3.86,0 7.01,0.78 9.46,2.35 1.02,0.65 1.93,1.41 2.72,2.26l6.77 7.24c1.12,1.2 2.03,2.59 2.72,4.18 1.18,2.73 1.77,5.82 1.77,9.26 0,0.77 -0.03,1.54 -0.08,2.32 -0.05,0.77 -0.15,1.62 -0.31,2.55l-26.48 0c0.13,1.91 0.44,3.65 0.94,5.23 0.99,0.28 2.08,0.42 3.26,0.42 1.8,0 3.76,-0.33 5.87,-1 2.11,-0.67 4.3,-1.7 6.56,-3.09l6.77 7.24 3.16 5.02c-2.93,2.01 -5.92,3.51 -8.95,4.51 -3.04,1 -5.99,1.5 -8.88,1.5 -3.6,0 -6.79,-0.78 -9.57,-2.35 -1.37,-0.77 -2.59,-1.73 -3.66,-2.88l-6.7 -7.16zm163.35 -45.71l6.74 7.2c0.32,0.34 0.62,0.7 0.9,1.07 1.54,2.08 2.32,4.8 2.32,8.14 0,3.7 -0.97,7.31 -2.89,10.81 -1.93,3.5 -4.75,7.15 -8.45,10.96 -1.35,1.39 -2.82,2.84 -4.4,4.34l10.22 0 6.77 7.24 0 7.49 -37.13 0 -6.77 -7.24 0 -8.03c5.92,-5.04 10.79,-9.4 14.63,-13.08 3.83,-3.68 6.68,-6.97 8.53,-9.88 1.85,-2.91 2.78,-5.75 2.78,-8.53 0,-0.3 -0.01,-0.59 -0.03,-0.88 -0.93,-0.2 -1.93,-0.3 -3,-0.3 -1.34,0 -2.79,0.15 -4.36,0.46 -1.28,0.25 -2.59,0.59 -3.93,1.02l-1.05 7.55 -5.71 0 -6.77 -7.24 -0.77 -13.2c3.09,-0.98 6.11,-1.71 9.07,-2.2 2.96,-0.49 5.73,-0.73 8.3,-0.73 3.55,0 6.7,0.49 9.46,1.47 2.26,0.8 4.11,1.97 5.55,3.52l0.03 0.03zm34.98 30.18l-5.28 0 5.28 -7.67 0 7.67zm90.52 -20.4l0 -6.72 -6.77 -7.24 -32.44 0 0.23 -0.79 -6.77 -7.24 -6.64 0 -14.17 49.01 -6.21 -6.64 -1.64 0 0 -27.11 -6.77 -7.24 -11.12 -0.93 -25.16 36.05 1.08 6.56 6.77 7.24 18.93 0 0 5.27 6.77 7.24 9.49 0 0 -12.5 5.56 0 -3.38 11.67 6.77 7.24 6.56 0 15.01 -51.71 6.06 6.48 5.71 0 1.56 -7.79 10.24 0 -17.26 39.38 6.77 7.24 10.5 0 20.3 -47.47zm-491.3 63.28c-2.65,-4.15 -4.19,-9.08 -4.19,-14.34l0 -53.85c0,-7.36 3.02,-14.06 7.88,-18.92 4.86,-4.86 11.56,-7.88 18.92,-7.88l462.59 0c5.91,0 11.39,1.94 15.83,5.22 2.65,4.15 4.19,9.08 4.19,14.34l0 53.85c0,7.36 -3.02,14.06 -7.88,18.92 -4.86,4.86 -11.56,7.88 -18.92,7.88l-462.59 0c-5.91,0 -11.39,-1.94 -15.83,-5.22zm260.67 -27.78l6.72 7.18 0 4.79 -21.46 0 -6.77 -7.24 0 -4.79 5.48 -1.45 0 -23.95 -5.48 -5.86 0 -4.79 12.66 -0.62 3.55 3.8c1.1,-0.89 2.19,-1.66 3.28,-2.29 2.24,-1.31 4.67,-1.97 7.29,-1.97 1.65,0 3.37,0.26 5.17,0.77l1.93 2.06 0 -1.68 18.45 -0.62 6.77 7.24 0 4.79 -5.17 1.21 4.23 12.33 5.11 -15.9 -3.98 -4.26 0 -4.79 17.6 -0.62 6.77 7.24 0 4.79 -3.89 1.14 -12.86 35.37c-1.03,2.88 -2.12,5.45 -3.28,7.72 -1.16,2.26 -2.47,4.22 -3.94,5.87 -1.47,1.65 -3.2,2.91 -5.21,3.78 -2.01,0.87 -4.37,1.31 -7.1,1.31 -1.6,0 -3.42,-0.15 -5.48,-0.46l-6.77 -7.24 0.85 -6.64c0.77,0.1 1.48,0.18 2.12,0.23 0.64,0.05 1.25,0.08 1.81,0.08 2.37,0 4.28,-0.49 5.75,-1.47 1.47,-0.98 2.73,-2.48 3.78,-4.51 0.8,-1.54 1.61,-3.41 2.42,-5.59l-11.66 -29.46 -1.61 -1.72 -0.48 10.31 -5.4 0 -5.66 -6.05c-0.6,0.24 -1.19,0.55 -1.79,0.92 -1.36,0.86 -2.61,1.93 -3.74,3.21l0 17.83zm-44.16 -20.13c0.34,-0.43 0.72,-0.82 1.13,-1.18 1.41,-1.24 3.23,-1.85 5.44,-1.85 0.3,0 0.59,0.01 0.87,0.03 0.15,0.94 0.23,1.94 0.24,3l-7.68 0zm-120.77 -3c0.15,0.94 0.23,1.94 0.24,3l-7.68 0c0.34,-0.43 0.72,-0.82 1.13,-1.18 1.41,-1.24 3.23,-1.85 5.44,-1.85 0.3,0 0.59,0.01 0.87,0.03zm-58.43 20.98c1.9,0 3.76,-0.3 5.56,-0.89 1.8,-0.59 3.45,-1.62 4.94,-3.09 1.49,-1.47 2.69,-3.54 3.59,-6.21 0.9,-2.68 1.35,-6.12 1.35,-10.34 0,-4.12 -0.42,-7.47 -1.27,-10.07 -0.17,-0.51 -0.34,-0.99 -0.53,-1.46 -0.26,-0.11 -0.53,-0.21 -0.8,-0.3 -1.72,-0.57 -3.49,-0.85 -5.29,-0.85l-8.1 0 0 33.21 0.56 0z"/>
  </g>
  <path class="fil1" d="M39.66 0l462.59 0c10.91,0 20.83,4.46 28.02,11.65 7.18,7.18 11.65,17.1 11.65,28.01l0 53.85c0,10.91 -4.46,20.83 -11.65,28.02 -7.19,7.18 -17.1,11.65 -28.02,11.65l-462.59 0c-10.91,0 -20.83,-4.46 -28.02,-11.65 -7.19,-7.19 -11.65,-17.1 -11.65,-28.02l0 -53.85c0,-10.91 4.46,-20.83 11.65,-28.01 7.18,-7.19 17.1,-11.65 28.02,-11.65zm22.56 37.85c3.65,0 6.99,0.54 10,1.62 3.01,1.08 5.6,2.72 7.76,4.9 2.16,2.19 3.83,4.91 5.02,8.18 1.18,3.27 1.78,7.09 1.78,11.46 0,6.12 -1.09,11.26 -3.28,15.4 -2.19,4.14 -5.24,7.28 -9.15,9.42 -3.91,2.14 -8.46,3.2 -13.66,3.2l-22.38 0 0 -4.79 7.41 -1.93 -1.39 1.93 0 -44.38 1.47 2.01 -7.49 -1.85 0 -4.78 16.52 -0.39 7.41 0zm-1.08 47.32c1.9,0 3.76,-0.3 5.56,-0.89 1.8,-0.59 3.45,-1.62 4.94,-3.09 1.49,-1.47 2.69,-3.54 3.59,-6.21 0.9,-2.68 1.35,-6.12 1.35,-10.34 0,-4.12 -0.42,-7.47 -1.27,-10.07 -0.85,-2.6 -1.98,-4.61 -3.4,-6.02 -1.42,-1.41 -2.99,-2.4 -4.71,-2.97 -1.72,-0.57 -3.49,-0.85 -5.29,-0.85l-9.65 0 1.54 -1.54 0 43.53 -1.54 -1.54 8.88 0zm50.09 7.72c-3.6,0 -6.79,-0.78 -9.57,-2.35 -2.78,-1.57 -4.94,-3.9 -6.48,-6.99 -1.54,-3.09 -2.31,-6.87 -2.31,-11.35 0,-4.58 0.81,-8.52 2.43,-11.81 1.62,-3.29 3.91,-5.83 6.87,-7.6 2.96,-1.77 6.47,-2.66 10.54,-2.66 3.86,0 7.01,0.78 9.46,2.35 2.44,1.57 4.26,3.72 5.44,6.44 1.18,2.73 1.77,5.82 1.77,9.26 0,0.77 -0.03,1.54 -0.08,2.32 -0.05,0.77 -0.15,1.62 -0.31,2.55l-28.71 0 0 -5.87 20.61 0 -1.08 0.7c0.05,-2.06 -0.17,-3.91 -0.66,-5.56 -0.49,-1.65 -1.33,-2.96 -2.51,-3.94 -1.18,-0.98 -2.75,-1.47 -4.71,-1.47 -2.21,0 -4.03,0.62 -5.44,1.85 -1.41,1.24 -2.44,2.91 -3.09,5.02 -0.64,2.11 -0.96,4.5 -0.96,7.18 0,2.93 0.39,5.52 1.16,7.76 0.77,2.24 1.98,4 3.63,5.29 1.65,1.29 3.73,1.93 6.25,1.93 1.8,0 3.76,-0.33 5.87,-1 2.11,-0.67 4.3,-1.7 6.56,-3.09l3.16 5.02c-2.93,2.01 -5.92,3.51 -8.95,4.51 -3.04,1 -5.99,1.5 -8.88,1.5zm37.2 -6.41l-0.77 -0.85 6.25 1.62 0 4.79 -20.15 0 0 -4.79 6.17 -1.62 -0.77 0.85 0 -48.16 0.7 0.77 -6.1 -1.54 0 -4.78 14.66 -0.62 0 54.34zm24.08 0l-0.77 -0.85 6.17 1.62 0 4.79 -20.15 0 0 -4.79 6.17 -1.62 -0.69 0.85 0 -29.64 0.62 0.69 -6.1 -1.54 0 -4.79 14.74 -0.54 0 35.81zm-5.02 -42.61c-1.7,0 -3.06,-0.49 -4.09,-1.47 -1.03,-0.98 -1.54,-2.34 -1.54,-4.09 0,-1.9 0.54,-3.33 1.62,-4.28 1.08,-0.95 2.44,-1.43 4.09,-1.43 1.6,0 2.92,0.46 3.98,1.39 1.05,0.93 1.58,2.34 1.58,4.25 0,1.85 -0.54,3.25 -1.62,4.21 -1.08,0.95 -2.42,1.43 -4.01,1.43zm35.35 7.41l16.98 -0.62 0 4.79 -4.63 1.77 1.31 -1.47 -12.97 36.43 -10.88 0 -11.5 -36.12 1.39 1.16 -4.86 -1.16 0 -4.79 18.22 -0.62 0 4.79 -6.1 1.54 0.77 -1.24 8.64 30.57 -0.77 0 9.57 -30.03 0.54 0.77 -5.71 -1 0 -4.79zm36.58 41.6c-3.6,0 -6.79,-0.78 -9.57,-2.35 -2.78,-1.57 -4.94,-3.9 -6.48,-6.99 -1.54,-3.09 -2.31,-6.87 -2.31,-11.35 0,-4.58 0.81,-8.52 2.43,-11.81 1.62,-3.29 3.91,-5.83 6.87,-7.6 2.96,-1.77 6.47,-2.66 10.54,-2.66 3.86,0 7.01,0.78 9.46,2.35 2.44,1.57 4.26,3.72 5.44,6.44 1.18,2.73 1.77,5.82 1.77,9.26 0,0.77 -0.03,1.54 -0.08,2.32 -0.05,0.77 -0.15,1.62 -0.31,2.55l-28.71 0 0 -5.87 20.61 0 -1.08 0.7c0.05,-2.06 -0.17,-3.91 -0.66,-5.56 -0.49,-1.65 -1.33,-2.96 -2.51,-3.94 -1.18,-0.98 -2.75,-1.47 -4.71,-1.47 -2.21,0 -4.03,0.62 -5.44,1.85 -1.41,1.24 -2.44,2.91 -3.09,5.02 -0.64,2.11 -0.96,4.5 -0.96,7.18 0,2.93 0.39,5.52 1.16,7.76 0.77,2.24 1.98,4 3.63,5.29 1.65,1.29 3.73,1.93 6.25,1.93 1.8,0 3.76,-0.33 5.87,-1 2.11,-0.67 4.3,-1.7 6.56,-3.09l3.16 5.02c-2.93,2.01 -5.92,3.51 -8.95,4.51 -3.04,1 -5.99,1.5 -8.88,1.5zm23.54 -0.85l0 -4.79 6.41 -1.7 -0.93 1.47 0 -30.87 1.08 1.62 -6.56 -1.77 0 -4.79 12.66 -0.62 1.23 7.41 -1.23 -0.31c2.31,-2.42 4.59,-4.28 6.83,-5.6 2.24,-1.31 4.67,-1.97 7.29,-1.97 1.65,0 3.37,0.26 5.17,0.77l-0.62 13.28 -5.4 0 -1.08 -8.26 0.85 1.85c-0.31,-0.1 -0.64,-0.18 -1,-0.23 -0.36,-0.05 -0.72,-0.08 -1.08,-0.08 -1.75,0 -3.46,0.53 -5.13,1.58 -1.67,1.05 -3.18,2.43 -4.51,4.13l0.77 -2.55 0 26.4 -1.16 -1.47 7.87 1.7 0 4.79 -21.46 0zm35.12 18.14l0.85 -6.64c0.77,0.1 1.48,0.18 2.12,0.23 0.64,0.05 1.25,0.08 1.81,0.08 2.37,0 4.28,-0.49 5.75,-1.47 1.47,-0.98 2.73,-2.48 3.78,-4.51 1.06,-2.03 2.12,-4.62 3.2,-7.76l-0.39 3.16 -14.67 -37.05 0.93 0.85 -4.63 -1 0 -4.79 18.45 -0.62 0 4.79 -5.94 1.39 0.54 -0.85 10.34 30.18 -2.16 -0.46 9.49 -29.56 0.46 0.93 -5.79 -1 0 -4.79 17.6 -0.62 0 4.79 -5.02 1.47 1.31 -0.85 -13.04 35.89c-1.03,2.88 -2.12,5.45 -3.28,7.72 -1.16,2.26 -2.47,4.22 -3.94,5.87 -1.47,1.65 -3.2,2.91 -5.21,3.78 -2.01,0.87 -4.37,1.31 -7.1,1.31 -1.6,0 -3.42,-0.15 -5.48,-0.46zm58.82 -18.14l0 -8.03c5.92,-5.04 10.79,-9.4 14.63,-13.08 3.83,-3.68 6.68,-6.97 8.53,-9.88 1.85,-2.91 2.78,-5.75 2.78,-8.53 0,-2.83 -0.93,-4.94 -2.78,-6.33 -1.85,-1.39 -4.19,-2.08 -7.02,-2.08 -1.34,0 -2.79,0.15 -4.36,0.46 -1.57,0.31 -3.18,0.75 -4.82,1.31l1.08 -1.62 -1.24 8.88 -5.71 0 -0.77 -13.2c3.09,-0.98 6.11,-1.71 9.07,-2.2 2.96,-0.49 5.73,-0.73 8.3,-0.73 3.55,0 6.7,0.49 9.46,1.47 2.75,0.98 4.9,2.51 6.45,4.59 1.54,2.08 2.32,4.8 2.32,8.14 0,3.7 -0.97,7.31 -2.89,10.81 -1.93,3.5 -4.75,7.15 -8.45,10.96 -3.71,3.81 -8.26,8.03 -13.66,12.66l0 -1.08 26.24 0 0 7.49 -37.13 0zm67.54 -14.43l2.39 1.93 -28.1 0 -1.08 -6.56 25.16 -36.05 11.12 0.93 0 36.12 -2.39 -1.78 10.81 0 0 7.33 -10.81 0 2.39 -1.93 0 14.43 -9.49 0 0 -14.43zm2.55 -5.4l-2.39 1.78 0 -31.65 3.16 0.54 -22.54 32.73 -1.85 -3.4 23.62 0zm42.37 -42.37l-19.91 68.62 -6.56 0 19.84 -68.62 6.64 0zm38.98 14.74l-20.3 47.47 -10.5 0 21.07 -48.09 1.39 1.47 -24 0 2.08 -1.47 -1.85 9.26 -5.71 0 0 -15.36 37.82 0 0 6.72zm-6.11 -31.7l-462.59 0c-7.36,0 -14.06,3.02 -18.92,7.88 -4.86,4.86 -7.88,11.56 -7.88,18.92l0 53.85c0,7.36 3.02,14.06 7.88,18.92 4.86,4.86 11.56,7.88 18.92,7.88l462.59 0c7.36,0 14.06,-3.02 18.92,-7.88 4.86,-4.86 7.88,-11.56 7.88,-18.92l0 -53.85c0,-7.36 -3.02,-14.06 -7.88,-18.92 -4.86,-4.86 -11.56,-7.88 -18.92,-7.88z"/>
 </g>
</svg>
