<?xml version="1.0" encoding="UTF-8"?>
<!DOCTYPE svg PUBLIC "-//W3C//DTD SVG 1.1//EN" "http://www.w3.org/Graphics/SVG/1.1/DTD/svg11.dtd">
<!-- Creator: CorelDRAW -->
<svg xmlns="http://www.w3.org/2000/svg" xml:space="preserve" width="45.1052mm" height="22.1668mm" version="1.1" style="shape-rendering:geometricPrecision; text-rendering:geometricPrecision; image-rendering:optimizeQuality; fill-rule:evenodd; clip-rule:evenodd"
viewBox="0 0 910.09 447.26"
 xmlns:xlink="http://www.w3.org/1999/xlink"
 xmlns:xodm="http://www.corel.com/coreldraw/odm/2003">
 <defs>
  <style type="text/css">
   <![CDATA[
    .fil0 {fill:#2B2A29}
    .fil1 {fill:#FEFEFE;fill-rule:nonzero}
   ]]>
  </style>
 </defs>
 <g id="Layer_x0020_1">
  <metadata id="CorelCorpID_0Corel-Layer"/>
  <g id="_2680332739888">
   <path class="fil0" d="M46.16 0l809.53 0c12.7,0 24.25,5.19 32.61,13.55l0.12 0.17c1.51,1.52 2.91,3.15 4.2,4.86l8.24 10.99c5.79,7.72 9.23,17.27 9.23,27.57l0 343.96c0,12.67 -5.2,24.2 -13.57,32.58l0.02 0.02c-8.36,8.36 -19.9,13.55 -32.61,13.55l-809.53 0c-12.7,0 -24.25,-5.19 -32.61,-13.55l-0.12 -0.17c-1.51,-1.52 -2.91,-3.15 -4.2,-4.86l-8.24 -10.99c-5.79,-7.72 -9.23,-17.27 -9.23,-27.57l0 -343.96c0,-12.67 5.2,-24.2 13.57,-32.58l-0.02 -0.02c8.36,-8.36 19.9,-13.55 32.61,-13.55zm304.37 140.25l-0.12 -0.16 -2.39 -16.74 42.37 0 8.24 10.99 0 57.74c-12.76,7.74 -26.31,11.62 -40.66,11.62 -16.86,0 -29.75,-5.24 -38.69,-15.72 -0.6,-0.7 -1.17,-1.42 -1.73,-2.16l-8.24 -10.99c-7.79,-10.38 -11.68,-24.98 -11.68,-43.79 0,-12.87 2.42,-23.94 7.26,-33.23 4.84,-9.28 11.36,-16.31 19.56,-21.1 8.2,-4.78 17.31,-7.17 27.33,-7.17 7.74,0 14.61,1.17 20.58,3.5 5.98,2.33 11.65,5.78 17,10.33l8.24 10.99 -12.13 12.64c-4.21,-3.3 -8.17,-5.69 -11.87,-7.17 -3.7,-1.48 -8,-2.22 -12.9,-2.22 -9.11,0 -16.57,3.64 -22.38,10.93 -5.81,7.29 -8.71,18.45 -8.71,33.48 0,12.35 1.42,21.99 4.27,28.92 4.12,3 9.29,4.51 15.5,4.51 7.17,0 13.44,-1.54 18.79,-4.61l0 -19.76 -9.52 0 -8.12 -10.83zm132.06 -27.73c0.02,0.02 0.03,0.04 0.05,0.07l8.02 10.69c6.18,8.24 9.27,19.1 9.27,32.57 0,9.45 -1.71,17.8 -5.12,25.03 -3.42,7.23 -8.31,12.84 -14.69,16.83 -6.38,3.98 -13.95,5.98 -22.72,5.98 -13.32,0 -23.75,-4.24 -31.26,-12.73 -0.7,-0.79 -1.37,-1.61 -2.01,-2.46l-8.24 -10.99c-6.18,-8.24 -9.27,-19.12 -9.27,-32.64 0,-9.45 1.71,-17.77 5.12,-24.94 3.42,-7.17 8.34,-12.76 14.78,-16.74 6.44,-3.98 14.04,-5.98 22.81,-5.98 13.32,0 23.72,4.24 31.18,12.73 0.67,0.76 1.31,1.55 1.92,2.36l0.17 0.23zm99.77 0c0.02,0.02 0.03,0.04 0.05,0.07l8.02 10.69c6.18,8.24 9.27,19.1 9.27,32.57 0,9.45 -1.71,17.8 -5.12,25.03 -3.42,7.23 -8.31,12.84 -14.69,16.83 -6.38,3.98 -13.95,5.98 -22.72,5.98 -13.32,0 -23.75,-4.24 -31.26,-12.73 -0.7,-0.79 -1.37,-1.61 -2.01,-2.46l-8.24 -10.99c-6.18,-8.24 -9.27,-19.12 -9.27,-32.64 0,-9.45 1.71,-17.77 5.12,-24.94 3.42,-7.17 8.34,-12.76 14.78,-16.74 6.44,-3.98 14.04,-5.98 22.81,-5.98 13.32,0 23.72,4.24 31.18,12.73 0.67,0.76 1.31,1.55 1.92,2.36l0.17 0.23zm-166.61 235.25l-0.12 -0.16 0 -62.01c0,-1.22 -0.05,-2.37 -0.16,-3.44 -0.48,-0.06 -0.98,-0.09 -1.51,-0.09 -3.53,0 -6.58,1.12 -9.14,3.33 -2.56,2.22 -5.21,5.67 -7.94,10.34l0 62.87 -21.87 0 -8.24 -10.99 0 -62.01c0,-1.22 -0.05,-2.37 -0.16,-3.44 -0.48,-0.06 -0.98,-0.09 -1.51,-0.09 -3.64,0 -6.75,1.12 -9.31,3.33 -2.56,2.22 -5.21,5.67 -7.94,10.34l0 62.87 -21.87 0 -8.24 -10.99 0 -90.37 18.96 0 5.44 7.25c6.19,-6.54 13.66,-9.81 22.41,-9.81 5.24,0 9.77,1.34 13.58,4.02 1.87,1.31 3.48,2.87 4.85,4.69l4.16 5.54c3.45,-4.44 7.23,-7.88 11.32,-10.32 4.38,-2.61 9.42,-3.93 15.12,-3.93 7.29,0 13.1,2.48 17.42,7.43 0.38,0.44 0.74,0.88 1.09,1.35l8.24 10.99c3.6,4.8 5.4,11.05 5.4,18.73l0 65.43 -21.87 0 -8.12 -10.83zm45.37 -8.12c-0.02,-0.03 -0.04,-0.05 -0.06,-0.08l-0.04 -0.05c-3.5,-4.66 -5.25,-10.39 -5.25,-17.19 0,-9.79 3.57,-17.29 10.68,-22.46 7.11,-5.18 17.28,-7.77 30.49,-7.77l11.27 0 0 -5.12c0,-1.29 -0.07,-2.49 -0.2,-3.61 -2.31,-0.74 -5.13,-1.11 -8.47,-1.11 -6.61,0 -14.58,1.59 -23.92,4.78l-8.24 -10.99 -5.12 -14.86c11.27,-4.33 22.21,-6.49 32.8,-6.49 13.82,0 23.51,3.71 29.07,11.12l8.24 10.99c3.74,4.98 5.61,11.64 5.61,19.97l0 37.92c0,0.96 0.04,1.84 0.12,2.67l6.71 8.95 -4.61 14.52c-5.12,-0.46 -9.32,-1.72 -12.56,-3.76 -1.75,-1.11 -3.28,-2.53 -4.59,-4.27l-3.33 -4.43c-2.99,4.21 -6.67,7.36 -11.05,9.47 -4.61,2.22 -9.77,3.33 -15.46,3.33 -9,0 -16.12,-2.56 -21.35,-7.69 -0.96,-0.94 -1.83,-1.93 -2.61,-2.97l-8.14 -10.86zm95.22 45.36l-0.12 -0.16 0 -127.61 19.13 0 5.07 6.76c2.54,-2.46 5.29,-4.43 8.25,-5.91 4.55,-2.27 9.34,-3.42 14.35,-3.42 10.67,0 18.74,3.65 24.21,10.94l8.24 10.99c0.37,0.49 0.73,1 1.07,1.53 5.46,8.31 8.2,19.99 8.2,35.02 0,9.34 -1.4,17.62 -4.18,24.86 -2.79,7.23 -6.9,12.9 -12.3,17 -5.4,4.09 -11.82,6.15 -19.22,6.15 -9.57,0 -17.14,-3.3 -22.72,-9.91l0 42.2 -21.87 2.39 -8.12 -10.83zm-365.44 -257.09l8.12 10.83c4.97,6.62 7.91,14.84 7.91,23.73 0,10.92 -4.44,20.83 -11.62,28.01l-0.04 0.04c-7.18,7.18 -17.09,11.62 -28.01,11.62 -10.92,0 -20.83,-4.44 -28.01,-11.62l-0.04 -0.04c-1.33,-1.33 -2.57,-2.76 -3.71,-4.27l-8.24 -10.99c-4.97,-6.62 -7.92,-14.85 -7.92,-23.74 0,-10.92 4.44,-20.83 11.62,-28.01l0 -0.04c7.18,-7.18 17.1,-11.62 28.05,-11.62 10.95,0 20.88,4.44 28.05,11.62l0.13 0.17c1.29,1.3 2.48,2.68 3.58,4.15l0.12 0.16zm644.72 25.89c0,-13.22 -2.95,-23.75 -8.84,-31.61l-8.24 -10.99c-0.5,-0.67 -1.03,-1.33 -1.58,-1.96 -6.95,-8.03 -16.74,-12.04 -29.38,-12.04 -8.31,0 -15.49,2.08 -21.52,6.23 -6.03,4.16 -10.65,9.91 -13.84,17.26 -3.19,7.35 -4.78,15.63 -4.78,24.86 0,13.2 3.06,23.89 9.18,32.05l8.24 10.99c0.64,0.85 1.31,1.67 2.01,2.46 7.46,8.43 18.08,12.64 31.86,12.64 12.3,0 23.46,-4.04 33.48,-12.13l-9.05 -12.47 -8.24 -10.99c-3.98,2.73 -7.74,4.76 -11.27,6.07 -3.53,1.31 -7.29,1.96 -11.27,1.96 -4.7,0 -8.71,-1.02 -12.05,-3.06 -0.96,-2.95 -1.6,-6.41 -1.91,-10.38l56.72 0c0.34,-4.78 0.51,-7.74 0.51,-8.88zm-344.83 180.48c-1.65,0 -3.14,-0.19 -4.48,-0.55 -0.06,-0.68 -0.09,-1.39 -0.09,-2.13 0,-10.48 7.07,-15.72 21.18,-15.72l0.81 0 0 7.29c-4.21,7.4 -10.02,11.1 -17.42,11.1zm-282.85 -212.48c0.3,0.31 0.61,0.62 0.91,0.93 4.89,8.46 7.7,18.29 7.7,28.76 0,14.1 -7.35,37.1 -17.54,62.01 -11.44,27.97 -26.39,58 -38.84,81.11 -3.31,-6.24 -6.51,-12.42 -9.51,-18.38 -11.66,-23.22 -22.97,-48.11 -30.82,-70.25 -6.18,-17.41 -10.1,-32.75 -10.1,-43.5 0,-15.88 6.44,-30.27 16.85,-40.68 10.41,-10.4 24.8,-16.85 40.68,-16.85 15.88,0 30.27,6.44 40.68,16.85zm-176.75 288.03c4.17,3.18 9.36,5.08 14.97,5.08l809.53 0c6.81,0 13.01,-2.79 17.51,-7.29l0.04 0c4.47,-4.47 7.25,-10.67 7.25,-17.51l0 -343.96c0,-3.07 -0.56,-6.02 -1.59,-8.73 -4.17,-3.18 -9.36,-5.08 -14.97,-5.08l-809.53 0c-6.81,0 -13.01,2.79 -17.51,7.29l-0.04 0c-4.47,4.47 -7.25,10.67 -7.25,17.51l0 343.96c0,3.07 0.56,6.02 1.59,8.73zm119.75 -243.67c-0.26,-1.19 -0.4,-2.42 -0.4,-3.68 0,-4.64 1.87,-8.83 4.87,-11.85l0.02 0.02c3.02,-3.02 7.21,-4.89 11.83,-4.89 2.93,0 5.69,0.76 8.08,2.08 0.26,1.18 0.4,2.4 0.4,3.66 0,4.64 -1.87,8.83 -4.87,11.85 -3.02,3.01 -7.21,4.87 -11.85,4.87 -2.93,0 -5.69,-0.75 -8.08,-2.05zm8.08 -95.15c-22.22,0 -42.34,9.01 -56.9,23.57 -14.56,14.56 -23.57,34.68 -23.57,56.9 0,13.48 4.44,31.39 11.45,51.12 8.11,22.85 19.84,48.68 31.98,72.85 4.72,9.39 9.17,17.94 13.28,25.56 4.51,8.38 9.23,16.8 13.86,24.82l9.9 17.16 8.24 10.99 9.9 -17.16c13.86,-24 35.64,-65.63 51.24,-103.74 11.23,-27.46 19.33,-53.4 19.33,-70.61 0,-18.1 -5.98,-34.8 -16.06,-48.25l-8.24 -10.99c-2.3,-3.06 -4.81,-5.96 -7.51,-8.66 -14.56,-14.56 -34.68,-23.57 -56.9,-23.57zm435.63 262.41c12.64,0 18.96,-10.36 18.96,-31.09 0,-7.83 -0.71,-14.11 -2.14,-18.85 -1.96,-0.95 -4.19,-1.43 -6.7,-1.43 -3.64,0 -7.07,1.12 -10.25,3.33 -3.18,2.22 -5.92,5.21 -8.2,8.97l0 37.21c2.52,1.23 5.29,1.85 8.33,1.85zm211.03 -196.94c0,-4.28 -0.43,-7.98 -1.29,-11.1 -2.28,-1.1 -4.97,-1.66 -8.07,-1.66 -5.35,0 -9.54,1.97 -12.56,5.89 -1.54,2.01 -2.77,4.64 -3.67,7.89l25.58 0 0 -1.02zm-192 44.28c-1.95,-2.59 -2.92,-5.56 -2.92,-8.92 0,-3.19 0.94,-6.26 2.82,-9.22 1.31,-2.07 2.97,-3.91 4.98,-5.54l-8.06 -10.75c-0.42,-0.57 -0.82,-1.15 -1.19,-1.74 -2.56,-4.16 -3.84,-9.14 -3.84,-14.95 0,-6.49 1.59,-12.19 4.78,-17.08 3.19,-4.9 7.6,-8.68 13.24,-11.36 5.64,-2.68 12.1,-4.02 19.39,-4.02 9.57,0.23 17.28,-0.48 23.15,-2.13 5.87,-1.65 12.22,-4.3 19.05,-7.94l8.24 10.99 5.47 17.42c-4.88,1.72 -11.81,2.72 -20.79,3l6.82 9.1c0.07,0.1 0.14,0.19 0.21,0.29 2.68,3.7 4.02,8.34 4.02,13.92 0,5.92 -1.45,11.16 -4.36,15.72 -2.9,4.56 -7.12,8.14 -12.64,10.76 -5.52,2.62 -11.99,3.93 -19.39,3.93 -4.1,0 -7.69,-0.46 -10.76,-1.37 -0.88,0.6 -1.6,1.26 -2.17,1.98 0.36,0.01 0.72,0.02 1.1,0.02l13.84 0c6.61,0 12.38,1.08 17.34,3.24 4.66,2.04 8.33,4.85 11.03,8.44l8.24 10.99c0.17,0.23 0.34,0.46 0.5,0.7 2.73,3.93 4.1,8.34 4.1,13.24 0,9.11 -3.87,16.2 -11.62,21.27 -7.74,5.07 -18.9,7.6 -33.48,7.6 -10.48,0 -18.71,-1.08 -24.69,-3.24 -5.29,-1.91 -9.21,-4.58 -11.79,-8.01l-8.24 -10.99c-0.34,-0.45 -0.65,-0.91 -0.94,-1.39 -2.51,-4.1 -3.76,-9.34 -3.76,-15.72l19.65 0 8.24 10.99c0,0.21 0,0.41 0.01,0.62l0.03 0.01c3.13,0.91 7.66,1.37 13.58,1.37 8.31,0 14.18,-1.02 17.6,-3.07 3.1,-1.86 4.79,-4.47 5.08,-7.83 -2.01,-0.55 -4.37,-0.83 -7.09,-0.83l-13.67 0c-8.54,0 -14.98,-1.65 -19.3,-4.96 -1.43,-1.09 -2.62,-2.27 -3.58,-3.55l-8.24 -10.99zm119.27 -5.99l0 -102.64 -8.24 -10.99 -21.87 2.39 0 105.91c0,6.37 1.46,11.5 4.37,15.38l8.24 10.99c0.47,0.63 0.98,1.22 1.53,1.78 3.93,4.04 9.37,6.07 16.32,6.07 5.12,0 9.97,-1.02 14.52,-3.07l-4.61 -15.37 -8.24 -10.99c-0.67,0.22 -1.34,0.4 -2.01,0.54zm-96.68 -29.15c2.1,0.97 4.53,1.45 7.29,1.45 5.24,0 9.22,-1.57 11.96,-4.7 2.73,-3.13 4.1,-7.55 4.1,-13.24 0,-1.73 -0.13,-3.33 -0.38,-4.8 -2.18,-0.86 -4.77,-1.29 -7.78,-1.29 -4.9,0 -8.74,1.57 -11.53,4.7 -2.79,3.13 -4.18,7.32 -4.18,12.56 0,1.92 0.18,3.69 0.53,5.33zm-78.94 -20.87c3.34,0 6.25,0.7 8.73,2.09 1.55,4.68 2.33,10.69 2.33,18.02 0,10.59 -1.62,18.45 -4.87,23.57 -3.25,5.12 -8.12,7.69 -14.61,7.69 -3.42,0 -6.39,-0.7 -8.9,-2.11 -1.55,-4.71 -2.33,-10.76 -2.33,-18.17 0,-20.73 6.55,-31.09 19.64,-31.09zm-117.08 49.26c2.52,1.4 5.49,2.11 8.9,2.11 6.49,0 11.36,-2.56 14.61,-7.69 3.24,-5.12 4.87,-12.98 4.87,-23.57 0,-7.33 -0.78,-13.33 -2.33,-18.02 -2.48,-1.39 -5.39,-2.09 -8.73,-2.09 -13.1,0 -19.64,10.36 -19.64,31.09 0,7.4 0.78,13.46 2.33,18.17z"/>
  </g>
  <path class="fil1" d="M46.16 0l809.53 0c12.7,0 24.25,5.19 32.61,13.55l-0.02 0.02c8.37,8.38 13.57,19.92 13.57,32.58l0 343.96c0,12.67 -5.2,24.2 -13.57,32.58l0.02 0.02c-8.36,8.36 -19.9,13.55 -32.61,13.55l-809.53 0c-12.7,0 -24.25,-5.19 -32.61,-13.55l0.02 -0.02c-8.37,-8.38 -13.57,-19.92 -13.57,-32.58l0 -343.96c0,-12.67 5.2,-24.2 13.57,-32.58l-0.02 -0.02c8.36,-8.36 19.9,-13.55 32.61,-13.55zm305.61 69.53c7.74,0 14.61,1.17 20.58,3.5 5.98,2.33 11.65,5.78 17,10.33l-12.13 12.64c-4.21,-3.3 -8.17,-5.69 -11.87,-7.17 -3.7,-1.48 -8,-2.22 -12.9,-2.22 -9.11,0 -16.57,3.64 -22.38,10.93 -5.81,7.29 -8.71,18.45 -8.71,33.48 0,15.72 2.31,27.05 6.92,34 4.61,6.95 11.65,10.42 21.1,10.42 7.17,0 13.44,-1.54 18.79,-4.61l0 -30.75 -17.77 0 -2.39 -16.74 42.37 0 0 57.74c-12.76,7.74 -26.31,11.62 -40.66,11.62 -16.86,0 -29.75,-5.24 -38.69,-15.72 -8.94,-10.48 -13.41,-25.8 -13.41,-45.96 0,-12.87 2.42,-23.94 7.26,-33.23 4.84,-9.28 11.36,-16.31 19.56,-21.1 8.2,-4.78 17.31,-7.17 27.33,-7.17zm97.55 27.67c13.32,0 23.72,4.24 31.18,12.73 7.46,8.48 11.19,20.13 11.19,34.93 0,9.45 -1.71,17.8 -5.12,25.03 -3.42,7.23 -8.31,12.84 -14.69,16.83 -6.38,3.98 -13.95,5.98 -22.72,5.98 -13.32,0 -23.75,-4.24 -31.26,-12.73 -7.52,-8.48 -11.27,-20.19 -11.27,-35.11 0,-9.45 1.71,-17.77 5.12,-24.94 3.42,-7.17 8.34,-12.76 14.78,-16.74 6.44,-3.98 14.04,-5.98 22.81,-5.98zm0 16.57c-13.1,0 -19.64,10.36 -19.64,31.09 0,10.71 1.62,18.59 4.87,23.66 3.24,5.07 8.11,7.6 14.61,7.6 6.49,0 11.36,-2.56 14.61,-7.69 3.24,-5.12 4.87,-12.98 4.87,-23.57 0,-10.59 -1.62,-18.42 -4.87,-23.49 -3.25,-5.07 -8.06,-7.6 -14.44,-7.6zm99.77 -16.57c13.32,0 23.72,4.24 31.18,12.73 7.46,8.48 11.19,20.13 11.19,34.93 0,9.45 -1.71,17.8 -5.12,25.03 -3.42,7.23 -8.31,12.84 -14.69,16.83 -6.38,3.98 -13.95,5.98 -22.72,5.98 -13.32,0 -23.75,-4.24 -31.26,-12.73 -7.52,-8.48 -11.27,-20.19 -11.27,-35.11 0,-9.45 1.71,-17.77 5.12,-24.94 3.42,-7.17 8.34,-12.76 14.78,-16.74 6.44,-3.98 14.04,-5.98 22.81,-5.98zm0 16.57c-13.1,0 -19.64,10.36 -19.64,31.09 0,10.71 1.62,18.59 4.87,23.66 3.24,5.07 8.11,7.6 14.61,7.6 6.49,0 11.36,-2.56 14.61,-7.69 3.24,-5.12 4.87,-12.98 4.87,-23.57 0,-10.59 -1.62,-18.42 -4.87,-23.49 -3.25,-5.07 -8.06,-7.6 -14.44,-7.6zm141.45 -9.22c-5.81,2.05 -14.52,3.07 -26.14,3.07 5.58,2.51 9.71,5.61 12.38,9.31 2.68,3.7 4.02,8.34 4.02,13.92 0,5.92 -1.45,11.16 -4.36,15.72 -2.9,4.56 -7.12,8.14 -12.64,10.76 -5.52,2.62 -11.99,3.93 -19.39,3.93 -4.1,0 -7.69,-0.46 -10.76,-1.37 -2.51,1.71 -3.76,3.93 -3.76,6.66 0,4.21 3.65,6.32 10.93,6.32l13.84 0c6.61,0 12.38,1.08 17.34,3.24 4.95,2.16 8.8,5.21 11.53,9.14 2.73,3.93 4.1,8.34 4.1,13.24 0,9.11 -3.87,16.2 -11.62,21.27 -7.74,5.07 -18.9,7.6 -33.48,7.6 -10.48,0 -18.71,-1.08 -24.69,-3.24 -5.98,-2.16 -10.22,-5.3 -12.73,-9.4 -2.51,-4.1 -3.76,-9.34 -3.76,-15.72l19.65 0c0,3.19 0.6,5.69 1.79,7.52 1.19,1.82 3.36,3.19 6.49,4.1 3.13,0.91 7.66,1.37 13.58,1.37 8.31,0 14.18,-1.02 17.6,-3.07 3.42,-2.05 5.12,-5.01 5.12,-8.88 0,-3.42 -1.31,-6.07 -3.93,-7.94 -2.62,-1.88 -6.43,-2.82 -11.44,-2.82l-13.67 0c-8.54,0 -14.98,-1.65 -19.3,-4.96 -4.33,-3.3 -6.49,-7.46 -6.49,-12.47 0,-3.19 0.94,-6.26 2.82,-9.22 1.88,-2.96 4.47,-5.47 7.77,-7.52 -5.47,-2.85 -9.48,-6.35 -12.04,-10.51 -2.56,-4.16 -3.84,-9.14 -3.84,-14.95 0,-6.49 1.59,-12.19 4.78,-17.08 3.19,-4.9 7.6,-8.68 13.24,-11.36 5.64,-2.68 12.1,-4.02 19.39,-4.02 9.57,0.23 17.28,-0.48 23.15,-2.13 5.87,-1.65 12.22,-4.3 19.05,-7.94l5.47 17.42zm-47.32 7.52c-4.9,0 -8.74,1.57 -11.53,4.7 -2.79,3.13 -4.18,7.32 -4.18,12.56 0,5.47 1.42,9.79 4.27,12.98 2.85,3.19 6.78,4.78 11.79,4.78 5.24,0 9.22,-1.57 11.96,-4.7 2.73,-3.13 4.1,-7.55 4.1,-13.24 0,-11.39 -5.47,-17.08 -16.4,-17.08zm81.83 80.63c-6.95,0 -12.39,-2.02 -16.32,-6.07 -3.93,-4.04 -5.89,-9.77 -5.89,-17.17l0 -105.91 21.87 -2.39 0 107.63c0,4.21 1.71,6.32 5.12,6.32 1.71,0 3.42,-0.28 5.12,-0.85l4.61 15.37c-4.55,2.05 -9.39,3.07 -14.52,3.07zm102.33 -49.88c0,1.14 -0.17,4.1 -0.51,8.88l-56.72 0c0.68,8.77 2.96,15.03 6.83,18.79 3.87,3.76 9,5.64 15.37,5.64 3.99,0 7.74,-0.65 11.27,-1.96 3.53,-1.31 7.29,-3.33 11.27,-6.07l9.05 12.47c-10.02,8.08 -21.18,12.13 -33.48,12.13 -13.78,0 -24.4,-4.21 -31.86,-12.64 -7.46,-8.43 -11.19,-19.93 -11.19,-34.51 0,-9.22 1.59,-17.51 4.78,-24.86 3.19,-7.35 7.8,-13.1 13.84,-17.26 6.04,-4.16 13.21,-6.23 21.52,-6.23 12.64,0 22.44,4.02 29.38,12.04 6.95,8.03 10.42,19.22 10.42,33.57zm-21.7 -6.32c0,-15.83 -5.87,-23.75 -17.6,-23.75 -5.35,0 -9.54,1.97 -12.56,5.89 -3.02,3.93 -4.81,10.22 -5.38,18.88l35.53 0 0 -1.02zm-392.11 118.18c7.29,0 13.1,2.48 17.42,7.43 4.33,4.95 6.49,11.66 6.49,20.07l0 65.43 -21.87 0 0 -62.01c0,-9.68 -3.3,-14.52 -9.91,-14.52 -3.53,0 -6.58,1.12 -9.14,3.33 -2.56,2.22 -5.21,5.67 -7.94,10.34l0 62.87 -21.87 0 0 -62.01c0,-9.68 -3.3,-14.52 -9.91,-14.52 -3.64,0 -6.75,1.12 -9.31,3.33 -2.56,2.22 -5.21,5.67 -7.94,10.34l0 62.87 -21.87 0 0 -90.37 18.96 0 1.71 11.79c6.83,-9.57 15.55,-14.35 26.14,-14.35 5.24,0 9.77,1.34 13.58,4.02 3.81,2.67 6.58,6.41 8.28,11.19 3.65,-4.9 7.67,-8.66 12.05,-11.28 4.38,-2.61 9.42,-3.93 15.12,-3.93zm116.16 69.02c0,3.5 0.55,6.13 1.62,7.77 1.08,1.64 2.82,2.93 5.21,3.84l-4.61 14.52c-5.12,-0.46 -9.32,-1.72 -12.56,-3.76 -3.24,-2.04 -5.72,-5.18 -7.43,-9.4 -3.07,4.56 -6.92,7.94 -11.53,10.17 -4.61,2.22 -9.77,3.33 -15.46,3.33 -9,0 -16.12,-2.56 -21.35,-7.69 -5.24,-5.12 -7.86,-11.84 -7.86,-20.16 0,-9.79 3.57,-17.29 10.68,-22.46 7.11,-5.18 17.28,-7.77 30.49,-7.77l11.27 0 0 -5.12c0,-5.81 -1.34,-9.88 -4.02,-12.21 -2.68,-2.33 -6.98,-3.5 -12.9,-3.5 -6.61,0 -14.58,1.59 -23.92,4.78l-5.12 -14.86c11.27,-4.33 22.21,-6.49 32.8,-6.49 23.12,0 34.68,10.38 34.68,31.09l0 37.92zm-38.95 10.59c7.4,0 13.21,-3.7 17.42,-11.1l0 -18.28 -9.05 0c-14.11,0 -21.18,5.24 -21.18,15.72 0,4.33 1.09,7.69 3.25,10.08 2.16,2.38 5.35,3.59 9.57,3.59zm112.24 -79.61c11.39,0 19.82,4.16 25.28,12.47 5.46,8.31 8.2,19.99 8.2,35.02 0,9.34 -1.4,17.62 -4.18,24.86 -2.79,7.23 -6.9,12.9 -12.3,17 -5.4,4.09 -11.82,6.15 -19.22,6.15 -9.57,0 -17.14,-3.3 -22.72,-9.91l0 42.2 -21.87 2.39 0 -127.61 19.13 0 1.2 11.11c3.53,-4.56 7.58,-7.98 12.13,-10.25 4.55,-2.27 9.34,-3.42 14.35,-3.42zm-8.37 78.75c12.64,0 18.96,-10.36 18.96,-31.09 0,-11.05 -1.42,-19.02 -4.27,-23.92 -2.85,-4.9 -7.12,-7.35 -12.81,-7.35 -3.64,0 -7.07,1.12 -10.25,3.33 -3.18,2.22 -5.92,5.21 -8.2,8.97l0 40.66c4.21,6.26 9.74,9.4 16.57,9.4zm-435.63 -221.61c10.95,0 20.88,4.44 28.05,11.62l0 0.04c7.18,7.18 11.62,17.09 11.62,28.01 0,10.92 -4.44,20.83 -11.62,28.01l-0.04 0.04c-7.18,7.18 -17.09,11.62 -28.01,11.62 -10.92,0 -20.83,-4.44 -28.01,-11.62l-0.04 -0.04c-7.18,-7.18 -11.62,-17.09 -11.62,-28.01 0,-10.92 4.44,-20.83 11.62,-28.01l0 -0.04c7.18,-7.18 17.1,-11.62 28.05,-11.62zm0 -40.8c22.22,0 42.34,9.01 56.9,23.57 14.56,14.56 23.57,34.68 23.57,56.9 0,17.21 -8.1,43.15 -19.33,70.61 -15.59,38.12 -37.38,79.74 -51.24,103.74l-9.9 17.16 -9.9 -17.16c-4.63,-8.02 -9.35,-16.45 -13.86,-24.82 -4.1,-7.62 -8.56,-16.17 -13.28,-25.56 -12.14,-24.17 -23.88,-50 -31.98,-72.85 -7,-19.74 -11.45,-37.64 -11.45,-51.12 0,-22.22 9.01,-42.34 23.57,-56.9 14.56,-14.56 34.68,-23.57 56.9,-23.57zm40.68 39.8c-10.41,-10.4 -24.8,-16.85 -40.68,-16.85 -15.88,0 -30.27,6.44 -40.68,16.85 -10.4,10.41 -16.85,24.8 -16.85,40.68 0,10.75 3.92,26.09 10.1,43.5 7.85,22.14 19.16,47.03 30.82,70.25 4.04,8.04 8.46,16.48 13.01,24.94l3.57 6.58c12.68,-23.38 28.21,-54.41 40.01,-83.26 10.19,-24.91 17.54,-47.91 17.54,-62.01 0,-15.88 -6.44,-30.27 -16.85,-40.68zm-28.83 28.83l-0.02 0.02c-3.02,-3.02 -7.21,-4.89 -11.83,-4.89 -4.62,0 -8.81,1.87 -11.83,4.89l-0.02 -0.02c-3.01,3.02 -4.87,7.21 -4.87,11.85 0,4.64 1.87,8.83 4.87,11.85 3.02,3.01 7.21,4.87 11.85,4.87 4.64,0 8.83,-1.86 11.85,-4.87 3.01,-3.02 4.87,-7.21 4.87,-11.85 0,-4.64 -1.87,-8.83 -4.87,-11.85zm684.83 -118.29l-809.53 0c-6.81,0 -13.01,2.79 -17.51,7.29l-0.04 0c-4.47,4.47 -7.25,10.67 -7.25,17.51l0 343.96c0,6.84 2.78,13.04 7.25,17.51l0.04 0c4.5,4.5 10.7,7.29 17.51,7.29l809.53 0c6.81,0 13.01,-2.79 17.51,-7.29l0.04 0c4.47,-4.47 7.25,-10.67 7.25,-17.51l0 -343.96c0,-6.84 -2.78,-13.04 -7.25,-17.51l-0.04 0c-4.5,-4.5 -10.7,-7.29 -17.51,-7.29z"/>
 </g>
</svg>
