<?xml version="1.0" encoding="UTF-8"?>
<!DOCTYPE svg PUBLIC "-//W3C//DTD SVG 1.1//EN" "http://www.w3.org/Graphics/SVG/1.1/DTD/svg11.dtd">
<!-- Creator: CorelDRAW -->
<svg xmlns="http://www.w3.org/2000/svg" xml:space="preserve" width="65.6611mm" height="15.6352mm" version="1.1" style="shape-rendering:geometricPrecision; text-rendering:geometricPrecision; image-rendering:optimizeQuality; fill-rule:evenodd; clip-rule:evenodd"
viewBox="0 0 1849.92 440.5"
 xmlns:xlink="http://www.w3.org/1999/xlink"
 xmlns:xodm="http://www.corel.com/coreldraw/odm/2003">
 <defs>
  <style type="text/css">
   <![CDATA[
    .fil0 {fill:#2B2A29}
    .fil1 {fill:#FEFEFE;fill-rule:nonzero}
   ]]>
  </style>
 </defs>
 <g id="Layer_x0020_1">
  <metadata id="CorelCorpID_0Corel-Layer"/>
  <g id="_2680018094720">
   <path class="fil0" d="M64.45 53.99l49.6 0c4.54,-7.01 9.8,-13.5 15.68,-19.38 21.38,-21.38 50.92,-34.61 83.54,-34.61 32.62,0 62.16,13.23 83.54,34.61 5.88,5.88 11.14,12.37 15.68,19.38l1471.6 0c17.69,0 33.8,7.26 45.5,18.95l0.03 -0.03c10.63,10.63 17.59,24.95 18.75,40.82l1.39 19.06c0.11,1.56 0.17,3.13 0.17,4.71l0 238.56c0,17.74 -7.25,33.85 -18.92,45.53l-0.03 -0.03c-11.7,11.69 -27.81,18.95 -45.5,18.95l-1719.64 0c-17.69,0 -33.8,-7.26 -45.5,-18.95l-0.03 0.03c-10.63,-10.63 -17.59,-24.95 -18.75,-40.82l-1.39 -19.06c-0.11,-1.56 -0.17,-3.13 -0.17,-4.71l0 -238.56c0,-17.74 7.25,-33.85 18.92,-45.53l0.03 0.03c11.7,-11.69 27.81,-18.95 45.5,-18.95zm31.01 72.31c-0.01,-0.09 -0.01,-0.17 -0.02,-0.26l-0.02 -0.33c-0.19,-2.61 -0.29,-5.14 -0.29,-7.56 0,-5.18 0.34,-10.27 0.98,-15.27l-30.26 0c-9.55,0 -18.2,3.88 -24.45,10.13l0 0.06c-6.28,6.28 -10.18,14.94 -10.18,24.45l0 229.17c1.66,5.64 4.72,10.7 8.79,14.77l0.01 0.06c6.24,6.24 14.9,10.12 24.44,10.12l134.28 0c-5.88,-10.28 -11.85,-21 -17.64,-31.75 -6.19,-11.49 -12.86,-24.28 -19.84,-38.19 -18.12,-36.06 -35.63,-74.62 -47.74,-108.73 -9.13,-25.73 -15.33,-49.33 -16.7,-68.18l-1.35 -18.47zm235.63 -16.96c0.01,0.19 0.03,0.38 0.04,0.58l1.36 18.57c0.21,2.88 0.32,5.78 0.32,8.71 0,25.44 -12.04,63.97 -28.75,104.8 -22.22,54.31 -52.74,113.2 -73.44,149.62l1553.47 0c9.55,0 18.2,-3.88 24.45,-10.13l0 -0.06c6.28,-6.28 10.18,-14.94 10.18,-24.45l0 -229.17c-1.66,-5.64 -4.72,-10.7 -8.79,-14.77l-0.01 -0.06c-6.24,-6.24 -14.9,-10.12 -24.44,-10.12l-1455.05 0c0.28,2.14 0.5,4.3 0.66,6.47zm383.58 128.66c0,0.04 0.01,0.08 0.01,0.12 0.02,0.26 0.05,0.52 0.06,0.79l1.39 19.06c0.19,2.59 0.28,5.27 0.28,8.04 0,14.15 -2.5,26.32 -7.51,36.5 -5.01,10.18 -12.17,18.05 -21.47,23.62 -9.3,5.57 -20.47,8.35 -33.52,8.35 -18.29,0 -32.48,-5.49 -42.58,-16.46 -8.7,-9.45 -13.65,-22.44 -14.85,-38.96l-1.39 -19.06c-0.19,-2.67 -0.29,-5.42 -0.29,-8.27 0,-14.15 2.47,-26.32 7.4,-36.5 4.93,-10.18 12,-18.05 21.23,-23.62 9.22,-5.56 20.28,-8.35 33.16,-8.35 18.45,0 32.8,5.52 43.06,16.58 8.7,9.37 13.71,22.09 15.03,38.16zm137.4 0c0,0.04 0.01,0.08 0.01,0.12 0.02,0.26 0.05,0.52 0.06,0.79l1.39 19.06c0.19,2.59 0.28,5.27 0.28,8.04 0,14.15 -2.5,26.32 -7.51,36.5 -5.01,10.18 -12.17,18.05 -21.47,23.62 -9.3,5.57 -20.47,8.35 -33.52,8.35 -18.29,0 -32.48,-5.49 -42.58,-16.46 -8.7,-9.45 -13.65,-22.44 -14.85,-38.96l-1.39 -19.06c-0.19,-2.67 -0.29,-5.42 -0.29,-8.27 0,-14.15 2.47,-26.32 7.4,-36.5 4.93,-10.18 12,-18.05 21.23,-23.62 9.22,-5.56 20.28,-8.35 33.16,-8.35 18.45,0 32.8,5.52 43.06,16.58 8.7,9.37 13.71,22.09 15.03,38.16zm127.37 -13.96c0.01,0.09 0.01,0.18 0.02,0.27l1.36 18.57c0.1,1.3 0.14,2.65 0.14,4.05 0,14.47 -5.01,25.88 -15.03,34.23 -7.67,6.39 -17.29,10.33 -28.87,11.83l6.25 0c15.74,0 27.71,3.06 35.9,9.18 7.38,5.52 11.44,13.27 12.17,23.24l1.39 19.06c0.08,1.09 0.12,2.21 0.12,3.36 0,13.36 -5.69,23.62 -17.06,30.77 -11.37,7.16 -28.42,10.73 -51.17,10.73 -19.4,0 -33.87,-2.67 -43.41,-7.99 -8.83,-4.92 -13.57,-11.93 -14.23,-21l-1.39 -19.06c-0.05,-0.74 -0.08,-1.49 -0.08,-2.25 0,-7.63 2.62,-14.19 7.87,-19.68 1.55,-1.62 3.31,-3.16 5.29,-4.61l-1.2 -16.41c-0.03,-0.34 -0.04,-0.69 -0.04,-1.04 0,-1.27 0.2,-2.67 0.6,-4.18 0.4,-1.51 1.19,-3.5 2.38,-5.96 0.95,-1.96 2.15,-4.32 3.6,-7.08 -2.48,-2.36 -4.6,-5.02 -6.38,-7.97 -3.35,-5.57 -5.29,-11.95 -5.82,-19.15l-1.39 -19.06c-0.1,-1.34 -0.15,-2.71 -0.15,-4.1 0,-14.47 4.89,-25.84 14.67,-34.11 9.78,-8.27 23.34,-12.4 40.67,-12.4 10.82,0 20.21,1.62 28.18,4.85l35.27 -1.51 1.39 19.06 0.24 16.22 -11.3 2.15zm601.32 -7.36l0.01 0.12 1.39 19.02c0.1,1.43 0.16,2.91 0.16,4.43l0 53.32 15.55 4.19 1.39 19.06 0 14.79 -39.12 1.91 -3.41 -20.44c-6.11,6.92 -12.73,12.14 -19.85,15.67 -7.71,3.82 -15.39,5.72 -23.02,5.72 -9.7,0 -17.89,-3.14 -24.57,-9.42 -5.85,-5.5 -9.14,-13.23 -9.86,-23.18l-1.39 -19.06c-0.1,-1.41 -0.15,-2.87 -0.15,-4.37 0,-9.22 1.99,-16.46 5.96,-21.71 3.98,-5.25 9.58,-9.02 16.82,-11.33 0.68,-0.22 1.37,-0.42 2.07,-0.62l-14.63 0 -1.39 -19.06 -1.91 -33.4c10.34,-3.02 19.8,-5.29 28.39,-6.8 8.59,-1.51 16.54,-2.27 23.85,-2.27 14,0 24.81,3.06 32.44,9.18 6.73,5.4 10.49,13.47 11.29,24.24zm-212.75 -12.93c-2.84,-6.69 -6.84,-11.7 -12.03,-15.01 -5.72,-3.66 -12.24,-5.49 -19.56,-5.49 -7.79,0 -15.94,1.95 -24.45,5.84 -7.37,3.38 -14.41,8.15 -21.12,14.33l-3.09 -18.74 -39.12 1.91 0 14.79 1.39 19.06 15.55 4.16 0 68.86 -16.94 4.53 0 14.79 1.39 19.06 60.35 0 0 -14.79 -1.39 -19.06 -13.4 -3.8 0 -56.01c4.73,-4.38 9.58,-7.7 14.55,-9.98 5.72,-2.62 10.89,-3.94 15.51,-3.94 5.41,0 9.86,1.99 13.36,5.96 1.7,1.93 2.98,4.36 3.86,7.31l0 56.43 -14.79 4.03 0 14.79 1.39 19.06 58.44 0 0 -14.79 -1.39 -19.06 -13.64 -4.18 0 -55.31c4.84,-4.36 9.65,-7.71 14.43,-10.07 5.65,-2.78 10.86,-4.18 15.63,-4.18 5.41,0 9.86,1.99 13.36,5.96 1.7,1.93 2.98,4.36 3.86,7.31l0 56.43 -14.79 4.03 0 14.79 1.39 19.06 60.35 0 0 -14.79 -1.39 -19.06 -15.54 -4.31 0 -51.29c0,-1.9 -0.06,-3.72 -0.19,-5.48l-1.39 -19.06c-0.8,-10.93 -4.07,-19.2 -9.83,-24.81 -6.68,-6.52 -15.03,-9.78 -25.05,-9.78 -7.63,0 -15.78,1.99 -24.45,5.96 -7.47,3.43 -14.55,8.27 -21.25,14.53zm238.44 -2.36l0 -14.79 39.12 -1.91 2.72 16.88c6.47,-5.6 12.88,-9.96 19.23,-13.06 7.16,-3.5 14.47,-5.25 21.95,-5.25 9.22,0 17.33,2.43 24.33,7.27 7,4.85 12.52,12.01 16.58,21.47 3.14,7.32 5.06,15.84 5.77,25.58l1.39 19.06c0.21,2.86 0.31,5.82 0.31,8.89 0,15.26 -2.58,27.99 -7.75,38.16 -5.17,10.18 -12.4,17.85 -21.71,23.02 -9.3,5.17 -20.16,7.75 -32.56,7.75 -4.14,0 -8.35,-0.32 -12.64,-0.95 -3.13,-0.46 -6.39,-1.01 -9.78,-1.65l0 16.43 18.41 4.56 1.39 19.06 0 14.79 -65.36 0 -1.39 -19.06 0 -14.79 16.94 -5.06 0 -123.19 -15.54 -4.16 -1.39 -19.06zm64.41 93.51c-5.31,0 -11.13,-0.76 -17.45,-2.27l0 -57.25c4.14,-3.5 8.15,-6.21 12.05,-8.13 5.01,-2.47 9.82,-3.7 14.43,-3.7 5.89,0 10.89,1.83 15.03,5.49 4.14,3.66 7.36,8.82 9.66,15.5 0.82,2.38 1.5,4.92 2.03,7.62 -0.37,12.81 -3.3,23 -8.78,30.56 -5.88,8.11 -14.87,12.17 -26.95,12.17zm-161.48 -7.45c0.55,0.91 1.18,1.72 1.9,2.44 3.02,3.02 6.92,4.53 11.69,4.53 4.61,0 9.62,-1.43 15.03,-4.29 4.9,-2.59 9.67,-5.97 14.31,-10.14l0 -2.53 -19.36 0c-9.38,0 -15.86,1.43 -19.44,4.29 -1.86,1.49 -3.23,3.38 -4.13,5.69zm-2.78 -43.6c5.96,-1.27 12.76,-1.9 20.42,-1.9l25.29 0 0 -6.21c-0.99,-2.94 -2.52,-5.29 -4.57,-7.05 -3.98,-3.42 -9.62,-5.13 -16.94,-5.13 -3.66,0 -7.51,0.36 -11.57,1.07 -3.2,0.56 -6.63,1.4 -10.27,2.51l-2.36 16.7zm-507.47 -99.46l0 -14.79 45.32 -1.91 1.39 19.06 0 147.22 15.55 4.03 1.39 19.06 0 14.79 -62.26 0 -1.39 -19.06 0 -14.79 16.7 -4.38 0 -126.3 -15.3 -3.87 -1.39 -19.06zm113.09 91.6l43.38 0c-1.52,-3.25 -3.6,-5.96 -6.23,-8.13 -3.66,-3.02 -8.51,-4.53 -14.55,-4.53 -6.84,0 -12.44,1.91 -16.82,5.72 -2.24,1.96 -4.17,4.27 -5.78,6.94zm-37.43 23.5c-0.19,-2.58 -0.28,-5.25 -0.28,-8 0,-14.15 2.5,-26.32 7.51,-36.5 5.01,-10.18 12.08,-18.01 21.23,-23.5 9.15,-5.49 20,-8.23 32.56,-8.23 11.93,0 21.67,2.43 29.22,7.27 7.55,4.85 13.16,11.49 16.82,19.92 2.89,6.66 4.64,14.01 5.24,22.06l0 0.04c0,0.05 0.01,0.1 0.01,0.16l1.39 19.06c0.15,2.08 0.23,4.2 0.23,6.37 0,2.39 -0.08,4.77 -0.24,7.16 -0.16,2.39 -0.48,5.01 -0.96,7.87l-79.31 0c2.39,6.2 5.94,11.13 10.65,14.81 5.09,3.98 11.53,5.96 19.32,5.96 5.56,0 11.61,-1.03 18.13,-3.1 6.52,-2.07 13.28,-5.25 20.28,-9.54l9.78 15.5 1.39 19.06c-9.07,6.2 -18.29,10.86 -27.67,13.95 -9.38,3.1 -18.53,4.65 -27.43,4.65 -11.13,0 -20.99,-2.42 -29.58,-7.27 -8.59,-4.85 -15.27,-12.05 -20.04,-21.59 -3.82,-7.65 -6.11,-16.67 -6.87,-27.07l-1.39 -19.06zm-150.56 -4.42c8.59,0 15.23,-2.27 19.92,-6.8 3.39,-3.27 5.55,-7.64 6.49,-13.11 -1.08,-2.87 -2.62,-5.27 -4.62,-7.19 -4.37,-4.21 -10.77,-6.32 -19.2,-6.32 -8.59,0 -15.11,2.23 -19.56,6.68 -3.2,3.2 -5.25,7.47 -6.15,12.8 1.04,2.83 2.51,5.25 4.4,7.25 4.21,4.45 10.46,6.68 18.73,6.68zm1.43 94.46c13.36,0 23.1,-1.51 29.22,-4.53 2.88,-1.42 5.08,-3.19 6.6,-5.31 -0.72,-0.73 -1.55,-1.39 -2.47,-1.99 -4.29,-2.78 -10.57,-4.17 -18.85,-4.17l-35.85 0c-4.23,3.03 -7.36,6.19 -9.42,9.46 1.16,0.98 2.54,1.85 4.16,2.6 5.65,2.62 14.51,3.94 26.6,3.94zm-19.69 -56.53l0.3 -1.72c2.89,0.75 5.85,1.32 8.86,1.72l-9.16 0zm-671.99 -175.12c2.27,2.27 4.13,4.95 5.49,7.92 -1.29,4.48 -3.69,8.47 -6.88,11.68l-0.03 -0.03c-4.93,4.93 -11.76,7.99 -19.3,7.99 -7.54,0 -14.36,-3.05 -19.3,-7.99l-0.03 0.03c-2.27,-2.27 -4.13,-4.95 -5.49,-7.92 1.29,-4.48 3.69,-8.48 6.88,-11.68l0.03 0.03c4.93,-4.93 11.76,-7.99 19.3,-7.99 7.54,0 14.36,3.05 19.3,7.99l0.03 -0.03zm588.85 132.52c-0.15,9.15 -1.34,16.95 -3.56,23.4 -2.38,6.92 -5.88,12.17 -10.49,15.74 -4.61,3.58 -10.42,5.37 -17.41,5.37 -9.7,0 -17.01,-3.58 -21.94,-10.73 -2.79,-4.05 -4.79,-9.41 -6,-16.1 0.14,-14.79 2.72,-25.96 7.75,-33.54 5.17,-7.79 12.76,-11.69 22.78,-11.69 9.86,0 17.37,3.7 22.54,11.09 2.96,4.24 5.08,9.73 6.34,16.46zm-318.95 84.08c8.91,0 18.41,-1.11 28.5,-3.34 10.1,-2.23 20.56,-5.49 31.37,-9.78l0 -52.97 18.13 -4.28 0 -15.51 -1.39 -19.06 -63.93 1.19 0 15.26 1.39 19.06 17.21 2.99 0 19.24c-4.62,1.5 -9.11,2.73 -13.48,3.68 -5.49,1.19 -10.77,1.79 -15.86,1.79 -15.9,0 -28.11,-5.52 -36.61,-16.58 -5.7,-7.4 -9.49,-16.78 -11.37,-28.14 0.08,-13.64 2.1,-25.18 6.08,-34.61 4.05,-9.62 9.86,-16.9 17.41,-21.83 7.55,-4.93 16.66,-7.4 27.31,-7.4 5.41,0 11.21,0.64 17.41,1.91 4.83,0.99 9.62,2.23 14.36,3.7l4.48 25.4 17.65 0 2.15 -41.03 -1.39 -19.06c-10.02,-4.13 -19.92,-7.24 -29.7,-9.3 -9.78,-2.07 -19.2,-3.1 -28.27,-3.1 -16.7,0 -31.05,3.46 -43.06,10.38 -12,6.92 -21.23,16.9 -27.67,29.94 -6.44,13.04 -9.66,28.79 -9.66,47.23 0,3.72 0.13,7.32 0.38,10.8l1.39 19.06c1.02,13.93 4.07,25.96 9.16,36.07 6.36,12.64 15.39,22.18 27.07,28.62 11.69,6.44 25.33,9.66 40.91,9.66zm122.14 -66.41c1.21,6.69 3.21,12.05 6,16.1 4.93,7.16 12.24,10.73 21.94,10.73 7,0 12.8,-1.79 17.41,-5.37 4.61,-3.58 8.11,-8.83 10.49,-15.74 2.23,-6.45 3.41,-14.25 3.56,-23.4 -1.27,-6.73 -3.38,-12.22 -6.34,-16.46 -5.17,-7.39 -12.68,-11.09 -22.54,-11.09 -10.02,0 -17.61,3.9 -22.78,11.69 -5.02,7.57 -7.6,18.75 -7.75,33.54zm-372.37 -190.24c9.4,9.41 15.54,22.07 16.57,36.12l1.39 19.06c0.1,1.38 0.15,2.78 0.15,4.2 0,15.73 -6.4,29.99 -16.73,40.32l0 0.06c-10.33,10.33 -24.61,16.73 -40.38,16.73 -15.77,0 -30.04,-6.4 -40.38,-16.73l-0.01 -0.06c-9.4,-9.41 -15.54,-22.07 -16.57,-36.12l-1.39 -19.06c-0.1,-1.39 -0.15,-2.78 -0.15,-4.2 0,-15.73 6.39,-29.99 16.73,-40.32l0 -0.06c10.33,-10.33 24.61,-16.73 40.38,-16.73 15.77,0 30.04,6.4 40.38,16.73l0.01 0.06zm-127.26 56.29c2.29,14.19 7.19,31.26 13.79,49.87 11.78,33.19 28.73,70.52 46.23,105.36 6.11,12.17 12.73,24.8 19.49,37.37l7.32 13.45c19.38,-35.45 43.68,-83.73 61.95,-128.4 14.66,-35.83 25.41,-69.08 26.34,-90.65 -3.3,-17.94 -12.02,-33.99 -24.4,-46.37 -15.98,-15.98 -38.07,-25.87 -62.46,-25.87 -24.39,0 -46.48,9.89 -62.46,25.87 -15.3,15.3 -25.01,36.2 -25.81,59.37z"/>
  </g>
  <path class="fil1" d="M64.45 53.99l49.6 0c4.54,-7.01 9.8,-13.5 15.68,-19.38 21.38,-21.38 50.92,-34.61 83.54,-34.61 32.62,0 62.16,13.23 83.54,34.61 5.88,5.88 11.14,12.37 15.68,19.38l1471.6 0c17.69,0 33.8,7.26 45.5,18.95l0.03 -0.03c11.67,11.67 18.92,27.79 18.92,45.53l0 238.56c0,17.74 -7.25,33.85 -18.92,45.53l-0.03 -0.03c-11.7,11.69 -27.81,18.95 -45.5,18.95l-1719.64 0c-17.69,0 -33.8,-7.26 -45.5,-18.95l-0.03 0.03c-11.67,-11.67 -18.92,-27.79 -18.92,-45.53l0 -238.56c0,-17.74 7.25,-33.85 18.92,-45.53l0.03 0.03c11.7,-11.69 27.81,-18.95 45.5,-18.95zm35.74 29.82l-35.74 0c-9.55,0 -18.2,3.88 -24.45,10.13l0 0.06c-6.28,6.28 -10.18,14.94 -10.18,24.45l0 238.56c0,9.51 3.9,18.17 10.18,24.45l0 0.06c6.24,6.25 14.9,10.13 24.45,10.13l143.88 0 -7.93 -13.73c-6.86,-11.88 -13.9,-24.46 -20.7,-37.08 -6.19,-11.49 -12.86,-24.28 -19.84,-38.19 -18.12,-36.06 -35.63,-74.62 -47.74,-108.73 -10.4,-29.3 -16.99,-55.84 -16.99,-75.74 0,-11.94 1.77,-23.47 5.07,-34.34zm118.05 307.81l1565.85 0c9.55,0 18.2,-3.88 24.45,-10.13l0 -0.06c6.28,-6.28 10.18,-14.94 10.18,-24.45l0 -238.56c0,-9.51 -3.9,-18.17 -10.18,-24.45l0 -0.06c-6.24,-6.25 -14.9,-10.13 -24.45,-10.13l-1457.75 0c3.3,10.87 5.07,22.4 5.07,34.34 0,25.44 -12.04,63.97 -28.75,104.8 -23.35,57.07 -55.86,119.21 -76.53,155l-7.9 13.68zm57.49 -335.94c-15.98,-15.98 -38.07,-25.87 -62.46,-25.87 -24.39,0 -46.48,9.89 -62.46,25.87 -15.98,15.98 -25.87,38.07 -25.87,62.46 0,16.35 5.92,39.56 15.24,65.84 11.78,33.19 28.73,70.52 46.23,105.36 6.11,12.17 12.73,24.8 19.49,37.37l7.32 13.45c19.38,-35.45 43.68,-83.73 61.95,-128.4 15.35,-37.52 26.42,-72.21 26.42,-93.62 0,-24.39 -9.89,-46.48 -25.87,-62.46zm-62.46 5.35c15.77,0 30.04,6.4 40.38,16.73l0 0.06c10.33,10.34 16.73,24.6 16.73,40.32 0,15.73 -6.4,29.99 -16.73,40.32l0 0.06c-10.33,10.33 -24.61,16.73 -40.38,16.73 -15.77,0 -30.04,-6.4 -40.38,-16.73l0 -0.06c-10.33,-10.34 -16.73,-24.6 -16.73,-40.32 0,-15.73 6.39,-29.99 16.73,-40.32l0 -0.06c10.33,-10.33 24.61,-16.73 40.38,-16.73zm19.32 37.78l-0.03 0.03c-4.93,-4.93 -11.76,-7.99 -19.3,-7.99 -7.54,0 -14.36,3.05 -19.3,7.99l-0.03 -0.03c-4.92,4.93 -7.96,11.77 -7.96,19.33 0,7.56 3.04,14.39 7.96,19.33l0.03 -0.03c4.93,4.93 11.76,7.99 19.3,7.99 7.54,0 14.36,-3.05 19.3,-7.99l0.03 0.03c4.92,-4.93 7.96,-11.77 7.96,-19.33 0,-7.56 -3.04,-14.4 -7.96,-19.33zm269.9 216.6c-15.59,0 -29.22,-3.22 -40.91,-9.66 -11.69,-6.44 -20.71,-15.98 -27.07,-28.62 -6.36,-12.64 -9.54,-28.27 -9.54,-46.87 0,-18.45 3.22,-34.19 9.66,-47.23 6.44,-13.04 15.66,-23.02 27.67,-29.94 12.01,-6.92 26.36,-10.38 43.06,-10.38 9.06,0 18.48,1.03 28.27,3.1 9.78,2.07 19.68,5.17 29.7,9.3l-2.15 41.03 -17.65 0 -5.01 -28.39 4.53 4.29c-6.04,-2.07 -12.17,-3.74 -18.37,-5.01 -6.2,-1.27 -12.01,-1.91 -17.41,-1.91 -10.66,0 -19.76,2.47 -27.31,7.4 -7.55,4.93 -13.36,12.2 -17.41,21.83 -4.05,9.62 -6.08,21.43 -6.08,35.42 0,19.88 4.25,35.34 12.76,46.4 8.51,11.05 20.71,16.58 36.61,16.58 5.09,0 10.38,-0.6 15.86,-1.79 5.49,-1.19 11.17,-2.82 17.06,-4.89l-3.58 6.2 0 -47.47 4.77 5.25 -23.38 -4.06 0 -15.26 63.93 -1.19 0 15.51 -21.23 5.01 3.1 -5.25 0 57.49c-10.81,4.29 -21.27,7.55 -31.37,9.78 -10.1,2.23 -19.6,3.34 -28.5,3.34zm154.1 -132.15c18.45,0 32.8,5.52 43.06,16.58 10.26,11.05 15.39,26.76 15.39,47.11 0,14.15 -2.5,26.32 -7.51,36.5 -5.01,10.18 -12.17,18.05 -21.47,23.62 -9.3,5.57 -20.47,8.35 -33.52,8.35 -18.29,0 -32.48,-5.49 -42.58,-16.46 -10.1,-10.97 -15.15,-26.71 -15.15,-47.23 0,-14.15 2.47,-26.32 7.4,-36.5 4.93,-10.18 12,-18.05 21.23,-23.62 9.22,-5.56 20.28,-8.35 33.16,-8.35zm-1.43 20.51c-10.02,0 -17.61,3.9 -22.78,11.69 -5.17,7.79 -7.75,19.4 -7.75,34.83 0,15.43 2.47,26.72 7.4,33.87 4.93,7.16 12.24,10.73 21.94,10.73 7,0 12.8,-1.79 17.41,-5.37 4.61,-3.58 8.11,-8.83 10.49,-15.74 2.39,-6.92 3.58,-15.39 3.58,-25.4 0,-14.95 -2.58,-26.12 -7.75,-33.52 -5.17,-7.39 -12.68,-11.09 -22.54,-11.09zm138.83 -20.51c18.45,0 32.8,5.52 43.06,16.58 10.26,11.05 15.39,26.76 15.39,47.11 0,14.15 -2.5,26.32 -7.51,36.5 -5.01,10.18 -12.17,18.05 -21.47,23.62 -9.3,5.57 -20.47,8.35 -33.52,8.35 -18.29,0 -32.48,-5.49 -42.58,-16.46 -10.1,-10.97 -15.15,-26.71 -15.15,-47.23 0,-14.15 2.47,-26.32 7.4,-36.5 4.93,-10.18 12,-18.05 21.23,-23.62 9.22,-5.56 20.28,-8.35 33.16,-8.35zm-1.43 20.51c-10.02,0 -17.61,3.9 -22.78,11.69 -5.17,7.79 -7.75,19.4 -7.75,34.83 0,15.43 2.47,26.72 7.4,33.87 4.93,7.16 12.24,10.73 21.94,10.73 7,0 12.8,-1.79 17.41,-5.37 4.61,-3.58 8.11,-8.83 10.49,-15.74 2.39,-6.92 3.58,-15.39 3.58,-25.4 0,-14.95 -2.58,-26.12 -7.75,-33.52 -5.17,-7.39 -12.68,-11.09 -22.54,-11.09zm130.72 166.5c-19.4,0 -33.87,-2.67 -43.41,-7.99 -9.54,-5.32 -14.31,-13.08 -14.31,-23.26 0,-7.63 2.62,-14.19 7.87,-19.68 5.25,-5.49 12.96,-10.06 23.14,-13.72l-0.24 5.72c-5.72,-0.32 -10.3,-1.71 -13.72,-4.18 -3.42,-2.47 -5.13,-5.76 -5.13,-9.9 0,-1.27 0.2,-2.67 0.6,-4.18 0.4,-1.51 1.19,-3.5 2.38,-5.96 1.19,-2.47 2.78,-5.56 4.77,-9.3 1.99,-3.74 4.65,-8.47 7.99,-14.19l0.24 4.77c-7.47,-3.66 -13.2,-8.79 -17.17,-15.39 -3.98,-6.6 -5.96,-14.35 -5.96,-23.26 0,-14.47 4.89,-25.84 14.67,-34.11 9.78,-8.27 23.34,-12.4 40.67,-12.4 12.24,0 22.66,2.07 31.25,6.2l-6.92 -1.19 39.12 -1.67 0.24 16.22 -20.04 3.81 1.91 -3.34c2.7,2.86 4.77,6.32 6.2,10.38 1.43,4.05 2.15,8.78 2.15,14.19 0,14.47 -5.01,25.88 -15.03,34.23 -10.02,8.35 -23.38,12.52 -40.07,12.52 -8.59,0 -16.7,-1.27 -24.33,-3.81l5.49 -2.86 -4.77 27.43 -4.77 -2.38 47.23 0c15.74,0 27.71,3.06 35.9,9.18 8.19,6.12 12.29,14.99 12.29,26.6 0,13.36 -5.69,23.62 -17.06,30.77 -11.37,7.16 -28.42,10.73 -51.17,10.73zm2.39 -20.75c13.36,0 23.1,-1.51 29.22,-4.53 6.12,-3.02 9.18,-7.63 9.18,-13.84 0,-5.56 -2.15,-9.74 -6.44,-12.52 -4.29,-2.78 -10.57,-4.17 -18.85,-4.17l-40.31 0 6.92 -1.67c-9.86,6.36 -14.79,13.28 -14.79,20.75 0,5.41 2.82,9.42 8.47,12.05 5.65,2.62 14.51,3.94 26.6,3.94zm-1.43 -94.46c8.59,0 15.23,-2.27 19.92,-6.8 4.69,-4.53 7.04,-11.17 7.04,-19.92 0,-8.75 -2.19,-15.23 -6.56,-19.44 -4.37,-4.21 -10.77,-6.32 -19.2,-6.32 -8.59,0 -15.11,2.23 -19.56,6.68 -4.45,4.45 -6.68,10.97 -6.68,19.56 0,8.59 2.11,15.11 6.32,19.56 4.21,4.45 10.46,6.68 18.73,6.68zm120.22 40.55l-2.38 -2.62 19.32 5.01 0 14.79 -62.26 0 0 -14.79 19.08 -5.01 -2.39 2.62 0 -148.85 2.15 2.38 -18.84 -4.77 0 -14.79 45.32 -1.91 0 167.93zm86.83 19.8c-11.13,0 -20.99,-2.42 -29.58,-7.27 -8.59,-4.85 -15.27,-12.05 -20.04,-21.59 -4.77,-9.54 -7.16,-21.23 -7.16,-35.07 0,-14.15 2.5,-26.32 7.51,-36.5 5.01,-10.18 12.08,-18.01 21.23,-23.5 9.15,-5.49 20,-8.23 32.56,-8.23 11.93,0 21.67,2.43 29.22,7.27 7.55,4.85 13.16,11.49 16.82,19.92 3.66,8.43 5.49,17.97 5.49,28.62 0,2.39 -0.08,4.77 -0.24,7.16 -0.16,2.39 -0.48,5.01 -0.96,7.87l-88.74 0 0 -18.13 63.69 0 -3.34 2.15c0.16,-6.36 -0.52,-12.09 -2.03,-17.17 -1.51,-5.09 -4.1,-9.14 -7.75,-12.17 -3.66,-3.02 -8.51,-4.53 -14.55,-4.53 -6.84,0 -12.44,1.91 -16.82,5.72 -4.37,3.81 -7.55,8.98 -9.54,15.5 -1.99,6.52 -2.98,13.92 -2.98,22.18 0,9.06 1.19,17.06 3.58,23.97 2.39,6.92 6.12,12.37 11.21,16.34 5.09,3.98 11.53,5.96 19.32,5.96 5.56,0 11.61,-1.03 18.13,-3.1 6.52,-2.07 13.28,-5.25 20.28,-9.54l9.78 15.5c-9.07,6.2 -18.29,10.86 -27.67,13.95 -9.38,3.1 -18.53,4.65 -27.43,4.65zm237.59 -109.49l-4.06 0.96c7.64,-7.79 15.78,-13.68 24.45,-17.65 8.67,-3.98 16.82,-5.96 24.45,-5.96 10.02,0 18.37,3.26 25.05,9.78 6.68,6.52 10.02,16.62 10.02,30.3l0 73.47 -2.86 -4.29 19.8 5.49 0 14.79 -60.35 0 0 -14.79 18.37 -5.01 -3.58 4.53 0 -67.98c0,-8.27 -1.75,-14.39 -5.25,-18.37 -3.5,-3.98 -7.95,-5.96 -13.36,-5.96 -4.77,0 -9.98,1.39 -15.63,4.18 -5.65,2.78 -11.33,6.96 -17.05,12.52l2.15 -6.44c0.32,1.27 0.48,2.47 0.48,3.58 0,1.11 0,2.15 0,3.1l0 74.66 -2.86 -4.29 17.89 5.49 0 14.79 -58.44 0 0 -14.79 18.37 -5.01 -3.58 4.53 0 -67.98c0,-8.27 -1.75,-14.39 -5.25,-18.37 -3.5,-3.98 -7.95,-5.96 -13.36,-5.96 -4.61,0 -9.78,1.31 -15.51,3.94 -5.72,2.63 -11.29,6.64 -16.7,12.05l2.15 -4.53 0 80.86 -2.86 -4.53 17.65 5.01 0 14.79 -60.35 0 0 -14.79 20.52 -5.49 -3.58 4.29 0 -94.7 3.58 4.77 -20.52 -5.49 0 -14.79 39.12 -1.91 3.81 23.14 -3.81 -1.43c7.63,-7.64 15.7,-13.4 24.21,-17.3 8.51,-3.9 16.66,-5.84 24.45,-5.84 7.31,0 13.83,1.83 19.56,5.49 5.73,3.66 10.02,9.38 12.88,17.17zm212.06 91.84l-4.29 -5.72 21.23 5.72 0 14.79 -39.12 1.91 -3.82 -22.9 1.91 0.72c-6.52,7.79 -13.64,13.6 -21.35,17.41 -7.71,3.82 -15.39,5.72 -23.02,5.72 -9.7,0 -17.89,-3.14 -24.57,-9.42 -6.68,-6.28 -10.02,-15.46 -10.02,-27.55 0,-9.22 1.99,-16.46 5.96,-21.71 3.98,-5.25 9.58,-9.02 16.82,-11.33 7.24,-2.31 16.02,-3.46 26.36,-3.46l27.43 0 -2.15 2.62 0 -18.13c0,-7.79 -1.99,-13.4 -5.96,-16.82 -3.98,-3.42 -9.62,-5.13 -16.94,-5.13 -3.66,0 -7.51,0.36 -11.57,1.07 -4.06,0.72 -8.47,1.87 -13.24,3.46l3.34 -3.58 -2.86 20.28 -18.37 0 -1.91 -33.4c10.34,-3.02 19.8,-5.29 28.39,-6.8 8.59,-1.51 16.54,-2.27 23.85,-2.27 14,0 24.81,3.06 32.44,9.18 7.63,6.12 11.45,15.7 11.45,28.75l0 76.57zm-74.18 -21.94c0,6.36 1.51,11.05 4.53,14.07 3.02,3.02 6.92,4.53 11.69,4.53 4.61,0 9.62,-1.43 15.03,-4.29 5.41,-2.86 10.66,-6.68 15.74,-11.45l-1.43 5.72 0 -28.39 2.15 2.39 -22.9 0c-9.38,0 -15.86,1.43 -19.44,4.29 -3.58,2.86 -5.37,7.24 -5.37,13.12zm99.71 91.84l0 -14.79 20.75 -6.2 -3.82 5.01 0 -148.85 3.58 4.05 -20.51 -5.49 0 -14.79 39.12 -1.91 3.34 20.75 -3.1 -1.67c7.31,-6.68 14.55,-11.77 21.71,-15.27 7.16,-3.5 14.47,-5.25 21.95,-5.25 9.22,0 17.33,2.43 24.33,7.27 7,4.85 12.52,12.01 16.58,21.47 4.06,9.46 6.08,20.95 6.08,34.47 0,15.26 -2.58,27.99 -7.75,38.16 -5.17,10.18 -12.4,17.85 -21.71,23.02 -9.3,5.17 -20.16,7.75 -32.56,7.75 -4.14,0 -8.35,-0.32 -12.64,-0.95 -4.29,-0.64 -8.82,-1.43 -13.6,-2.39l3.82 -3.58 0 43.18 -3.34 -4.53 23.14 5.72 0 14.79 -65.36 0zm64.41 -72.75c12.09,0 21.07,-4.05 26.95,-12.17 5.89,-8.11 8.83,-19.24 8.83,-33.39 0,-9.22 -1.15,-17.17 -3.46,-23.85 -2.3,-6.68 -5.52,-11.85 -9.66,-15.5 -4.13,-3.66 -9.14,-5.49 -15.03,-5.49 -4.61,0 -9.42,1.23 -14.43,3.7 -5.01,2.46 -10.22,6.24 -15.63,11.33l3.58 -7.87 0 85.4 -3.58 -5.72c8.27,2.39 15.74,3.58 22.42,3.58z"/>
 </g>
</svg>
