<?xml version="1.0" encoding="UTF-8"?>
<!DOCTYPE svg PUBLIC "-//W3C//DTD SVG 1.1//EN" "http://www.w3.org/Graphics/SVG/1.1/DTD/svg11.dtd">
<!-- Creator: CorelDRAW -->
<svg xmlns="http://www.w3.org/2000/svg" xml:space="preserve" width="30.6549mm" height="21.4828mm" version="1.1" style="shape-rendering:geometricPrecision; text-rendering:geometricPrecision; image-rendering:optimizeQuality; fill-rule:evenodd; clip-rule:evenodd"
viewBox="0 0 460.52 322.73"
 xmlns:xlink="http://www.w3.org/1999/xlink"
 xmlns:xodm="http://www.corel.com/coreldraw/odm/2003">
 <defs>
  <style type="text/css">
   <![CDATA[
    .fil0 {fill:#2B2A29}
    .fil1 {fill:#FEFEFE;fill-rule:nonzero}
   ]]>
  </style>
 </defs>
 <g id="Layer_x0020_1">
  <metadata id="CorelCorpID_0Corel-Layer"/>
  <g id="_2687115192352">
   <path class="fil0" d="M332.8 54.19l-3.54 -5.07 -15.02 0.73 0 5.68 6.5 9.3 0 26.06 -6.5 1.72 0 5.68 8.67 12.4 25.46 0 0 -5.68 -7.97 -11.4 0 -18.27c1.35,-1.52 2.83,-2.79 4.44,-3.8 1.15,-0.73 2.32,-1.24 3.5,-1.55l5.34 7.63 6.41 0 0.61 -13.07 2.42 3.46 0.62 0.13 12.05 30.43c-0.97,2.59 -1.93,4.8 -2.88,6.63 -1.25,2.41 -2.75,4.2 -4.49,5.36 -1.74,1.16 -4.02,1.74 -6.82,1.74 -0.67,0 -1.39,-0.03 -2.15,-0.09 -0.76,-0.06 -1.6,-0.15 -2.52,-0.27l-1.01 7.87 8.67 12.4c2.44,0.37 4.61,0.55 6.5,0.55 3.24,0 6.04,-0.52 8.42,-1.56 2.38,-1.04 4.44,-2.53 6.18,-4.49 1.74,-1.95 3.3,-4.27 4.67,-6.96 1.37,-2.69 2.67,-5.74 3.89,-9.16l15.25 -41.96 4.62 -1.35 0 -5.68 -8.67 -12.4 -20.88 0.73 0 5.68 4.35 6.22 -6.01 18.71 -4.05 -11.83 6.14 -1.43 0 -5.68 -8.67 -12.4 -21.89 0.73 0 2.82 -2.29 -3.28c-2.13,-0.61 -4.18,-0.91 -6.13,-0.91 -3.11,0 -6,0.78 -8.65,2.33 -1.51,0.88 -3.03,1.98 -4.56,3.28zm-180.88 1.76c0.03,0.05 0.06,0.09 0.09,0.14l8.52 12.18c0.67,0.96 1.26,2.01 1.75,3.14 1.4,3.23 2.11,6.9 2.11,10.99 0,0.91 -0.03,1.83 -0.09,2.75 -0.06,0.92 -0.18,1.92 -0.37,3.02l-10.96 0 7.3 10.44 3.76 5.95c-3.48,2.38 -7.02,4.17 -10.62,5.36 -3.6,1.19 -7.11,1.79 -10.53,1.79 -4.27,0 -8.06,-0.93 -11.35,-2.79 -2.42,-1.36 -4.44,-3.21 -6.07,-5.54l-8.67 -12.4c-0.59,-0.85 -1.14,-1.77 -1.63,-2.75 -0.69,-1.38 -1.25,-2.87 -1.68,-4.48 -0.55,4.56 -1.73,8.55 -3.53,11.97 -2.59,4.91 -6.21,8.64 -10.85,11.17 -4.64,2.53 -10.04,3.8 -16.21,3.8l-26.56 0 -8.67 -12.4 0 -5.68 7.14 -1.86 0 -40.39 -7.14 -10.22 0 -5.68 19.6 -0.46 8.79 0c4.33,0 8.29,0.64 11.86,1.92 3.57,1.28 6.64,3.22 9.2,5.82 0.94,0.95 1.8,1.98 2.58,3.1l8.67 12.4c1.36,1.95 2.48,4.15 3.38,6.61 0.49,1.35 0.9,2.79 1.21,4.3 0.47,-2.71 1.25,-5.18 2.35,-7.4 1.92,-3.91 4.64,-6.92 8.15,-9.02 3.51,-2.11 7.68,-3.16 12.5,-3.16 4.58,0 8.32,0.93 11.22,2.79 1.89,1.21 3.46,2.71 4.71,4.51l0.05 0.08zm43.57 -17.22c-0.01,-0.02 -0.02,-0.03 -0.03,-0.05l-0.07 -0.1c-0.74,-1.06 -1.11,-2.4 -1.11,-4.02 0,-2.26 0.64,-3.95 1.92,-5.08 1.28,-1.13 2.9,-1.69 4.85,-1.69 1.89,0 3.47,0.55 4.72,1.65 0.29,0.26 0.55,0.55 0.78,0.87l8.67 12.4c0.73,1.05 1.1,2.44 1.1,4.17 0,1.14 -0.17,2.13 -0.52,2.99l18.87 -0.64 8.67 12.4 0 5.68 -5.99 1.52 3.57 12.62 6.28 -19.69 -4.27 -6.12 0 -5.68 20.15 -0.73 6.04 8.64c1.72,-2.53 3.88,-4.57 6.46,-6.12 3.51,-2.11 7.68,-3.16 12.5,-3.16 4.58,0 8.32,0.93 11.22,2.79 1.89,1.21 3.46,2.71 4.71,4.51l0.05 0.08c0.03,0.05 0.06,0.09 0.09,0.14l8.52 12.18c0.67,0.96 1.26,2.01 1.75,3.14 1.4,3.23 2.11,6.9 2.11,10.99 0,0.91 -0.03,1.83 -0.09,2.75 -0.06,0.92 -0.18,1.92 -0.37,3.02l-10.96 0 7.3 10.44 3.76 5.95c-3.48,2.38 -7.02,4.17 -10.62,5.36 -3.6,1.19 -7.11,1.79 -10.53,1.79 -4.27,0 -8.06,-0.93 -11.35,-2.79 -2.42,-1.36 -4.44,-3.21 -6.07,-5.54l-8.67 -12.4c-0.59,-0.85 -1.14,-1.77 -1.63,-2.75 -1.6,-3.21 -2.51,-7.05 -2.71,-11.52l-12.16 34.17 -12.91 0 -8.67 -12.4 -10.2 -32.03 -7.57 -10.83 0 -2.85c-0.92,0.47 -1.95,0.73 -3.11,0.77l5.64 8.06 0 34.24 6.41 9.17 0 5.68 -23.9 0 -8.67 -12.4 0 -5.68 6.5 -1.71 0 -26.08 -6.5 -9.3 0 -5.68 13.5 -0.5 -7.43 -10.63zm-49.25 199.04l-2.56 -15.57 59.71 -85.53 26.37 2.2 8.67 12.4 0 69.11 11.3 0 8.67 12.4 0 17.4 -19.96 0 0 29.67 -22.53 0 -8.67 -12.4 0 -17.27 -52.32 0 -8.67 -12.4zm-13.49 -147.28c-0.11,-0.75 -0.19,-1.52 -0.24,-2.32l15.54 0c-1.44,0.7 -2.85,1.27 -4.23,1.71 -2.5,0.79 -4.82,1.19 -6.96,1.19 -1.5,0 -2.87,-0.19 -4.1,-0.57zm-40.54 -34.28c0.58,2.67 0.87,5.87 0.87,9.58 0,5.01 -0.53,9.1 -1.6,12.27 -1.07,3.17 -2.49,5.63 -4.26,7.37 -1.77,1.74 -3.72,2.96 -5.86,3.66 -2.14,0.7 -4.33,1.05 -6.59,1.05l-0.03 0 0 -35.59 9.61 0c2.14,0 4.23,0.34 6.27,1.01 0.54,0.18 1.07,0.39 1.59,0.64zm192.65 34.28c-0.11,-0.75 -0.19,-1.52 -0.24,-2.32l15.54 0c-1.44,0.7 -2.85,1.27 -4.23,1.71 -2.5,0.79 -4.82,1.19 -6.96,1.19 -1.5,0 -2.87,-0.19 -4.1,-0.57zm152.4 -56.04c2.03,4.65 3.15,9.76 3.15,15.13l0 211.18c0,10.48 -4.29,20.01 -11.2,26.93 -6.91,6.91 -16.45,11.2 -26.93,11.2l-352.7 0c-10.17,0 -19.45,-4.05 -26.31,-10.6 -2.03,-4.65 -3.15,-9.76 -3.15,-15.13l0 -211.18c0,-10.48 4.29,-20.01 11.2,-26.93 6.91,-6.91 16.45,-11.2 26.93,-11.2l352.7 0c10.17,0 19.45,4.04 26.31,10.6zm-387.68 -34.45c-13.64,0 -26.03,5.58 -35.02,14.56 -8.98,8.98 -14.56,21.38 -14.56,35.02l0 211.18c0,10.5 3.3,20.26 8.92,28.29l8.67 12.4c1.68,2.41 3.57,4.66 5.64,6.73 8.98,8.98 21.38,14.56 35.02,14.56l352.7 0c13.64,0 26.03,-5.58 35.02,-14.56 8.98,-8.98 14.56,-21.38 14.56,-35.02l0 -211.18c0,-10.5 -3.3,-20.26 -8.92,-28.29l-8.67 -12.4c-1.68,-2.41 -3.57,-4.66 -5.64,-6.73 -8.98,-8.98 -21.38,-14.56 -35.02,-14.56l-352.7 0zm-0.04 175.14l-1.83 -31.32c7.33,-2.32 14.5,-4.06 21.52,-5.22 7.02,-1.16 13.58,-1.74 19.69,-1.74 8.42,0 15.9,1.16 22.44,3.48 6.53,2.32 11.63,5.95 15.29,10.9 0.13,0.18 0.26,0.36 0.39,0.54l8.67 12.4c3.41,4.87 5.11,11.13 5.11,18.79 0,8.79 -2.29,17.34 -6.87,25.64 -4.58,8.3 -11.26,16.97 -20.06,26.01 -4.63,4.75 -9.81,9.78 -15.55,15.08l36.74 0 8.67 12.4 0 17.77 -88.09 0 -8.67 -12.4 0 -19.05c14.04,-11.97 25.61,-22.31 34.71,-31.04 9.1,-8.73 15.84,-16.54 20.24,-23.44 4.4,-6.9 6.59,-13.65 6.59,-20.24 0,-1.48 -0.11,-2.87 -0.32,-4.19 -3.97,-2.25 -8.73,-3.38 -14.28,-3.38 -3.17,0 -6.62,0.37 -10.35,1.1 -3.05,0.6 -6.15,1.4 -9.32,2.41l-2.49 17.92 -13.55 0 -8.67 -12.4zm275.7 12.58l13.55 0 3.7 -18.5 33.79 0 -43.04 98.23 8.67 12.4 24.91 0 48.17 -112.64 0 -15.93 -8.67 -12.4 -85.76 0 1.93 -6.65 -8.67 -12.4 -15.75 0 -47.07 162.82 8.67 12.4 15.57 0 41.33 -142.43 0 22.71 8.67 12.4zm-164.3 -89.42l0 -5.68 6.41 -1.68 0 -48.12 -6.41 -9.17 0 -5.68 17.4 -0.73 8.67 12.4 0 56.08 6.5 9.3 0 5.68 -23.9 0 -8.67 -12.4zm46.66 122.07l0 -33.71 -23.22 33.71 23.22 0z"/>
  </g>
  <path class="fil1" d="M49.58 0l352.7 0c13.64,0 26.03,5.58 35.02,14.56 8.98,8.98 14.56,21.38 14.56,35.02l0 211.18c0,13.64 -5.58,26.03 -14.56,35.02 -8.98,8.98 -21.38,14.56 -35.02,14.56l-352.7 0c-13.64,0 -26.03,-5.58 -35.02,-14.56 -8.98,-8.98 -14.56,-21.38 -14.56,-35.02l0 -211.18c0,-13.64 5.58,-26.04 14.56,-35.02 8.98,-8.98 21.38,-14.56 35.02,-14.56zm26.47 34.02c4.33,0 8.29,0.64 11.86,1.92 3.57,1.28 6.64,3.22 9.2,5.82 2.56,2.59 4.55,5.83 5.95,9.71 1.4,3.88 2.11,8.41 2.11,13.6 0,7.27 -1.3,13.35 -3.89,18.27 -2.59,4.91 -6.21,8.64 -10.85,11.17 -4.64,2.53 -10.04,3.8 -16.21,3.8l-26.56 0 0 -5.68 8.79 -2.29 -1.65 2.29 0 -52.66 1.74 2.38 -8.88 -2.2 0 -5.68 19.6 -0.46 8.79 0zm-1.28 56.14c2.26,0 4.46,-0.35 6.59,-1.05 2.14,-0.7 4.09,-1.92 5.86,-3.66 1.77,-1.74 3.19,-4.2 4.26,-7.37 1.07,-3.18 1.6,-7.27 1.6,-12.27 0,-4.88 -0.5,-8.87 -1.51,-11.95 -1.01,-3.08 -2.35,-5.46 -4.03,-7.14 -1.68,-1.68 -3.54,-2.85 -5.59,-3.53 -2.04,-0.67 -4.14,-1.01 -6.27,-1.01l-11.45 0 1.83 -1.83 0 51.65 -1.83 -1.83 10.53 0zm59.43 9.16c-4.27,0 -8.06,-0.93 -11.35,-2.79 -3.3,-1.86 -5.86,-4.63 -7.69,-8.29 -1.83,-3.66 -2.75,-8.15 -2.75,-13.46 0,-5.44 0.96,-10.1 2.89,-14.01 1.92,-3.91 4.64,-6.92 8.15,-9.02 3.51,-2.11 7.68,-3.16 12.5,-3.16 4.58,0 8.32,0.93 11.22,2.79 2.9,1.86 5.05,4.41 6.46,7.65 1.4,3.23 2.11,6.9 2.11,10.99 0,0.91 -0.03,1.83 -0.09,2.75 -0.06,0.92 -0.18,1.92 -0.37,3.02l-34.07 0 0 -6.96 24.45 0 -1.28 0.82c0.06,-2.44 -0.2,-4.64 -0.78,-6.59 -0.58,-1.95 -1.57,-3.51 -2.98,-4.67 -1.4,-1.16 -3.27,-1.74 -5.59,-1.74 -2.62,0 -4.78,0.73 -6.46,2.2 -1.68,1.46 -2.9,3.45 -3.66,5.95 -0.76,2.5 -1.14,5.34 -1.14,8.52 0,3.48 0.46,6.55 1.37,9.2 0.92,2.66 2.35,4.75 4.31,6.27 1.95,1.53 4.43,2.29 7.42,2.29 2.14,0 4.46,-0.4 6.96,-1.19 2.5,-0.79 5.1,-2.01 7.78,-3.66l3.76 5.95c-3.48,2.38 -7.02,4.17 -10.62,5.36 -3.6,1.19 -7.11,1.79 -10.53,1.79zm44.14 -7.6l-0.91 -1.01 7.42 1.92 0 5.68 -23.9 0 0 -5.68 7.33 -1.92 -0.92 1.01 0 -57.14 0.82 0.91 -7.23 -1.83 0 -5.68 17.4 -0.73 0 64.47zm28.57 0l-0.92 -1.01 7.33 1.92 0 5.68 -23.9 0 0 -5.68 7.33 -1.92 -0.82 1.01 0 -35.16 0.73 0.82 -7.23 -1.83 0 -5.68 17.49 -0.64 0 42.49zm-5.95 -50.55c-2.01,0 -3.63,-0.58 -4.85,-1.74 -1.22,-1.16 -1.83,-2.78 -1.83,-4.85 0,-2.26 0.64,-3.95 1.92,-5.08 1.28,-1.13 2.9,-1.69 4.85,-1.69 1.89,0 3.47,0.55 4.72,1.65 1.25,1.1 1.88,2.78 1.88,5.04 0,2.2 -0.64,3.86 -1.92,4.99 -1.28,1.13 -2.87,1.69 -4.76,1.69zm41.94 8.79l20.15 -0.73 0 5.68 -5.5 2.1 1.56 -1.74 -15.38 43.22 -12.91 0 -13.65 -42.86 1.65 1.37 -5.77 -1.37 0 -5.68 21.61 -0.73 0 5.68 -7.23 1.83 0.92 -1.46 10.26 36.26 -0.91 0 11.35 -35.62 0.64 0.92 -6.78 -1.19 0 -5.68zm43.41 49.36c-4.27,0 -8.06,-0.93 -11.35,-2.79 -3.3,-1.86 -5.86,-4.63 -7.69,-8.29 -1.83,-3.66 -2.75,-8.15 -2.75,-13.46 0,-5.44 0.96,-10.1 2.89,-14.01 1.92,-3.91 4.64,-6.92 8.15,-9.02 3.51,-2.11 7.68,-3.16 12.5,-3.16 4.58,0 8.32,0.93 11.22,2.79 2.9,1.86 5.05,4.41 6.46,7.65 1.4,3.23 2.11,6.9 2.11,10.99 0,0.91 -0.03,1.83 -0.09,2.75 -0.06,0.92 -0.18,1.92 -0.37,3.02l-34.07 0 0 -6.96 24.45 0 -1.28 0.82c0.06,-2.44 -0.2,-4.64 -0.78,-6.59 -0.58,-1.95 -1.57,-3.51 -2.98,-4.67 -1.4,-1.16 -3.27,-1.74 -5.59,-1.74 -2.62,0 -4.78,0.73 -6.46,2.2 -1.68,1.46 -2.9,3.45 -3.66,5.95 -0.76,2.5 -1.14,5.34 -1.14,8.52 0,3.48 0.46,6.55 1.37,9.2 0.92,2.66 2.35,4.75 4.31,6.27 1.95,1.53 4.43,2.29 7.42,2.29 2.14,0 4.46,-0.4 6.96,-1.19 2.5,-0.79 5.1,-2.01 7.78,-3.66l3.76 5.95c-3.48,2.38 -7.02,4.17 -10.62,5.36 -3.6,1.19 -7.11,1.79 -10.53,1.79zm27.93 -1.01l0 -5.68 7.6 -2.01 -1.1 1.74 0 -36.63 1.28 1.92 -7.78 -2.1 0 -5.68 15.02 -0.73 1.46 8.79 -1.46 -0.37c2.75,-2.87 5.45,-5.08 8.1,-6.64 2.66,-1.56 5.54,-2.33 8.65,-2.33 1.95,0 4,0.3 6.13,0.91l-0.73 15.75 -6.41 0 -1.28 -9.8 1.01 2.2c-0.37,-0.12 -0.76,-0.21 -1.19,-0.27 -0.43,-0.06 -0.85,-0.09 -1.28,-0.09 -2.08,0 -4.1,0.63 -6.09,1.88 -1.98,1.25 -3.77,2.88 -5.36,4.9l0.92 -3.02 0 31.32 -1.37 -1.74 9.34 2.01 0 5.68 -25.46 0zm41.67 21.52l1.01 -7.87c0.92,0.12 1.76,0.21 2.52,0.27 0.76,0.06 1.48,0.09 2.15,0.09 2.81,0 5.08,-0.58 6.82,-1.74 1.74,-1.16 3.23,-2.94 4.49,-5.36 1.25,-2.41 2.52,-5.48 3.8,-9.2l-0.46 3.76 -17.4 -43.96 1.1 1.01 -5.49 -1.19 0 -5.68 21.89 -0.73 0 5.68 -7.05 1.65 0.64 -1.01 12.27 35.8 -2.56 -0.55 11.26 -35.07 0.55 1.1 -6.87 -1.19 0 -5.68 20.88 -0.73 0 5.68 -5.95 1.74 1.56 -1.01 -15.48 42.58c-1.22,3.42 -2.52,6.47 -3.89,9.16 -1.37,2.69 -2.93,5.01 -4.67,6.96 -1.74,1.95 -3.8,3.45 -6.18,4.49 -2.38,1.04 -5.19,1.56 -8.42,1.56 -1.89,0 -4.06,-0.18 -6.5,-0.55zm-308.93 147.62l0 -19.05c14.04,-11.97 25.61,-22.31 34.71,-31.04 9.1,-8.73 15.84,-16.54 20.24,-23.44 4.4,-6.9 6.59,-13.65 6.59,-20.24 0,-6.72 -2.2,-11.72 -6.59,-15.02 -4.4,-3.3 -9.95,-4.95 -16.67,-4.95 -3.17,0 -6.62,0.37 -10.35,1.1 -3.72,0.73 -7.54,1.77 -11.45,3.11l2.56 -3.85 -2.93 21.06 -13.55 0 -1.83 -31.32c7.33,-2.32 14.5,-4.06 21.52,-5.22 7.02,-1.16 13.58,-1.74 19.69,-1.74 8.42,0 15.9,1.16 22.44,3.48 6.53,2.32 11.63,5.95 15.29,10.9 3.66,4.95 5.5,11.39 5.5,19.32 0,8.79 -2.29,17.34 -6.87,25.64 -4.58,8.3 -11.26,16.97 -20.06,26.01 -8.79,9.04 -19.6,19.05 -32.42,30.04l0 -2.56 62.27 0 0 17.77 -88.09 0zm160.25 -34.25l5.68 4.58 -66.67 0 -2.56 -15.57 59.71 -85.53 26.37 2.2 0 85.71 -5.68 -4.21 25.64 0 0 17.4 -25.64 0 5.68 -4.58 0 34.25 -22.53 0 0 -34.25zm6.04 -12.82l-5.68 4.21 0 -75.09 7.51 1.28 -53.48 77.65 -4.4 -8.06 56.04 0zm100.55 -100.55l-47.25 162.82 -15.57 0 47.07 -162.82 15.75 0zm92.49 34.98l-48.17 112.64 -24.91 0 50 -114.1 3.3 3.48 -56.96 0 4.95 -3.48 -4.4 21.98 -13.55 0 0 -36.45 89.74 0 0 15.93zm-4.03 -143.36l-352.7 0c-10.48,0 -20.01,4.29 -26.93,11.2 -6.91,6.91 -11.2,16.44 -11.2,26.93l0 211.18c0,10.48 4.29,20.01 11.2,26.93 6.91,6.91 16.45,11.2 26.93,11.2l352.7 0c10.48,0 20.01,-4.29 26.93,-11.2 6.91,-6.91 11.2,-16.45 11.2,-26.93l0 -211.18c0,-10.48 -4.29,-20.01 -11.2,-26.93 -6.91,-6.91 -16.45,-11.2 -26.93,-11.2z"/>
 </g>
</svg>
