<?xml version="1.0" encoding="UTF-8"?>
<!DOCTYPE svg PUBLIC "-//W3C//DTD SVG 1.1//EN" "http://www.w3.org/Graphics/SVG/1.1/DTD/svg11.dtd">
<!-- Creator: CorelDRAW -->
<svg xmlns="http://www.w3.org/2000/svg" xml:space="preserve" width="158.814mm" height="161.628mm" version="1.1" style="shape-rendering:geometricPrecision; text-rendering:geometricPrecision; image-rendering:optimizeQuality; fill-rule:evenodd; clip-rule:evenodd"
viewBox="0 0 15865.1 16146.2"
 xmlns:xlink="http://www.w3.org/1999/xlink"
 xmlns:xodm="http://www.corel.com/coreldraw/odm/2003">
 <defs>
  <style type="text/css">
   <![CDATA[
    .fil3 {fill:#FEFEFE;fill-rule:nonzero}
    .fil0 {fill:#2B2A29;fill-rule:nonzero}
    .fil1 {fill:#F39619;fill-rule:nonzero}
    .fil2 {fill:#E9532C;fill-rule:nonzero}
   ]]>
  </style>
 </defs>
 <g id="Layer_x0020_1">
  <metadata id="CorelCorpID_0Corel-Layer"/>
  <path class="fil0" d="M15843.27 8515.7c-322.03,4369.01 -4124.85,7649.69 -8493.83,7327.65 -4368.98,-322.04 -7649.65,-4124.86 -7327.61,-8493.87 322.04,-4368.98 4124.89,-7649.69 8493.83,-7327.65 4368.98,322.04 7649.69,4124.86 7327.61,8493.87z"/>
  <path class="fil0" d="M8468.89 385.54c-4280.13,-315.48 -8008.97,2775.03 -8312.26,6889.21 -38.1,516.85 -17.72,1035.79 54.44,1546.05 -2.29,21.99 -6.34,43.56 -6.44,66.04 -2.15,339.16 244.4,628.64 579.62,680.54 18.93,2.93 43.6,6.03 74.39,8.29 14.94,1.12 32.99,2.11 54.59,2.96 99.35,3.7 196.4,7.64 291.23,11.88l67.07 5.24c62.59,4.62 126.09,8.67 190.58,12.48 21.32,1.2 42.61,-1.41 63.92,-2.19 111.83,5.89 221.25,12.02 327.01,18.47 125.88,7.75 247.82,15.93 365.17,24.56 1027.09,75.73 1635.25,179.52 1990.88,267.77 -213.18,115.34 -529.23,262.94 -993.11,437.52 -133.35,50.15 -243.63,139.77 -321.23,252.19 -28.37,-0.95 -56.45,-2.96 -85.24,-2.65 -154.29,1.98 -305.98,25.9 -451.42,71.09 -187.91,58.47 -352.42,156.72 -485.77,288.8 -174.19,170.08 -289.15,364.4 -341.63,577.86 -48.46,197.43 -48,396.5 1.52,592.02 12.86,50.72 28.68,100.44 47.36,149.36 -68.44,74.11 -125,159.3 -168.85,254.48 -69.78,152.28 -95.15,324.12 -73.5,497.75 11.52,99.32 32.74,199.48 62.87,297.27 48.14,156.23 130.12,299.09 243.24,423.72 112.07,123.83 255.47,223.89 426.21,297.34 139.52,60.01 295.64,95.78 477.27,109.18 27.63,2.01 56.11,3.52 86.13,4.55 171.8,5.6 336.14,-3.46 488.38,-26.85 76.55,-11.78 149.92,-28.34 220.86,-48.04 5.14,21.92 9.73,42.05 15.04,64.49 15.96,67.66 31.09,136.74 45.35,207.08 7.12,35.45 10.9,67.52 11.28,95.58 0.74,61.39 -1.94,114.14 -7.96,156.47 -8.53,60.48 -18.22,116.82 -29.28,168.95 -14.35,68.05 -27.77,132.43 -39.86,192.06 -21.93,106.86 -32.39,216.67 -31.02,326.49 3.46,283.73 165.71,541.87 421.67,672.97 94.66,48.71 200.27,83.77 313.65,103.96 51.32,9.09 103.71,15.68 155.73,19.49 33.45,2.5 67.14,3.92 99.56,4.16 54.59,0.5 97.55,0.46 127.19,0.04 29.43,-0.18 69.82,-1.24 122.71,-3.04 85.42,-2.99 170.61,-13.74 251.48,-31.4 52.27,-11.28 102.73,-25.9 151.43,-43.81 11.88,4.69 23.97,9.09 36.12,13.43 92.02,32.53 191.92,54.41 295.29,64.88 19.6,2.04 39.3,3.74 59.1,5.17 57.69,4.27 116.26,6.1 176.67,5.46 125.6,-1.62 244.93,-11.73 354.43,-30.09 93.63,-15.79 197.85,-39.83 300.86,-87.4 10.6,4.93 20.58,10.85 31.29,15.57 164.16,72.11 338.99,115.48 519.57,128.81 46.7,3.42 93.95,4.89 141.74,4.3 230.69,-2.75 451.87,-52.48 657.72,-148.05 39.19,-18.25 76.75,-38.83 114.07,-59.73 2.4,1.12 4.41,2.57 6.84,3.66 98.04,44.58 210.67,78.28 362.39,107.28 58.71,10.61 116.82,19.95 177.44,28.79 39.76,5.64 78.56,9.83 116.44,12.62 44.4,3.25 87.61,4.66 131.9,4.31 126.45,-1.7 247.97,-22.39 361.27,-61.65 32.07,-11.13 63.33,-23.96 93.59,-38.37 30.49,13.6 61.89,25.58 94.1,35.87 82.75,26.53 170.11,43.39 259.72,49.97 33.49,2.51 67.88,3.6 104.17,3.21 80.61,-1.02 164.3,-8.81 249.02,-23.37 55.85,-9.58 112.87,-20.4 180.05,-34.11 38.34,-8.32 74.08,-17.13 108.23,-26.33 46.41,18.19 94.06,34.29 144.28,46.03 69.07,15.82 138.43,26.5 206.2,31.72 39.86,6.37 82.92,12.76 129.27,18.96 13.85,2.01 27.77,3.38 41.76,4.41l163.7 11.7c79.4,5.39 163.37,7.68 250.07,6.62 78.87,-1.02 160.77,-5.07 244.61,-12.34 91.81,-8 184.74,-21.5 276.23,-40.14 100.37,-20.48 199.65,-48.63 294.05,-83.41 104.14,-38.03 204.79,-86.17 302.27,-144.91 144.17,-88.04 274.25,-206.8 386.39,-352.77 95.43,-124.12 176.95,-263.93 242.04,-415.01 63.22,-146.6 110.87,-304.98 141.32,-470.65 31.65,-171.76 41.48,-347.09 29.14,-521.48 -2.54,-35.62 -6.9,-70.97 -11.45,-106.28 14.24,1.44 28.23,4.34 42.43,5.35 32.99,2.47 66.08,3.74 99.28,4.06 53.36,0.49 95.4,0.49 126.59,0.1 31.22,-0.42 72,-1.34 123.98,-3.03 84.5,-3 169.02,-13.54 253.21,-31.69 112.24,-24.59 215.96,-64.1 308.71,-117.77 246.17,-142.66 390.97,-394.95 387.44,-674.18 -1.27,-105.86 -12.97,-211.66 -34.7,-314.22 -11.25,-53.04 -23.66,-108.58 -37.22,-167.01 16.7,-4.19 33.2,-9.02 49.55,-14.56 270.27,-90.43 470.45,-302.23 549.07,-580.74 38.31,-135.68 52.66,-279.14 42.51,-427.23 -9.13,-130.79 -35.67,-258.74 -79.09,-380.47 -56.17,-156.93 -125.14,-275.24 -210.77,-365.57 -92.76,-100.69 -210.85,-177.44 -351.05,-228.54 -74.03,-26.96 -155.23,-48.32 -242.99,-63.64 -68.19,-11.88 -141.45,-20.94 -228.05,-27.6 -63.99,-4.69 -127.93,-7.96 -185.12,-9.37 -135.12,-4.62 -283.63,-4.09 -441.9,1.34 -36.93,-1.16 -81.31,-1.62 -133.18,-0.92 -33.73,0.35 -69.6,1.27 -106.67,2.47 -381.21,-716.18 -1473.6,-2279.18 -3882.47,-2702.19 712.31,-395.47 1407.13,-855.2 2080.74,-1379.7 44.15,-34.43 124.12,-78.66 307.76,-65.09 333.14,24.52 1330.27,287.22 3388.09,2190.97 116.05,107.35 262.83,168.84 414.44,180.02 104.77,7.71 211.98,-8.6 312.91,-50.54 246.91,-102.69 411.38,-339.8 421.03,-607 146.08,-4042.11 -3028.2,-7450.83 -7226.72,-7760.32z"/>
  <path class="fil1" d="M7421.51 8453.75c-265.34,2.57 -1155.74,49.06 -2197.92,110.98 -430.48,25.62 -886.75,53.84 -1335.69,82.72 306.29,-4.27 618.39,-0.85 928.51,13.07 1393.42,62.6 2746.13,338.07 3343.06,1092.95 236.12,298.64 354.18,685.7 341.81,1104.02 22.13,-9.55 44.75,-18.46 68.33,-25.9 96.53,-30.34 197.67,-46.37 300.68,-47.68 88.63,-1.13 177.73,6.8 264.77,23.69 85.07,16.52 165.71,39.05 239.75,66.96 76.47,28.89 143.99,62.41 200.83,99.66 40.39,26.5 73.16,53.92 100.52,82.54 22.77,-45.53 56.66,-84.54 100.69,-114.95 53.77,-37.18 121.69,-62.88 201.86,-76.23 65.19,-10.93 140.09,-17.02 222.51,-18.08l17.87 -0.24c46.62,-0.6 89.79,-0.6 129.41,-0.11 40.35,0.56 78.02,2.61 112.13,6.2 75.34,0.74 159.01,-0.88 248.73,-4.83 87.47,-3.85 165.6,-12.59 232.21,-25.87l1.62 -0.32c90.33,-17.02 185.58,-35.13 285.71,-54.33 108.61,-20.8 210,-31.9 301.28,-33.1 63.88,-0.85 121.96,5.03 172.92,17.55 70.14,17.26 127.44,51.49 170.64,101.6 28.68,33.42 53.91,73.51 76.75,119.62 29.32,-22.74 64.81,-41.73 107,-57.16 -397.03,-754.5 -1637.72,-2491.62 -4636,-2462.72z"/>
  <path class="fil2" d="M8418.57 1067.85c-3910.13,-288.2 -7303.65,2513.22 -7579.63,6257.22 -38.98,528.66 -13.61,1047.81 69.53,1550.45 1.31,0.15 2.65,0.29 3.92,0.43 16.17,1.76 32.64,3.46 48.95,5.17 112.2,-15.5 254.66,-34.46 421.92,-54.86 601.53,-73.41 1522.89,-165.25 2504.62,-178.82 448.94,-28.9 905.21,-57.09 1335.69,-82.72 1598.31,-404.33 3384.25,-1187.39 5207.37,-2607.04 1018.7,-793.26 3106.27,799.28 4580.92,2163.48 131.56,-3639.4 -2769.64,-6771.46 -6593.29,-7053.33z"/>
  <path class="fil1" d="M7989.53 9888.12c-671.84,-849.57 -2251.02,-1095.94 -3684.72,-1126.98 -1330.45,-28.83 -2535.39,127.68 -2773.56,160.03 125.07,6.38 246.17,13.26 363.8,20.51 5312.29,326.62 3132.67,1461.97 1561.91,2053.07 36.51,17.76 70.38,36.58 100.94,56.63 32.88,21.57 61.15,43.67 85.32,66.61 18.82,-30.17 43.21,-56.67 73.06,-78.42 53.15,-38.76 115.03,-66.11 183.82,-81.27 58.39,-12.79 118.41,-19.59 178.61,-20.37l217.23 -2.78c52.55,-0.78 104.35,5.45 154,18.29 61.04,15.89 114.82,44.89 160.21,86.27 27.81,25.4 59.25,65.51 77.25,125.77 18.5,-56.31 53.12,-104.2 101.79,-139.7 53.18,-38.69 115.06,-66.11 183.85,-81.23 58.36,-12.8 118.34,-19.6 178.57,-20.41l217.27 -2.79c52.27,-0.63 104.28,5.46 154.53,18.05 63.47,16.06 118.31,45.88 163.38,88.59 4.2,3.99 8.46,8.53 12.76,13.26 7.33,-7.26 14.94,-14.28 23.16,-20.73 50.15,-39.68 109,-68.36 174.9,-85.21 57.13,-14.52 115.8,-22.2 174.66,-22.98l184.49 -2.36c71.37,-5.14 140.83,-2.15 206.27,8.74l4.48 0.84c60.09,11.85 121.62,33.06 182.87,62.99 78.02,38.3 140.54,98.6 186.14,179.31 17.37,31.33 35.7,75.27 59.84,143.5 0.89,2.43 1.84,5.07 2.69,7.57l108.26 -1.12c-1.91,-23.48 -3.28,-46.2 -3.53,-67.49 -1.06,-99.88 37.39,-185.65 108.26,-241.69 49.98,-39.61 108.83,-68.29 174.87,-85.14 56.81,-14.45 115.52,-22.17 174.55,-22.94l218.79 -2.79c55.78,-0.78 111.97,5.7 166.83,19.1 30.77,7.5 59.74,18.08 87.01,31.16 154.47,-407.11 255.05,-801.54 55.47,-1053.91z"/>
  <path class="fil0" d="M1244.22 8907.41c83.77,6.73 169.55,12.69 257.16,17.8 7.15,-0.96 16.7,-2.3 29.89,-4.06 -93.56,-4.83 -189.25,-9.41 -287.05,-13.75z"/>
  <path class="fil0" d="M8159.46 9753.46c-596.89,-754.88 -1949.63,-1030.36 -3343.05,-1092.95 -310.13,-13.93 -622.23,-17.34 -928.52,-13.08 -981.72,13.61 -1903.12,105.4 -2504.62,178.82 -167.26,20.44 -309.7,39.4 -421.91,54.87 -25.76,3.56 -50.01,6.9 -72.57,10.08 10.22,1.58 26.68,2.78 49.94,3.7 104.1,3.92 205.88,8.07 305.48,12.51 97.83,4.34 193.47,8.92 287.04,13.75 238.17,-32.35 1443.15,-188.86 2773.6,-160 1433.66,31.05 3012.84,277.39 3684.68,1126.95 199.58,252.37 99,646.8 -55.46,1053.94 30.31,14.52 58.53,32.21 84.11,53.33 46.66,38.58 102.35,110.41 103.72,234.56 0.1,7.51 -0.25,15.51 -0.36,23.27 34.96,-90.89 93.21,-177.38 174.77,-257.69 58.39,-58.4 127.4,-104.53 204.96,-138.05 12.38,-418.31 -105.69,-805.37 -341.81,-1104.01z"/>
  <path class="fil3" d="M3186.02 12126.21c65.51,40.56 128.64,89.12 189.43,145.51 60.79,56.45 113.26,120.88 157.53,193.19 44.15,72.43 75.7,152.81 94.48,241.26 18.82,88.46 18.93,185.06 0.53,289.69 -16.7,86.97 -52.3,162.24 -106.68,225.93 -54.44,63.71 -124.25,115.8 -209.51,156.23 -85.25,40.39 -183.47,69.14 -294.55,86.27 -111.16,17.09 -231.79,23.47 -361.87,19.1 -130.15,-4.38 -235.27,-23.79 -315.52,-58.33 -80.24,-34.49 -143.32,-77.07 -189.21,-127.82 -45.99,-50.64 -78.13,-105.9 -96.6,-165.85 -18.47,-59.87 -30.98,-119.29 -37.6,-178.36 -6.52,-49.16 -1.1,-92.58 16.17,-130.25 17.3,-37.64 40.07,-68.9 68.33,-93.92 28.27,-24.95 60.59,-44.05 96.88,-57.34 36.3,-13.21 71.16,-20.08 104.7,-20.44 27.56,-0.35 53.26,4.31 77.04,13.86 29.67,11.45 52.02,26.46 67.03,45 14.97,18.57 24.59,41.06 28.86,67.63 4.23,26.53 6.13,58.6 5.6,96.03 -0.56,37.46 -1.52,81.8 -2.86,133.03 -1.23,63.09 21.5,110.59 68.23,142.55 46.66,31.97 98.54,47.61 155.73,46.9 35.45,-0.38 71.34,-6.76 107.67,-19.03 36.29,-12.23 68.08,-32.32 95.36,-60.26 42.79,-45.78 59.88,-97.2 51.35,-154.32 -8.56,-57.02 -33.91,-116.79 -76.02,-179.39 -42.15,-62.55 -96.59,-125.45 -163.37,-188.72 -66.78,-63.23 -136.99,-123.98 -210.57,-182.23 -73.61,-58.22 -138.46,-125.92 -194.53,-203.1 -56.14,-77.17 -95.05,-158.48 -116.72,-243.94 -21.75,-85.49 -21.78,-172.15 -0.18,-260.15 21.61,-87.89 73.34,-171.8 155.17,-251.62 58.43,-57.83 128.85,-99.53 211.31,-125.21 82.47,-25.59 168.03,-38.95 256.7,-40 78.76,-0.96 156.75,6.05 233.79,20.86 77,14.87 148.65,34.71 214.98,59.49 66.32,24.84 123.3,52.76 170.98,83.69 47.65,30.98 81.52,62.14 101.65,93.39 30.13,50.89 43.97,96.56 41.51,136.95 -2.47,40.46 -11.45,74.53 -26.85,102.28 -17.37,31.79 -40.71,57.68 -70.03,77.7 -29.32,20.09 -60.68,35.24 -94.05,45.46 -21.61,6.16 -46.2,8.99 -73.76,8.28 -27.66,-0.67 -55.29,-6.73 -83.02,-18.25 -27.74,-11.46 -54.55,-30.84 -80.5,-58.15 -25.93,-27.21 -50.04,-65.37 -72.32,-114.39 -32.46,-76.48 -68.58,-130.19 -108.33,-161.26 -39.83,-31.05 -78.41,-46.38 -115.84,-45.92 -35.45,0.42 -66.32,13.11 -92.65,38.02 -26.28,24.99 -41.19,56.21 -44.71,93.64 -9.31,45.46 -2.4,88.24 20.76,128.35 23.12,40.14 57.09,79.12 101.92,117.04 44.79,37.88 96.98,75.69 156.54,113.4 59.56,37.71 122.11,76.9 187.63,117.5z"/>
  <path class="fil3" d="M5585 11527.03c0.63,51.28 -4.2,104.56 -14.35,159.79 -10.19,55.33 -20.79,114.61 -31.9,177.76 -11.03,63.23 -20.12,130.3 -27.13,201.34 -7.05,71.05 -7.08,148.93 -0.14,233.51 7.01,96.49 19.31,178.6 36.89,246.37 17.52,67.81 33.07,129.2 46.56,184.21 13.43,55.01 23.44,107.59 29.95,157.78 6.48,50.18 2.26,105.93 -12.79,167.15 -5.64,23.72 -17.66,48.04 -36.09,72.89 -18.43,24.87 -40.77,48.28 -67.13,70.27 -26.32,22.03 -54.66,43.07 -84.97,63.09 -30.34,20.05 -60.16,36.19 -89.58,48.35 -72.46,38.34 -170.15,69.57 -293,93.67 -122.89,24.11 -252.3,37 -388.22,38.62 -65.02,0.74 -137.48,-2.33 -217.38,-9.23 -79.89,-6.94 -157.95,-21.78 -234.07,-44.51 -76.16,-22.73 -146.01,-54.87 -209.55,-96.52 -63.57,-41.59 -110.52,-96.67 -140.9,-165.32 -24.38,-62.77 -38.87,-117.78 -43.35,-165.04 -4.56,-47.22 -4.13,-96.98 1.16,-149.25 5.28,-52.27 11.46,-111.47 18.57,-177.58 7.05,-66.08 10.08,-147.46 8.92,-243.98 -0.85,-70.95 -7.65,-144.74 -20.37,-221.46 -12.76,-76.72 -26.01,-152.38 -39.69,-227.13 -13.75,-74.71 -26.85,-145.48 -39.47,-212.37 -12.62,-66.78 -19.24,-125.84 -19.84,-177.09 -0.63,-51.24 17.09,-89.87 53.29,-115.91 36.12,-26.07 78.24,-44.29 126.45,-54.76 48.14,-10.39 97.37,-15.92 147.59,-16.52 50.26,-0.6 89.13,-1.06 116.76,-1.41 27.55,-0.32 61.04,-0.71 100.47,-1.2 39.4,-0.46 77.39,4.02 114.01,13.43 36.54,9.44 68.26,26.28 95.15,50.57 26.88,24.36 40.67,62.14 41.27,113.33 0.6,51.25 -4.2,104.53 -14.35,159.76 -10.19,55.36 -20.8,114.6 -31.86,177.76 -11.1,63.23 -20.16,130.33 -27.17,201.33 -7.05,71.05 -7.12,148.94 -0.18,233.55 7.05,94.48 17.94,182.05 32.71,262.69 14.73,80.63 30.45,158.31 47.12,232.94 8.14,23.59 18.81,51.53 32.07,83.88 13.18,32.35 28.3,62.73 45.42,91.1 17.02,28.37 35.56,52.76 55.54,73.23 19.91,20.44 39.75,30.55 59.49,30.3 27.56,-0.31 52.44,-22.27 74.57,-65.93 22.1,-43.56 41.23,-92.58 57.37,-146.99 16.07,-54.34 29.28,-104.77 39.54,-151.22 10.29,-46.38 15.43,-72.6 15.36,-78.52 3.49,-35.48 6.48,-75.45 8.88,-119.82 2.47,-44.37 3.35,-93.14 2.72,-146.33 -0.85,-70.94 -7.65,-144.8 -20.41,-221.45 -12.72,-76.72 -25.93,-152.42 -39.65,-227.17 -13.71,-74.68 -26.85,-145.48 -39.47,-212.33 -12.62,-66.85 -19.24,-125.85 -19.87,-177.13 -0.6,-51.24 17.12,-89.83 53.32,-115.94 36.12,-26.01 78.27,-44.23 126.45,-54.69 48.14,-10.4 97.37,-15.93 147.59,-16.53 50.26,-0.63 89.13,-1.06 116.76,-1.41 27.55,-0.32 61.04,-0.74 100.51,-1.2 39.36,-0.46 77.85,4.02 115.41,13.4 37.54,9.41 69.29,26.28 95.22,50.61 25.83,24.35 39.16,62.13 39.76,113.29z"/>
  <path class="fil3" d="M7931.77 11504.94c0.6,51.24 -4.62,110.91 -15.61,179.03 -11.03,68.12 -23.02,139.7 -35.87,214.73 -12.94,75.09 -24.81,151.08 -35.7,228.05 -10.89,76.97 -15.93,150.94 -15.08,221.84 1.17,96.6 8.56,183.19 22.31,259.87 13.75,76.69 28.41,147.98 43.94,213.81 15.58,65.83 29.61,128.25 42.12,187.17 12.55,58.96 19.17,119.05 19.91,180.09 0.39,31.54 -15.11,56.31 -46.41,74.43 -31.33,18.15 -68.61,31.86 -111.83,41.27 -43.24,9.37 -87.01,14.83 -131.35,16.35 -44.32,1.55 -79.29,2.43 -104.91,2.75l-5.91 0.07c-29.47,6.23 -61.47,12.09 -95.86,17.37 -34.43,5.35 -71.37,8.21 -110.73,8.7 -67.03,0.82 -133.64,-9.19 -199.89,-30.09 -66.29,-20.87 -125.39,-61.57 -177.34,-122.04 -49.97,-58.54 -98.18,-133.32 -144.56,-224.42 -46.44,-91.07 -91.38,-184.1 -134.86,-279.18 -43.53,-95.08 -85.5,-185.23 -125.89,-270.44 -40.49,-85.25 -80.63,-149.29 -120.56,-192.21 -5.39,43.46 -7.82,87.83 -7.29,133.11 1.16,96.56 8.56,183.15 22.34,259.87 13.72,76.68 28.37,147.94 43.94,213.81 15.54,65.83 29.57,128.21 42.12,187.13 12.55,59 19.17,119.09 19.91,180.09 0.39,31.58 -15.15,56.35 -46.44,74.46 -31.3,18.12 -68.58,31.86 -111.79,41.27 -43.29,9.34 -87.05,14.84 -131.39,16.35 -44.29,1.55 -79.29,2.44 -104.88,2.72 -27.62,0.32 -65.51,0.32 -113.79,-0.11 -48.35,-0.42 -95.68,-4.79 -142.05,-13.11 -46.41,-8.32 -86.48,-21.15 -120.18,-38.45 -33.77,-17.33 -50.75,-41.76 -51.14,-73.3 -0.7,-61.04 4.93,-121.27 17.06,-180.5 12.09,-59.28 25.15,-121.93 39.15,-188.16 14,-66.18 26.43,-137.76 37.32,-214.76 10.89,-77 15.78,-163.73 14.62,-260.33 -0.85,-70.91 -7.65,-144.73 -20.37,-221.45 -12.73,-76.69 -26.46,-152.35 -41.13,-227.1 -14.69,-74.68 -28.33,-146.01 -41.02,-213.81 -12.59,-67.84 -19.25,-127.37 -19.85,-178.61 -0.63,-51.21 15.65,-89.83 48.89,-115.87 33.2,-25.94 72.35,-44.69 117.56,-56.11 45.14,-11.31 91.42,-17.3 138.72,-17.9 47.29,-0.53 84.68,-0.98 112.31,-1.34l76.82 -0.88c61.01,-4.69 119.19,-2.4 174.48,6.76 47.44,9.34 95.89,25.97 145.44,49.98 49.55,24.11 89.45,62.52 119.62,115.34 12.09,21.57 28.29,60.76 48.7,117.67 20.37,56.92 43.81,121.7 70.31,194.22 26.46,72.64 54.97,148.16 85.49,226.61 30.49,78.52 61.85,150.02 94.2,214.69 32.25,64.63 64.95,117.95 97.94,159.89 33.02,42.02 65.3,62.77 96.84,62.39 29.53,-0.32 56.84,-23.3 81.94,-68.97 1.84,-9.84 2.72,-20.2 2.58,-31.02 -0.11,-10.82 -0.22,-21.18 -0.36,-31.05 -0.84,-70.94 -7.64,-144.77 -20.37,-221.45 -12.76,-76.69 -26.5,-152.38 -41.16,-227.14 -14.69,-74.67 -28.33,-145.97 -40.99,-213.77 -12.62,-67.88 -19.24,-127.37 -19.84,-178.65 -0.64,-51.2 15.61,-89.79 48.88,-115.83 33.17,-25.97 72.32,-44.69 117.53,-56.07 45.18,-11.39 91.42,-17.37 138.75,-17.94 47.26,-0.56 84.68,-1.02 112.27,-1.34 27.56,-0.32 63.06,-0.77 106.4,-1.27 43.35,-0.53 86.27,4.41 128.81,14.69 42.43,10.36 79.12,28.16 109.99,53.4 30.8,25.26 46.55,63.5 47.19,114.71z"/>
  <path class="fil3" d="M9203.43 12054.35c65.51,40.6 128.63,89.13 189.43,145.55 60.79,56.42 113.26,120.85 157.53,193.19 44.19,72.39 75.7,152.81 94.48,241.26 18.82,88.46 18.92,185.02 0.53,289.69 -16.7,86.94 -52.3,162.21 -106.68,225.93 -54.41,63.68 -124.26,115.77 -209.51,156.19 -85.25,40.43 -183.47,69.15 -294.55,86.27 -111.16,17.09 -231.75,23.48 -361.9,19.14 -130.08,-4.38 -235.24,-23.83 -315.49,-58.36 -80.25,-34.46 -143.29,-77.04 -189.22,-127.79 -45.98,-50.64 -78.16,-105.93 -96.59,-165.85 -18.47,-59.87 -30.98,-119.33 -37.6,-178.39 -6.48,-49.16 -1.1,-92.59 16.17,-130.26 17.3,-37.6 40.07,-68.9 68.37,-93.91 28.26,-24.95 60.55,-44.05 96.84,-57.31 36.26,-13.21 71.16,-20.08 104.7,-20.47 27.59,-0.35 53.26,4.3 77.04,13.85 29.67,11.46 52.05,26.5 67.06,45 14.94,18.57 24.56,41.1 28.87,67.63 4.23,26.57 6.09,58.61 5.56,96.03 -0.57,37.46 -1.52,81.8 -2.86,133.04 -1.2,63.12 21.5,110.59 68.23,142.54 46.66,31.97 98.54,47.61 155.73,46.91 35.45,-0.39 71.33,-6.73 107.67,-19 36.29,-12.26 68.08,-32.32 95.36,-60.26 42.78,-45.81 59.87,-97.23 51.35,-154.36 -8.57,-57.02 -33.91,-116.79 -76.05,-179.35 -42.12,-62.59 -96.56,-125.49 -163.35,-188.75 -66.78,-63.23 -136.94,-123.98 -210.56,-182.23 -73.58,-58.22 -138.5,-125.89 -194.53,-203.07 -56.14,-77.21 -95.01,-158.51 -116.72,-243.97 -21.75,-85.46 -21.78,-172.16 -0.18,-260.12 21.61,-87.93 73.37,-171.8 155.17,-251.62 58.39,-57.83 128.84,-99.56 211.3,-125.25 82.47,-25.55 168.04,-38.94 256.71,-39.96 78.8,-0.99 156.75,6.02 233.75,20.86 77.04,14.83 148.69,34.71 215.05,59.49 66.29,24.84 123.31,52.76 170.92,83.69 47.71,30.98 81.55,62.14 101.64,93.35 30.2,50.93 44.01,96.6 41.55,136.95 -2.47,40.5 -11.45,74.54 -26.85,102.32 -17.37,31.79 -40.71,57.65 -70.03,77.7 -29.28,20.06 -60.69,35.24 -94.05,45.46 -21.61,6.13 -46.2,8.99 -73.8,8.28 -27.62,-0.67 -55.25,-6.73 -82.95,-18.25 -27.73,-11.49 -54.59,-30.88 -80.53,-58.15 -25.97,-27.24 -50.04,-65.41 -72.28,-114.43 -32.5,-76.44 -68.62,-130.18 -108.37,-161.26 -39.79,-31.01 -78.42,-46.37 -115.84,-45.92 -35.42,0.46 -66.32,13.12 -92.65,38.06 -26.32,24.99 -41.2,56.21 -44.68,93.64 -9.34,45.46 -2.4,88.24 20.76,128.35 23.09,40.14 57.09,79.12 101.89,117 44.79,37.88 96.95,75.7 156.54,113.44 59.56,37.67 122.11,76.86 187.63,117.46z"/>
  <path class="fil3" d="M10901.05 11250.77c447.61,-70.76 656.77,-79.71 695.29,-70.34 38.55,9.41 68.79,26.78 90.82,52.09 33.94,39.08 63.64,93.88 89.13,164.47 25.47,70.66 39.64,143.43 42.54,218.26 2.82,74.88 -11.11,145.97 -41.8,213.35 -30.77,67.38 -87.26,118.31 -169.62,152.73 -43.18,18.26 -81.95,31.05 -116.34,38.34 -34.35,7.33 -65.4,11.18 -92.92,11.5 -37.46,0.42 -68.58,-4.1 -93.28,-13.68 -24.77,-9.55 -45.11,-21.15 -61.01,-34.75 -15.96,-13.57 -28.97,-29.21 -39.01,-46.83 17.12,-49.45 27.38,-96.88 30.8,-142.27 3.49,-39.43 1.52,-80.24 -5.88,-122.56 -7.4,-42.26 -28.02,-77 -61.82,-104.17 -21.99,-19.46 -57.65,-35.77 -106.99,-49.03 -49.48,-13.18 -103.71,-19.45 -162.82,-18.71 -69,0.81 -137.3,14.46 -204.96,40.85 -67.63,26.43 -123.77,73.44 -168.28,140.97 -9.31,51.35 -18.01,103.64 -26.22,156.93 -8.21,53.33 -13.96,108.58 -17.19,165.74 13.78,3.85 28.12,6.63 42.92,8.39 14.8,1.8 32.08,2.57 51.78,2.33 35.45,-0.43 66.36,-9.16 92.78,-26.22 26.4,-17.05 52.31,-36.12 77.68,-57.09 25.33,-21 50.22,-40.53 74.63,-58.54 24.42,-18 51.39,-27.2 80.99,-27.59 29.57,-0.32 52.83,10.75 69.85,33.2 16.99,22.46 30.14,48.39 39.37,77.85 9.23,29.46 14.45,58.47 15.82,87.01 1.3,28.55 2.08,48.74 2.22,60.55 0.11,11.84 -1.09,34.57 -3.63,68.05 -2.58,33.56 -9.09,68.12 -19.49,103.68 -10.43,35.59 -25.76,67.31 -46.13,95.15 -20.34,27.87 -48.25,41.98 -83.73,42.4 -35.45,0.39 -67.17,-8.56 -94.94,-26.96 -27.84,-18.36 -53.18,-37.78 -76.05,-58.18 -22.94,-20.44 -45.32,-39.86 -67.2,-58.36 -21.93,-18.43 -44.69,-27.56 -68.34,-27.24 -15.75,0.17 -31.01,1.37 -45.74,3.53 -14.72,2.11 -29.07,5.28 -42.75,9.33 4.83,78.81 14.66,159.97 29.5,243.52 14.76,83.59 35.48,169.55 62.17,257.94 2.08,7.82 9.16,24.52 21.32,49.98 12.16,25.47 29.18,51.87 51.17,79.18 22.03,27.35 49.41,51.67 82.19,72.92 32.78,21.36 70.81,31.65 114.15,31.16 47.33,-0.56 93.45,-14.42 138.46,-41.55 45,-27.14 85.99,-58.15 123.03,-93.07 37.04,-34.92 68.65,-68.86 94.87,-101.64 26.21,-32.85 44.11,-54.2 53.91,-64.24 9.69,-11.92 23.26,-29.82 40.74,-53.67 17.44,-23.86 39.33,-47.26 65.65,-70.24 26.33,-22.95 56.64,-41.55 90.97,-55.79 34.28,-14.13 73.19,-17.58 116.65,-10.25 43.38,7.4 76.08,20.3 98,38.73 21.89,18.5 36.37,39.01 43.6,61.57 7.19,22.59 10.36,44.72 9.66,66.36 -0.74,21.74 -0.95,41.41 -0.74,59.17l4.05 339.87c0.6,51.28 -17.12,95.32 -53.11,132.18 -36.05,36.87 -79.68,54.66 -130.89,53.26 -80.85,-0.95 -159.65,2.93 -236.37,11.7 -76.75,8.81 -157.53,13.71 -242.21,14.69 -39.4,0.5 -99,1.73 -178.75,3.67 -79.86,1.98 -163.59,3.92 -251.2,5.92 -87.72,2.08 -170.44,4.06 -248.25,5.95 -77.88,1.91 -133.46,3.07 -166.97,3.42 -17.76,0.21 -44.33,1.55 -79.79,3.95 -35.42,2.4 -73.87,1.87 -115.28,-1.58 -41.41,-3.46 -82.47,-10.33 -122.95,-20.73 -40.5,-10.29 -75.24,-28.12 -104.07,-53.43 -28.86,-25.23 -49.44,-58.01 -61.78,-98.29 -12.3,-40.21 -9.97,-91.95 7.01,-155.27 28.41,-98.86 51.7,-208 70.03,-327.46 18.22,-119.44 29.6,-240.24 34.05,-362.5 4.48,-122.21 0.07,-241.86 -13.15,-359.01 -13.22,-117.07 -37.11,-222.72 -71.76,-316.88 -24.41,-66.68 -32.99,-120.85 -25.54,-162.25 7.32,-41.48 28.65,-74.29 63.81,-98.33 35.17,-24.07 81.77,-40.91 139.81,-50.46 57.97,-9.59 124.44,-14.8 199.37,-15.68l17.72 -0.22c45.28,-0.56 87.19,-0.52 125.64,0 38.38,0.53 73.4,2.58 104.98,6.13 80.81,1.03 168.95,-0.56 264.53,-4.62 95.46,-4.13 180.12,-16.31 255.32,-28.23z"/>
  <path class="fil3" d="M12907.76 11164.77c154.21,-5.95 296.46,-6.58 426.74,-2.01 56.1,1.41 112.27,4.38 168.49,8.85 56.1,4.51 108.33,11.1 156.54,19.8 48.14,8.74 90.83,20.13 128.14,34.12 37.18,14.03 64.99,31.23 83.24,51.63 24.38,26.57 47.93,72.78 70.84,138.58 22.77,65.79 36.65,134.83 41.55,207.01 4.83,72.28 -1.34,139.95 -18.61,203.13 -17.3,63.23 -53.91,104.38 -109.78,123.66 -51.95,13.01 -103.64,4.83 -155.06,-24.49 -51.45,-29.32 -94.69,-79.89 -129.58,-151.75 -14.42,-32.84 -26.29,-62.7 -35.63,-89.44 -9.34,-26.68 -20.12,-49.3 -32.39,-67.73 -12.23,-18.44 -28.9,-32.68 -50.12,-42.79 -21.14,-10.05 -51.73,-14.87 -91.84,-14.39 -7.5,43.46 -16.49,90.01 -26.89,139.67 -10.46,49.73 -20.3,104.07 -29.6,162.99 -9.34,58.96 -17.09,122.57 -23.26,190.79 -6.27,68.2 -8.81,142.55 -7.86,223.12 1.23,101.18 8.77,191.92 22.8,272.27 13.93,80.36 28.9,155.1 44.72,224.07 15.86,69 30.21,134.34 42.9,196.16 12.83,61.81 19.55,124.71 20.3,188.68 0.38,33.06 -15.33,59.03 -47.12,77.99 -31.9,18.96 -69.75,33.42 -113.72,43.21 -43.98,9.8 -88.49,15.47 -133.57,17.06 -45.03,1.55 -81.62,2.54 -109.67,2.86 -28.09,0.35 -66.08,0.24 -114.21,-0.18 -48.11,-0.46 -95.75,-5.04 -142.91,-13.78 -47.22,-8.71 -87.99,-22.17 -122.24,-40.36 -34.33,-18.15 -51.64,-43.77 -52.02,-76.82 -0.75,-63.96 4.48,-127.05 15.78,-189.15 11.28,-62.06 24,-127.75 38.2,-197.11 14.24,-69.35 26.82,-144.38 37.92,-225.05 11.07,-80.64 15.96,-171.55 14.76,-272.7 -1.06,-88.78 -6.06,-168.25 -14.87,-238.34 -8.88,-70.1 -19.66,-133.99 -32.32,-191.65 -12.72,-57.65 -25.9,-109.67 -39.43,-155.97 -13.64,-46.31 -25.69,-88.99 -36.12,-128.11 -12.02,0.14 -21.04,-0.74 -27.06,-2.79 -46.13,0.57 -81.13,5.6 -105.06,15.22 -23.9,9.55 -42.82,23.69 -56.59,42.47 -13.82,18.75 -24.56,42.12 -32.22,70.07 -7.71,27.98 -19.38,59.59 -34.95,94.9 -33.24,72.71 -74.18,124.29 -122.89,154.78 -48.77,30.52 -99.24,39.93 -151.46,28.16 -54.3,-17.94 -91.35,-58.29 -111.16,-121.03 -19.8,-62.73 -27.55,-130.25 -23.47,-202.64 4.13,-72.28 16.35,-141.59 36.61,-207.92 20.27,-66.33 42.22,-113.02 65.94,-140.2 19.73,-22.95 51.63,-41.9 95.53,-56.88 43.85,-14.94 94.8,-27.94 152.81,-39.01 57.97,-11 119.54,-18.96 184.56,-23.86 65.05,-4.9 128.1,-8.74 189.25,-11.56 61.11,-2.79 117.64,-4.52 169.8,-5.14 52.09,-0.6 94.13,-0.04 126.27,1.58z"/>
  <path class="fil3" d="M4825.91 14265.31c88.67,-1.02 157.75,-32.92 207.26,-95.57 49.52,-62.66 72.39,-163.87 68.79,-303.82 -4.76,-64.95 -26.04,-115.41 -63.85,-151.43 -37.92,-35.98 -78.55,-53.74 -121.86,-53.25 -31.54,0.39 -60.44,11.1 -86.8,32.11 -26.36,20.97 -46.2,54.26 -59.38,99.73 -11.03,69.11 -23.94,143.19 -38.73,222.13 -14.87,79.05 -26.71,157 -35.66,233.93 33.62,11.46 77.03,16.84 130.25,16.17zm1075.33 936.06c9.84,3.84 19.81,11.59 29.82,23.3 10.01,11.7 16.56,25.4 19.7,41.12 3.17,15.79 1.9,32.54 -3.78,50.3 -5.74,17.79 -20.3,34.74 -43.77,50.82 -21.54,16.03 -70.1,30.38 -145.8,43.07 -75.73,12.76 -158.94,19.66 -249.54,20.72 -53.22,0.67 -105.47,-1.66 -156.72,-6.98 -51.35,-5.28 -97.26,-15.11 -137.83,-29.39 -40.56,-14.27 -73.86,-33.09 -99.7,-56.42 -25.93,-23.37 -40.07,-52.79 -42.43,-88.17 -0.89,-74.85 6.09,-144.95 21.11,-210.14 15.01,-65.23 21.14,-128.36 18.46,-189.4 -0.35,-29.56 -2.78,-64.98 -7.18,-106.35 -4.48,-41.35 -13.82,-82.09 -28.06,-122.32 -14.31,-40.18 -33.97,-75.95 -58.92,-107.21 -25.05,-31.15 -60.23,-50.47 -105.62,-57.83 -7.92,0.11 -15.29,0.18 -22.2,0.28 -6.94,0.07 -15.29,-0.81 -25.16,-2.68 -33.48,2.4 -64.88,10.19 -94.27,23.34 -29.43,13.18 -56.84,29.7 -82.22,49.72 4.96,84.68 14.24,160.91 27.87,228.76 13.61,67.84 27.21,131.73 40.71,191.64 13.57,60.02 26,116.97 37.53,170.99 11.46,54.09 17.55,109.67 18.22,166.8 0.39,31.54 -15.08,56.35 -46.38,74.46 -31.33,18.08 -68.65,31.83 -111.82,41.24 -43.28,9.37 -87.05,14.83 -131.35,16.31 -44.33,1.55 -79.33,2.47 -104.92,2.79 -27.62,0.28 -65.54,0.28 -113.79,-0.15 -48.31,-0.38 -95.68,-4.79 -142.02,-13.07 -46.44,-8.35 -86.51,-21.15 -120.21,-38.49 -33.73,-17.33 -50.71,-41.76 -51.1,-73.26 -0.74,-61.08 4.89,-121.31 17.05,-180.54 12.09,-59.24 25.16,-121.93 39.12,-188.16 14,-66.14 26.46,-137.76 37.32,-214.76 10.93,-77 15.78,-163.69 14.62,-260.32 -0.85,-70.91 -9.13,-145.16 -24.81,-222.84 -15.67,-77.63 -32.42,-153.79 -50.04,-228.51 -17.62,-74.64 -34.21,-145.9 -49.8,-213.74 -15.61,-67.77 -23.72,-127.26 -24.32,-178.5 -0.63,-51.21 17.13,-89.87 53.29,-115.91 36.16,-26.07 78.27,-44.29 126.48,-54.76 48.11,-10.4 97.34,-15.89 147.6,-16.52 50.22,-0.57 89.12,-1.06 116.72,-1.38 21.64,-0.28 50.25,-0.6 85.7,-1.02 35.45,-0.43 70.98,2.08 106.5,7.61 47.26,-4.52 101.4,-9.06 162.43,-13.82 61,-4.66 125.98,-7.4 194.99,-8.21 94.55,-1.13 192.17,3.6 292.82,14.24 100.62,10.64 191.5,30.73 272.63,60.3 81.16,29.64 148.16,71.65 201.05,126.2 52.83,54.55 79.82,126.13 80.88,214.8 1.03,84.75 -6.94,158.73 -23.93,221.98 -16.99,63.3 -40.99,118.28 -71.9,164.9 -31.05,46.69 -68.05,85.56 -110.98,116.61 -43,31.09 -90.01,56.77 -140.97,77.04 79.51,60.19 143.5,137.76 191.96,232.73 48.46,95.01 87.29,216.25 116.68,363.66 6.41,41.31 16.11,74.75 29.25,100.16 13.15,25.48 27.17,45.5 42.09,60.09 15,14.62 29.35,24.81 43.28,30.52 13.82,5.74 25.68,10.58 35.62,14.39z"/>
  <path class="fil3" d="M6856.06 15201.77c39.36,-0.46 75.1,-21.08 107.1,-61.86 32.07,-40.74 59.52,-95.32 82.33,-163.55 22.8,-68.26 40.07,-148.3 51.84,-240.06 11.67,-91.78 16.95,-189.85 15.68,-294.34 -1.24,-104.35 -8.85,-202.36 -22.74,-293.78 -13.96,-91.49 -33.09,-171.55 -57.54,-240.24 -24.46,-68.68 -53.19,-122.49 -86.2,-161.58 -32.96,-38.97 -69.18,-58.25 -108.55,-57.79 -45.35,0.53 -84.01,20.69 -116.05,60.47 -32.07,39.83 -58.54,94.34 -79.33,163.56 -20.9,69.25 -36.19,149.71 -45.92,241.47 -9.72,91.74 -13.99,189.82 -12.72,294.24 1.23,104.45 7.33,202.39 18.29,293.91 10.89,91.53 27.66,171.63 50.15,240.28 22.52,68.75 50.25,122.6 83.23,161.61 32.96,39.05 73.13,58.26 120.43,57.66zm-24.15 -1773.26c133.95,-1.62 260.4,23.51 379.24,75.24 118.87,51.81 222.69,123.03 311.5,213.56 88.7,90.58 159.43,197.61 212.18,321.16 52.7,123.52 79.93,255.22 81.59,395.09 1.7,139.95 -22.41,272.24 -72.14,396.99 -49.76,124.72 -117.92,233.44 -204.47,326.14 -86.59,92.64 -188.69,166.27 -306.33,220.89 -117.53,54.62 -243.34,82.75 -377.33,84.33 -133.98,1.58 -259.93,-23.51 -377.78,-75.31 -117.85,-51.81 -221.21,-122.99 -309.95,-213.53 -88.78,-90.61 -159.51,-197.67 -212.22,-321.19 -52.77,-123.52 -79.9,-255.19 -81.59,-395.13 -1.66,-139.84 22.34,-272.17 72.11,-396.92 49.76,-124.75 117.92,-233.44 204.54,-326.13 86.55,-92.65 188.16,-166.31 304.73,-220.93 116.62,-54.58 241.9,-82.68 375.92,-84.26z"/>
  <path class="fil3" d="M8660.32 14311.19c37.39,-6.38 76.72,-12.27 118.06,-17.69 41.27,-5.35 84.57,-8.35 129.94,-8.92 25.58,-0.31 51.21,0.43 76.86,2.05 25.58,1.69 51.31,4.34 76.96,7.93 -2.92,-76.79 -8.24,-150.67 -15.96,-221.49 -7.75,-70.88 -19.34,-133.25 -34.7,-187.28 -15.44,-54.02 -34.71,-97.16 -57.73,-129.37 -23.05,-32.25 -51.35,-48.14 -84.79,-47.79l-20.72 0.25c-37.39,4.44 -68.19,24.48 -92.41,60.23 -24.25,35.76 -43.39,81.34 -57.48,136.66 -14.1,55.33 -24.21,118.06 -30.24,188.09 -6.09,70.03 -8.63,142.48 -7.78,217.34zm880.69 -510.09c38.94,125.7 75.94,252.86 110.98,381.49 35.03,128.67 67.52,249.51 97.44,362.43 29.92,112.98 57.23,212.11 81.91,297.54 24.66,85.46 46.09,147.77 64.31,186.96 18.15,37.21 30.91,72.07 38.2,104.48 7.26,32.43 2.68,62.03 -13.78,88.81 -16.42,26.82 -47.65,51.35 -93.67,73.55 -46.09,22.27 -112.31,42.75 -198.8,61.5 -51.18,10.5 -101.29,19.98 -150.42,28.4 -49.2,8.42 -96.45,12.97 -141.74,13.54 -53.22,0.6 -102.03,-6.16 -146.53,-20.41 -44.51,-14.31 -80.81,-39.43 -108.83,-75.59 -28.05,-36.08 -46.34,-85.14 -54.94,-147.13 -8.63,-62 -4.65,-140.34 11.95,-235.17 3.53,-37.43 7.86,-84.79 13.12,-142.02 5.21,-57.2 9.33,-120.28 12.51,-189.32 -21.82,-9.59 -47.54,-18.15 -77.14,-25.69 -29.64,-7.47 -64.21,-11.03 -103.61,-10.57 -27.63,0.31 -58.61,3.21 -93,8.49 -34.39,5.35 -73.26,15.22 -116.37,29.5 4.7,68.93 10.44,131.9 16.99,188.93 6.66,57.09 13.11,105.26 19.49,144.63 18.85,94.34 24.7,172.61 17.58,234.82 -7.19,62.13 -24.36,111.61 -51.42,148.37 -27.2,36.82 -62.8,62.84 -106.96,78.16 -44.15,15.29 -92.85,23.26 -146.07,23.9 -45.36,0.53 -93.11,-2.86 -143.47,-10.11 -50.36,-7.26 -101.18,-15.51 -152.52,-24.78 -86.94,-16.7 -153.65,-35.59 -200.21,-56.7 -46.58,-21.14 -78.41,-44.93 -95.39,-71.33 -17.09,-26.39 -22.38,-55.89 -15.89,-88.49 6.48,-32.57 18.43,-67.67 35.69,-105.34 17.27,-39.61 37.22,-102.4 59.85,-188.44 22.59,-85.99 47.99,-185.76 76.22,-299.48 28.23,-113.58 58.22,-235.13 90.19,-364.61 32.03,-129.45 65.97,-257.45 101.85,-384.03 28.33,-104.74 70.63,-190 127.08,-255.75 56.28,-65.69 116.3,-118.14 179.84,-157.32 63.58,-39.19 124.83,-67.49 183.79,-84.97 58.89,-17.41 105.02,-29.36 138.5,-35.63 7.79,-2.04 20.69,-3.21 38.38,-3.42l5.84 -3.03 2.97 -0.04 14.76 -0.17c98.64,8.7 191.53,33.2 278.79,73.51 37.6,17.26 75.27,38.55 113.05,63.71 37.71,25.16 74.04,55.78 108.97,91.77 34.92,36.12 67.42,78.56 97.62,127.44 30.13,48.91 54.44,104.77 72.92,167.61z"/>
  <path class="fil3" d="M11034.89 14885.86c51.1,-6.55 96.07,-37.6 134.87,-93.25 38.69,-55.64 70.98,-122.03 96.63,-199.22 25.69,-77.14 44.33,-159.12 56.17,-245.99 11.74,-86.83 17.23,-164.75 16.42,-233.72 -0.84,-68.97 -3.14,-138.4 -6.9,-208.32 -3.81,-69.89 -15.4,-132.33 -34.78,-187.31 -19.38,-54.9 -50.47,-99.38 -93.21,-133.39 -42.79,-33.94 -103.61,-50.5 -182.37,-49.51 -37.46,0.46 -72.82,9.27 -106.08,26.36 -33.38,17.19 -64.59,39.75 -93.81,67.62 -1.94,7.93 -3.28,15.33 -4.16,22.24 -0.92,6.94 -3.32,15.33 -7.08,25.23 -37.67,150.21 -60.37,308.61 -68.23,475.23 -7.89,166.59 9.02,347.2 50.82,541.8 28.55,82.44 60.23,137.24 95.04,164.4 34.82,27.17 83.66,36.44 146.68,27.81zm-526.51 -1513.1c29.43,-14.1 66.64,-29.82 111.79,-47.12 45.07,-17.26 95.15,-33.69 150.17,-49.09 54.94,-15.47 113.93,-28.93 176.88,-40.57 62.91,-11.56 127.86,-17.76 194.85,-18.57 110.31,-1.34 221.91,17.09 334.69,55.15 112.74,38.06 216.07,108.76 309.95,212.05 83.84,91.67 146.61,192.38 188.37,302.2 41.66,109.92 66.68,223.39 75.03,340.54 8.24,117.17 1.73,233.51 -19.53,349.03 -21.32,115.52 -53.5,223.36 -96.63,323.38 -43.14,100.05 -95.25,189.81 -156.4,269.34 -61.11,79.58 -127.96,141.46 -200.27,185.69 -56.78,34.18 -117.01,63.02 -180.75,86.38 -63.79,23.44 -129.06,41.9 -195.91,55.54 -66.82,13.6 -133.25,23.26 -199.19,28.96 -65.97,5.71 -130.47,8.95 -193.48,9.73 -69,0.81 -134.05,-0.92 -195.2,-5.07 -61.15,-4.2 -114.39,-8 -159.76,-11.38 -53.25,-7.26 -101.64,-14.6 -145.08,-21.93 -41.42,-1.48 -84.3,-7.4 -128.78,-17.69 -44.47,-10.25 -83.13,-27.52 -115.91,-51.8 -32.78,-24.22 -55.89,-57.45 -69.14,-99.67 -13.36,-42.22 -11.49,-95.96 5.42,-161.16 28.37,-98.88 51.74,-208.03 69.96,-327.46 18.29,-119.47 29.67,-240.27 34.11,-362.53 4.45,-122.21 0.11,-241.9 -13.14,-359 -13.22,-117.04 -37.15,-222.73 -71.76,-316.89 -24.49,-68.65 -32.53,-123.77 -24.14,-165.21 8.35,-41.52 31.12,-74.32 68.26,-98.36 37.14,-24.15 85.74,-40.46 145.76,-49.1 59.98,-8.52 128.38,-13.32 205.28,-14.24l94.55 -1.16z"/>
 </g>
</svg>
